<svg width="12" height="80" viewBox="0 0 12 80" fill="none" xmlns="http://www.w3.org/2000/svg">
<path d="M0.666667 6C0.666667 8.94552 3.05448 11.3333 6 11.3333C8.94552 11.3333 11.3333 8.94552 11.3333 6C11.3333 3.05448 8.94552 0.666667 6 0.666667C3.05448 0.666667 0.666667 3.05448 0.666667 6ZM5 9.08333C5 9.63562 5.44772 10.0833 6 10.0833C6.55228 10.0833 7 9.63562 7 9.08333L5 9.08333ZM7 15.25C7 14.6977 6.55228 14.25 6 14.25C5.44771 14.25 5 14.6977 5 15.25L7 15.25ZM5 21.4167C5 21.969 5.44771 22.4167 6 22.4167C6.55228 22.4167 7 21.969 7 21.4167L5 21.4167ZM7 27.5833C7 27.031 6.55228 26.5833 6 26.5833C5.44771 26.5833 5 27.031 5 27.5833L7 27.5833ZM5 33.75C5 34.3023 5.44771 34.75 6 34.75C6.55228 34.75 7 34.3023 7 33.75L5 33.75ZM7 39.9167C7 39.3644 6.55228 38.9167 6 38.9167C5.44771 38.9167 5 39.3644 5 39.9167L7 39.9167ZM5 46.0833C5 46.6356 5.44771 47.0833 6 47.0833C6.55228 47.0833 7 46.6356 7 46.0833L5 46.0833ZM7 52.25C7 51.6977 6.55228 51.25 6 51.25C5.44771 51.25 5 51.6977 5 52.25L7 52.25ZM5 58.4167C5 58.969 5.44771 59.4167 6 59.4167C6.55228 59.4167 7 58.969 7 58.4167L5 58.4167ZM7 64.5833C7 64.0311 6.55228 63.5833 6 63.5833C5.44771 63.5833 5 64.0311 5 64.5833L7 64.5833ZM5 70.75C5 71.3023 5.44771 71.75 6 71.75C6.55228 71.75 7 71.3023 7 70.75L5 70.75ZM7 76.9167C7 76.3644 6.55228 75.9167 6 75.9167C5.44771 75.9167 5 76.3644 5 76.9167L7 76.9167ZM5 6L5 9.08333L7 9.08333L7 6L5 6ZM5 15.25L5 21.4167L7 21.4167L7 15.25L5 15.25ZM5 27.5833L5 33.75L7 33.75L7 27.5833L5 27.5833ZM5 39.9167L5 46.0833L7 46.0833L7 39.9167L5 39.9167ZM5 52.25L5 58.4167L7 58.4167L7 52.25L5 52.25ZM5 64.5833L5 70.75L7 70.75L7 64.5833L5 64.5833ZM5 76.9167L5 80L7 80L7 76.9167L5 76.9167Z" fill="#2575AF"/>
</svg>
