<svg width="12" height="63" viewBox="0 0 12 63" fill="none" xmlns="http://www.w3.org/2000/svg">
<path d="M0.666667 6C0.666666 8.94552 3.05448 11.3333 6 11.3333C8.94552 11.3333 11.3333 8.94552 11.3333 6C11.3333 3.05448 8.94552 0.666667 6 0.666667C3.05448 0.666666 0.666667 3.05448 0.666667 6ZM5 8.85C5 9.40228 5.44772 9.85 6 9.85C6.55228 9.85 7 9.40228 7 8.85L5 8.85ZM7 14.55C7 13.9977 6.55228 13.55 6 13.55C5.44771 13.55 5 13.9977 5 14.55L7 14.55ZM5 20.25C5 20.8023 5.44771 21.25 6 21.25C6.55228 21.25 7 20.8023 7 20.25L5 20.25ZM7 25.95C7 25.3977 6.55228 24.95 6 24.95C5.44771 24.95 5 25.3977 5 25.95L7 25.95ZM5 31.65C5 32.2023 5.44771 32.65 6 32.65C6.55228 32.65 7 32.2023 7 31.65L5 31.65ZM7 37.35C7 36.7977 6.55228 36.35 6 36.35C5.44771 36.35 5 36.7977 5 37.35L7 37.35ZM5 43.05C5 43.6023 5.44771 44.05 6 44.05C6.55228 44.05 7 43.6023 7 43.05L5 43.05ZM7 48.75C7 48.1977 6.55228 47.75 6 47.75C5.44771 47.75 5 48.1977 5 48.75L7 48.75ZM5 54.45C5 55.0023 5.44771 55.45 6 55.45C6.55228 55.45 7 55.0023 7 54.45L5 54.45ZM7 60.15C7 59.5977 6.55228 59.15 6 59.15C5.44771 59.15 5 59.5977 5 60.15L7 60.15ZM5 6L5 8.85L7 8.85L7 6L5 6ZM5 14.55L5 20.25L7 20.25L7 14.55L5 14.55ZM5 25.95L5 31.65L7 31.65L7 25.95L5 25.95ZM5 37.35L5 43.05L7 43.05L7 37.35L5 37.35ZM5 48.75L5 54.45L7 54.45L7 48.75L5 48.75ZM5 60.15L5 63L7 63L7 60.15L5 60.15Z" fill="#2575AF"/>
</svg>
