<svg width="163" height="100" viewBox="0 0 163 100" fill="none" xmlns="http://www.w3.org/2000/svg">
<g clip-path="url(#clip0_58_256)">
<path d="M10.9266 94.3507C10.9266 91.4535 8.57116 89.1049 5.66563 89.1049C2.76009 89.1049 0.404693 91.4535 0.404693 94.3507C0.404694 97.2478 2.7601 99.5964 5.66563 99.5964C8.57117 99.5964 10.9266 97.2478 10.9266 94.3507Z" fill="#C7D7EF" stroke="white" stroke-miterlimit="10"/>
<path d="M36.2033 94.3507C36.2033 91.4535 33.8479 89.1049 30.9424 89.1049C28.0369 89.1049 25.6815 91.4535 25.6815 94.3507C25.6815 97.2478 28.0369 99.5964 30.9424 99.5964C33.8479 99.5964 36.2033 97.2478 36.2033 94.3507Z" fill="#C7D7EF" stroke="white" stroke-miterlimit="10"/>
<path d="M61.4801 94.3507C61.4801 91.4535 59.1247 89.1049 56.2192 89.1049C53.3137 89.1049 50.9583 91.4535 50.9583 94.3507C50.9583 97.2478 53.3137 99.5964 56.2192 99.5964C59.1247 99.5964 61.4801 97.2478 61.4801 94.3507Z" fill="#C7D7EF" stroke="white" stroke-miterlimit="10"/>
<path d="M86.7569 94.3507C86.7569 91.4535 84.4015 89.1049 81.496 89.1049C78.5904 89.1049 76.235 91.4535 76.235 94.3507C76.235 97.2478 78.5904 99.5964 81.496 99.5964C84.4015 99.5964 86.7569 97.2478 86.7569 94.3507Z" fill="#C7D7EF" stroke="white" stroke-miterlimit="10"/>
<path d="M112.042 94.3507C112.042 91.4535 109.686 89.1049 106.781 89.1049C103.875 89.1049 101.52 91.4535 101.52 94.3507C101.52 97.2478 103.875 99.5964 106.781 99.5964C109.686 99.5964 112.042 97.2478 112.042 94.3507Z" fill="#C7D7EF" stroke="white" stroke-miterlimit="10"/>
<path d="M137.319 94.3507C137.319 91.4535 134.963 89.1049 132.058 89.1049C129.152 89.1049 126.797 91.4535 126.797 94.3507C126.797 97.2478 129.152 99.5964 132.058 99.5964C134.963 99.5964 137.319 97.2478 137.319 94.3507Z" fill="#C7D7EF" stroke="white" stroke-miterlimit="10"/>
<path d="M10.9266 64.7809C10.9266 61.8837 8.57116 59.5351 5.66563 59.5351C2.76009 59.5351 0.404693 61.8837 0.404693 64.7809C0.404694 67.678 2.7601 70.0266 5.66563 70.0266C8.57117 70.0266 10.9266 67.678 10.9266 64.7809Z" fill="#C7D7EF" stroke="white" stroke-miterlimit="10"/>
<path d="M36.2033 64.7809C36.2033 61.8837 33.8479 59.5351 30.9424 59.5351C28.0369 59.5351 25.6815 61.8837 25.6815 64.7809C25.6815 67.678 28.0369 70.0266 30.9424 70.0266C33.8479 70.0266 36.2033 67.678 36.2033 64.7809Z" fill="#C7D7EF" stroke="white" stroke-miterlimit="10"/>
<path d="M61.4801 64.7809C61.4801 61.8837 59.1247 59.5351 56.2192 59.5351C53.3137 59.5351 50.9583 61.8837 50.9583 64.7809C50.9583 67.678 53.3137 70.0266 56.2192 70.0266C59.1247 70.0266 61.4801 67.678 61.4801 64.7809Z" fill="#C7D7EF" stroke="white" stroke-miterlimit="10"/>
<path d="M86.7569 64.7809C86.7569 61.8837 84.4015 59.5351 81.496 59.5351C78.5904 59.5351 76.235 61.8837 76.235 64.7809C76.235 67.678 78.5904 70.0266 81.496 70.0266C84.4015 70.0266 86.7569 67.678 86.7569 64.7809Z" fill="#C7D7EF" stroke="white" stroke-miterlimit="10"/>
<path d="M112.042 64.7809C112.042 61.8837 109.686 59.5351 106.781 59.5351C103.875 59.5351 101.52 61.8837 101.52 64.7809C101.52 67.678 103.875 70.0266 106.781 70.0266C109.686 70.0266 112.042 67.678 112.042 64.7809Z" fill="#C7D7EF" stroke="white" stroke-miterlimit="10"/>
<path d="M137.319 64.7809C137.319 61.8837 134.963 59.5351 132.058 59.5351C129.152 59.5351 126.797 61.8837 126.797 64.7809C126.797 67.678 129.152 70.0266 132.058 70.0266C134.963 70.0266 137.319 67.678 137.319 64.7809Z" fill="#C7D7EF" stroke="white" stroke-miterlimit="10"/>
<path d="M10.9266 35.211C10.9266 32.3139 8.57116 29.9653 5.66563 29.9653C2.76009 29.9653 0.404693 32.3139 0.404693 35.211C0.404694 38.1082 2.7601 40.4568 5.66563 40.4568C8.57117 40.4568 10.9266 38.1082 10.9266 35.211Z" fill="#C7D7EF" stroke="white" stroke-miterlimit="10"/>
<path d="M36.2033 35.211C36.2033 32.3139 33.8479 29.9653 30.9424 29.9653C28.0369 29.9653 25.6815 32.3139 25.6815 35.211C25.6815 38.1082 28.0369 40.4568 30.9424 40.4568C33.8479 40.4568 36.2033 38.1082 36.2033 35.211Z" fill="#C7D7EF" stroke="white" stroke-miterlimit="10"/>
<path d="M61.4801 35.211C61.4801 32.3139 59.1247 29.9653 56.2192 29.9653C53.3137 29.9653 50.9583 32.3139 50.9583 35.211C50.9583 38.1082 53.3137 40.4568 56.2192 40.4568C59.1247 40.4568 61.4801 38.1082 61.4801 35.211Z" fill="#C7D7EF" stroke="white" stroke-miterlimit="10"/>
<path d="M86.7569 35.211C86.7569 32.3139 84.4015 29.9653 81.496 29.9653C78.5904 29.9653 76.235 32.3139 76.235 35.211C76.235 38.1082 78.5904 40.4568 81.496 40.4568C84.4015 40.4568 86.7569 38.1082 86.7569 35.211Z" fill="#C7D7EF" stroke="white" stroke-miterlimit="10"/>
<path d="M112.042 35.211C112.042 32.3139 109.686 29.9653 106.781 29.9653C103.875 29.9653 101.52 32.3139 101.52 35.211C101.52 38.1082 103.875 40.4568 106.781 40.4568C109.686 40.4568 112.042 38.1082 112.042 35.211Z" fill="#C7D7EF" stroke="white" stroke-miterlimit="10"/>
<path d="M137.319 35.211C137.319 32.3139 134.963 29.9653 132.058 29.9653C129.152 29.9653 126.797 32.3139 126.797 35.211C126.797 38.1082 129.152 40.4568 132.058 40.4568C134.963 40.4568 137.319 38.1082 137.319 35.211Z" fill="#C7D7EF" stroke="white" stroke-miterlimit="10"/>
<path d="M10.9266 5.64928C10.9266 2.75213 8.57116 0.403534 5.66563 0.403534C2.76009 0.403534 0.404693 2.75213 0.404693 5.64928C0.404694 8.54642 2.7601 10.895 5.66563 10.895C8.57117 10.895 10.9266 8.54642 10.9266 5.64928Z" fill="#C7D7EF" stroke="white" stroke-miterlimit="10"/>
<path d="M36.2033 5.64928C36.2033 2.75213 33.8479 0.403534 30.9424 0.403534C28.0369 0.403534 25.6815 2.75213 25.6815 5.64928C25.6815 8.54642 28.0369 10.895 30.9424 10.895C33.8479 10.895 36.2033 8.54642 36.2033 5.64928Z" fill="#C7D7EF" stroke="white" stroke-miterlimit="10"/>
<path d="M61.4801 5.64928C61.4801 2.75213 59.1247 0.403534 56.2192 0.403534C53.3137 0.403534 50.9583 2.75213 50.9583 5.64928C50.9583 8.54642 53.3137 10.895 56.2192 10.895C59.1247 10.895 61.4801 8.54642 61.4801 5.64928Z" fill="#C7D7EF" stroke="white" stroke-miterlimit="10"/>
<path d="M86.7569 5.64928C86.7569 2.75213 84.4015 0.403534 81.496 0.403534C78.5904 0.403534 76.235 2.75213 76.235 5.64928C76.235 8.54642 78.5904 10.895 81.496 10.895C84.4015 10.895 86.7569 8.54642 86.7569 5.64928Z" fill="#C7D7EF" stroke="white" stroke-miterlimit="10"/>
<path d="M112.042 5.64928C112.042 2.75213 109.686 0.403534 106.781 0.403534C103.875 0.403534 101.52 2.75213 101.52 5.64928C101.52 8.54642 103.875 10.895 106.781 10.895C109.686 10.895 112.042 8.54642 112.042 5.64928Z" fill="#C7D7EF" stroke="white" stroke-miterlimit="10"/>
<path d="M137.319 5.64928C137.319 2.75213 134.963 0.403534 132.058 0.403534C129.152 0.403534 126.797 2.75213 126.797 5.64928C126.797 8.54642 129.152 10.895 132.058 10.895C134.963 10.895 137.319 8.54642 137.319 5.64928Z" fill="#C7D7EF" stroke="white" stroke-miterlimit="10"/>
<path d="M162.595 94.3507C162.595 91.4535 160.24 89.1049 157.334 89.1049C154.429 89.1049 152.073 91.4535 152.073 94.3507C152.073 97.2478 154.429 99.5964 157.334 99.5964C160.24 99.5964 162.595 97.2478 162.595 94.3507Z" fill="#C7D7EF" stroke="white" stroke-miterlimit="10"/>
<path d="M162.595 64.7809C162.595 61.8837 160.24 59.5351 157.334 59.5351C154.429 59.5351 152.073 61.8837 152.073 64.7809C152.073 67.678 154.429 70.0266 157.334 70.0266C160.24 70.0266 162.595 67.678 162.595 64.7809Z" fill="#C7D7EF" stroke="white" stroke-miterlimit="10"/>
<path d="M162.595 35.211C162.595 32.3139 160.24 29.9653 157.334 29.9653C154.429 29.9653 152.073 32.3139 152.073 35.211C152.073 38.1082 154.429 40.4568 157.334 40.4568C160.24 40.4568 162.595 38.1082 162.595 35.211Z" fill="#C7D7EF" stroke="white" stroke-miterlimit="10"/>
<path d="M162.595 5.64928C162.595 2.75213 160.24 0.403534 157.334 0.403534C154.429 0.403534 152.073 2.75213 152.073 5.64928C152.073 8.54642 154.429 10.895 157.334 10.895C160.24 10.895 162.595 8.54642 162.595 5.64928Z" fill="#C7D7EF" stroke="white" stroke-miterlimit="10"/>
</g>
<defs>
<clipPath id="clip0_58_256">
<rect width="100" height="163" fill="white" transform="translate(0 100) rotate(-90)"/>
</clipPath>
</defs>
</svg>
