<svg width="1421" height="483" viewBox="0 0 1421 483" fill="none" xmlns="http://www.w3.org/2000/svg">
<path d="M1400.66 180.662C1400.66 180.662 1372.52 85.919 1214.48 32.9748C1056.44 -19.9693 863.768 -6.03249 783.674 52.4841C703.579 111.001 710.065 214.097 625.635 211.317C541.205 208.525 508.73 134.692 391.837 182.064C378.272 187.557 367.118 193.288 357.948 199.177H357.925C357.925 199.177 355.988 200.296 352.556 202.511C352.556 202.511 352.532 202.523 352.496 202.545C351.51 203.178 350.418 203.902 349.194 204.727C336.461 213.08 289.388 243.576 241.721 269.189C185.905 299.176 75.6283 275.27 35.3375 399.865C33.8884 402.872 32.5937 405.957 31.4652 409.134C25.9063 424.822 24.3859 441.653 18.2686 457.172C15.4772 464.259 9.14618 483 0 483H1413.64C1413.64 483 1435.3 301.878 1400.66 180.662Z" fill="#345EA2"/>
<g clip-path="url(#clip0_196_24)">
<path d="M715.389 58.6823C716.947 61.908 722.707 66.7682 722.711 66.7717C722.77 66.8241 724.27 61.3935 724.332 61.0374C725.037 56.9233 724.325 48.4605 720.805 46.1376C718.269 44.4633 715.261 46.005 714.155 48.9785C713.021 52.014 714.062 55.9355 715.389 58.6823Z" fill="#345EA2"/>
<path d="M715.833 153.138C715.833 153.138 712.769 157.336 705.347 156.839C702.659 156.393 699.874 155.5 699.386 155.342C698.513 157.598 697.647 159.796 696.806 161.829C695.043 166.11 693.389 169.846 691.96 172.952L689.845 171.08C691.27 168.122 692.914 164.586 694.661 160.572C695.461 158.755 696.273 156.813 697.099 154.803C696.409 154.351 690.917 150.645 689.173 147.832C687.589 145.282 686.173 141.527 686.994 138.351C687.797 135.24 690.631 133.305 693.31 134.631C697.033 136.477 698.576 144.788 698.278 148.974C698.258 149.245 697.733 152.378 697.435 153.975C697.927 152.76 698.418 151.557 698.918 150.283C699.643 148.458 700.355 146.499 701.054 144.608C701.389 143.607 701.728 142.601 702.066 141.587C702.431 140.569 702.669 139.546 702.976 138.513C703.403 136.986 703.778 135.385 704.15 133.789C702.508 133.021 697.719 130.679 695.888 128.503C693.988 126.258 692.103 122.787 692.501 119.505C692.893 116.281 695.439 113.868 698.259 114.706C702.174 115.87 704.766 123.826 705.023 128.02C705.032 128.159 705.004 129.049 704.965 130.111C705.291 128.538 705.62 126.969 705.906 125.362C706.713 120.811 707.414 116.137 708.135 111.46C708.287 110.484 708.446 109.515 708.602 108.542C707.217 107.907 702.012 105.42 700.086 103.139C698.19 100.898 696.306 97.4269 696.707 94.1398C697.095 90.9207 699.64 88.4998 702.458 89.3421C706.373 90.5064 708.972 98.4616 709.225 102.66C709.233 102.811 709.198 103.876 709.157 105.066C709.58 102.534 710.026 100.015 710.536 97.5308C711.428 93.1853 712.508 88.9627 713.828 84.9743C713.336 84.7551 707.186 81.9805 705.047 79.4523C703.154 77.2069 701.267 73.7404 701.664 70.4498C702.052 67.2308 704.601 64.8133 707.422 65.6511C711.336 66.8153 713.933 74.7751 714.182 78.9697C714.201 79.2677 714.06 83.1239 713.97 84.4943C713.986 84.4506 714.001 84.3988 714.013 84.3516C715.433 80.1784 717.238 76.4023 719.093 72.9234C720.258 70.7238 721.489 68.683 722.711 66.7714C723.421 65.6619 724.133 64.5974 724.833 63.572C726.722 60.7802 728.605 58.3646 730.284 56.2449C731.195 55.1037 732.054 54.0821 732.865 53.134C732.847 53.1327 732.78 53.1309 732.78 53.1309C732.716 53.0749 734.446 47.7976 734.587 47.4745C736.243 43.7548 741.321 37.7273 745.296 38.5482C748.16 39.1359 749.67 42.5712 748.933 45.7051C748.182 48.8988 745.28 51.1699 742.779 52.31C740.222 53.4797 734.516 53.2325 733.103 53.1501C732.281 54.1535 731.412 55.2304 730.475 56.4498C728.839 58.608 727.015 61.068 725.179 63.8927C724.69 64.6499 724.189 65.4832 723.69 66.275C724.771 65.1401 726.271 63.6051 726.428 63.4773C729.372 61.0842 736.277 58.4835 739.497 61.3484C741.819 63.4109 741.807 67.2591 739.915 69.6307C737.984 72.054 734.502 72.4912 731.828 72.1581C729.035 71.8065 723.935 68.4173 722.824 67.6647C721.748 69.4461 720.671 71.306 719.653 73.3257C717.889 76.7985 716.166 80.603 714.85 84.7392C714.776 84.9693 714.721 85.217 714.654 85.4461C715.102 84.7819 717.793 81.3073 718.006 81.0923C720.7 78.3345 727.312 74.8688 730.78 77.3032C733.282 79.0568 733.631 82.8853 731.976 85.4877C730.285 88.1452 726.868 89.0298 724.179 89.037C721.082 89.0508 714.841 85.7341 714.608 85.6142C713.413 89.5044 712.445 93.6022 711.663 97.8357C711.09 100.906 710.621 104.039 710.171 107.19C710.772 106.337 713.275 103.114 713.478 102.905C716.179 100.146 722.788 96.6768 726.259 99.1147C728.755 100.869 729.104 104.698 727.448 107.3C725.757 109.958 722.344 110.846 719.655 110.853C716.628 110.864 710.638 107.718 710.133 107.451C709.934 108.884 709.725 110.315 709.531 111.751C708.903 116.439 708.284 121.141 707.556 125.762C707.3 127.36 707.002 128.928 706.708 130.5C707.644 129.244 709.39 127.01 709.556 126.84C712.253 124.078 718.865 120.612 722.333 123.046C724.828 124.801 725.181 128.633 723.526 131.235C721.835 133.893 718.418 134.777 715.729 134.785C713.03 134.798 707.945 132.28 706.519 131.544C706.014 134.155 705.465 136.727 704.819 139.228C704.517 140.302 704.273 141.421 703.935 142.427C703.613 143.454 703.3 144.468 702.986 145.474C702.268 147.529 701.613 149.438 700.903 151.327C700.552 152.285 700.203 153.181 699.855 154.105C700.638 152.671 701.914 150.425 702.049 150.235C704.353 147.023 710.431 142.421 714.17 144.224C716.866 145.514 717.707 149.244 716.413 152.115C716.249 152.475 716.051 152.82 715.833 153.138Z" fill="#345EA2"/>
</g>
<g clip-path="url(#clip1_196_24)">
<path d="M653.653 132.733C654.888 134.718 655.52 139.915 655.52 139.923C655.527 139.974 651.969 139.298 651.749 139.232C649.205 138.438 644.757 135.409 644.728 132.432C644.706 130.285 646.647 128.807 648.698 128.991C650.793 129.182 652.601 131.042 653.653 132.733Z" fill="#345EA2"/>
<path d="M706.025 161.684C706.025 161.684 709.466 160.978 711.855 156.023C712.575 154.148 713.083 152.075 713.171 151.715C714.737 151.832 716.273 151.943 717.707 152.016C720.721 152.178 723.397 152.237 725.639 152.259L725.36 150.325C723.198 150.347 720.64 150.34 717.78 150.252C716.479 150.215 715.112 150.156 713.693 150.075C713.693 149.495 713.605 144.819 712.664 142.834C711.818 141.033 710.238 138.982 708.172 138.548C706.15 138.122 704.055 139.371 703.827 141.503C703.511 144.473 707.584 147.995 710.017 149.068C710.171 149.134 712.105 149.752 713.105 150.039C712.252 149.987 711.407 149.943 710.517 149.877C709.238 149.789 707.892 149.656 706.591 149.539C705.915 149.45 705.231 149.362 704.547 149.274C703.849 149.201 703.195 149.046 702.511 148.928C701.511 148.745 700.482 148.495 699.46 148.252C699.622 146.958 700.041 143.15 699.49 141.305C698.923 139.393 697.674 137.122 695.703 136.387C693.77 135.659 691.513 136.578 690.962 138.651C690.197 141.533 693.697 145.628 695.931 147.069C696.005 147.12 696.512 147.37 697.115 147.664C696.123 147.399 695.13 147.135 694.138 146.833C691.315 145.973 688.462 145.01 685.602 144.054C685.007 143.856 684.411 143.665 683.809 143.474C683.956 142.386 684.441 138.261 683.867 136.328C683.301 134.424 682.052 132.152 680.081 131.41C678.148 130.682 675.891 131.593 675.347 133.674C674.582 136.556 678.074 140.651 680.317 142.092C680.397 142.143 681 142.444 681.677 142.775C680.118 142.283 678.552 141.805 676.986 141.378C674.252 140.636 671.509 140.055 668.819 139.695C668.878 139.313 669.547 134.49 668.907 132.343C668.341 130.439 667.091 128.168 665.121 127.425C663.187 126.697 660.93 127.616 660.379 129.689C659.615 132.571 663.114 136.666 665.356 138.1C665.518 138.203 667.709 139.283 668.503 139.636C668.473 139.636 668.436 139.629 668.407 139.621C665.577 139.276 662.827 139.298 660.225 139.438C658.585 139.526 657.005 139.702 655.498 139.908C654.623 140.033 653.777 140.165 652.954 140.312C650.719 140.687 648.697 141.173 646.918 141.614C645.955 141.856 645.08 142.099 644.257 142.341C644.264 142.327 644.286 142.283 644.286 142.283C644.279 142.224 640.721 141.739 640.493 141.731C637.832 141.672 632.649 143.128 631.671 145.951C630.965 147.98 632.333 150.002 634.34 150.472C636.383 150.958 638.692 149.767 640.228 148.495C641.802 147.194 643.713 143.429 644.176 142.488C645.029 142.261 645.941 142.025 646.955 141.79C648.741 141.386 650.771 140.952 652.998 140.621C653.594 140.533 654.24 140.467 654.858 140.379C653.836 140.731 652.447 141.239 652.314 141.298C649.925 142.474 645.992 146.15 646.426 149.105C646.735 151.23 648.881 152.391 650.881 151.891C652.925 151.377 654.417 149.259 655.196 147.429C656.005 145.517 655.953 141.187 655.939 140.239C657.313 140.085 658.74 139.952 660.225 139.908C662.79 139.82 665.525 139.864 668.304 140.268C668.458 140.29 668.613 140.327 668.767 140.357C668.238 140.445 665.334 141.128 665.143 141.202C662.636 142.106 658.335 145.334 658.438 148.311C658.512 150.465 660.519 151.847 662.562 151.568C664.65 151.281 666.371 149.34 667.341 147.605C668.466 145.606 668.863 140.562 668.885 140.379C671.48 140.783 674.105 141.4 676.744 142.18C678.655 142.738 680.567 143.385 682.485 144.054C681.794 144.187 679.104 144.826 678.912 144.892C676.406 145.804 672.098 149.024 672.208 152.009C672.289 154.155 674.288 155.545 676.332 155.258C678.42 154.972 680.14 153.031 681.111 151.296C682.206 149.34 682.61 144.51 682.647 144.106C683.515 144.415 684.389 144.709 685.257 145.025C688.087 146.039 690.925 147.069 693.763 148.002C694.74 148.326 695.726 148.605 696.703 148.892C695.667 149.112 693.799 149.568 693.645 149.62C691.138 150.524 686.83 153.751 686.94 156.729C687.021 158.875 689.021 160.265 691.065 159.985C693.152 159.699 694.873 157.758 695.843 156.023C696.821 154.28 697.255 150.23 697.358 149.083C698.99 149.546 700.622 149.972 702.246 150.318C702.952 150.45 703.665 150.627 704.342 150.715C705.033 150.818 705.709 150.921 706.378 151.024C707.782 151.185 709.076 151.34 710.385 151.45C711.046 151.516 711.671 151.56 712.311 151.612C711.23 151.685 709.524 151.825 709.37 151.854C706.753 152.369 702.011 154.905 701.666 157.868C701.416 160 703.187 161.676 705.246 161.713C705.511 161.75 705.768 161.728 706.025 161.684Z" fill="#345EA2"/>
</g>
<defs>
<clipPath id="clip0_196_24">
<rect width="58.7374" height="138.125" fill="white" transform="matrix(0.748804 0.662791 -0.542441 0.840094 729.952 24.2236)"/>
</clipPath>
<clipPath id="clip1_196_24">
<rect width="94.1372" height="34.5672" fill="white" transform="translate(631.502 127.183)"/>
</clipPath>
</defs>
</svg>
