<svg width="702" height="358" viewBox="0 0 702 358" fill="none" xmlns="http://www.w3.org/2000/svg">
<path d="M0.502075 350.822H700.772" stroke="#263238" stroke-miterlimit="10" stroke-linecap="round" stroke-linejoin="round"/>
<path d="M119.343 240.908C122.285 242.193 129.474 242.033 129.484 242.033C129.555 242.033 127.938 237.325 127.797 237.043C126.221 233.741 121.23 228.3 117.174 228.842C114.252 229.233 112.625 232.165 113.277 234.915C113.95 237.726 116.842 239.814 119.343 240.908Z" fill="#FFC876"/>
<path d="M121.823 261.729C124.875 262.17 131.292 260.313 131.804 260.163C132.818 263.756 134.144 267.36 135.7 270.934C136.584 272.982 137.538 275.01 138.512 277.027C137.929 276.174 137.397 275.411 137.307 275.311C134.917 272.54 128.661 268.605 124.885 270.211C122.164 271.366 121.371 274.618 122.737 277.098C124.132 279.628 127.466 280.882 130.167 281.274C132.908 281.675 138.411 280.2 139.867 279.788C140.249 280.561 140.63 281.334 141.012 282.107C142.87 285.811 144.737 289.486 146.464 293.16C147.077 294.455 147.619 295.75 148.182 297.045C147.659 296.282 147.218 295.649 147.137 295.559C144.747 292.798 138.492 288.853 134.716 290.459C131.995 291.614 131.201 294.866 132.567 297.346C133.963 299.876 137.297 301.13 139.998 301.522C142.619 301.903 147.71 300.588 149.437 300.106C149.969 301.452 150.501 302.797 150.953 304.122C151.244 305.035 151.586 305.889 151.827 306.822C152.088 307.736 152.339 308.649 152.59 309.553C153.011 311.3 153.453 313.107 153.825 314.823C154.086 316.018 154.317 317.162 154.558 318.307C153.965 317.012 152.76 314.502 152.63 314.301C150.682 311.209 145.099 306.371 141.132 307.374C138.271 308.107 136.995 311.199 137.969 313.859C138.963 316.57 142.066 318.317 144.677 319.12C147.559 320.003 153.925 319.2 154.718 319.09C155.1 320.997 155.452 322.844 155.763 324.601C156.446 328.476 156.958 331.949 157.349 334.88H160.03C159.558 331.839 158.946 328.215 158.143 324.149C157.761 322.212 157.319 320.154 156.837 318.046C157.319 317.855 160.03 316.761 162.44 315.415C164.539 317.684 169.911 320.344 170.604 320.676C169.871 322.473 169.148 324.219 168.435 325.846C166.949 329.269 165.533 332.3 164.288 334.87H167.19C168.264 332.491 169.439 329.781 170.664 326.789C171.417 324.962 172.181 323.005 172.944 320.987C173.717 321.148 180.023 322.432 182.955 321.77C185.616 321.168 188.849 319.662 190.044 317.022C191.209 314.442 190.165 311.259 187.363 310.326C183.477 309.021 177.553 313.428 175.384 316.379C175.253 316.55 174.078 318.588 173.355 319.893C173.667 319.07 173.978 318.266 174.279 317.403C174.902 315.717 175.464 314.01 176.087 312.183C176.358 311.29 176.629 310.386 176.9 309.473C177.191 308.569 177.382 307.585 177.633 306.632C178.165 304.413 178.587 302.144 178.969 299.845C180.445 300.388 185.736 302.225 188.478 302.034C191.199 301.843 194.623 300.839 196.2 298.42C197.746 296.051 197.194 292.748 194.573 291.393C190.928 289.516 184.401 292.979 181.81 295.559C181.65 295.72 179.993 297.777 179.109 298.932C179.33 297.547 179.551 296.171 179.722 294.766C180.224 290.7 180.605 286.574 181.007 282.468C181.127 281.204 181.268 279.949 181.399 278.694C181.921 278.895 188.156 281.214 191.229 280.993C193.95 280.802 197.375 279.798 198.951 277.379C200.497 275.01 199.945 271.707 197.324 270.352C193.679 268.475 187.152 271.938 184.562 274.518C184.371 274.709 181.991 277.68 181.429 278.463C181.72 275.692 182.041 272.942 182.463 270.241C183.045 266.517 183.819 262.883 184.823 259.43C185.064 259.52 191.561 261.969 194.703 261.749C197.425 261.558 200.849 260.554 202.425 258.135C203.972 255.766 203.419 252.463 200.799 251.108C197.154 249.23 190.627 252.694 188.036 255.274C187.835 255.474 185.285 258.667 184.863 259.279C184.923 259.078 184.963 258.857 185.024 258.647C186.148 254.962 187.705 251.549 189.311 248.407C190.245 246.58 191.239 244.894 192.233 243.267C193.398 243.85 198.74 246.44 201.592 246.56C204.323 246.671 207.828 246.048 209.665 243.809C211.463 241.621 211.282 238.278 208.822 236.642C205.408 234.373 198.539 237.104 195.678 239.382C195.527 239.503 194.081 240.938 193.047 242.003C193.509 241.28 193.97 240.517 194.432 239.834C196.149 237.254 197.877 234.996 199.423 233.008C200.317 231.884 201.14 230.89 201.923 229.966C203.359 229.946 209.163 229.765 211.694 228.571C214.164 227.406 216.995 225.248 217.598 222.417C218.18 219.646 216.473 216.765 213.541 216.454C209.464 216.012 204.624 221.594 203.138 224.937C203.008 225.228 201.522 229.976 201.592 229.976C201.592 229.976 201.662 229.976 201.682 229.976C200.909 230.85 200.096 231.803 199.222 232.847C197.626 234.805 195.848 237.033 194.071 239.583C192.284 242.133 190.426 244.944 188.729 248.096C187.022 251.248 185.395 254.641 184.17 258.366C184.16 258.406 184.15 258.456 184.13 258.496C184.15 257.291 184.1 253.939 184.06 253.688C183.588 250.064 180.545 243.328 176.518 242.585C173.616 242.053 171.156 244.321 170.925 247.142C170.694 250.023 172.783 252.905 174.821 254.732C177.121 256.779 183.497 258.767 184.009 258.928C182.875 262.481 181.991 266.226 181.318 270.051C180.927 272.239 180.605 274.458 180.304 276.686C180.284 275.652 180.264 274.719 180.254 274.588C179.782 270.964 176.739 264.228 172.713 263.485C169.811 262.953 167.351 265.222 167.12 268.043C166.879 270.924 168.977 273.805 171.016 275.632C173.084 277.479 178.487 279.286 179.922 279.738C179.812 280.591 179.702 281.445 179.601 282.308C179.109 286.414 178.637 290.519 178.055 294.535C177.854 295.95 177.593 297.336 177.342 298.721C177.332 297.798 177.312 297.025 177.292 296.904C176.82 293.28 173.777 286.544 169.751 285.801C166.849 285.269 164.388 287.538 164.157 290.359C163.916 293.24 166.015 296.121 168.054 297.948C170.022 299.715 175.002 301.422 176.709 301.974C176.408 303.389 176.117 304.805 175.755 306.16C175.494 307.083 175.303 307.987 174.992 308.89C174.701 309.794 174.41 310.697 174.119 311.581C173.506 313.267 172.873 315.024 172.241 316.66C171.799 317.805 171.367 318.879 170.925 319.963C171.146 318.558 171.528 315.797 171.528 315.566C171.588 313.137 170.725 309.191 169.007 306.411C169.017 306.049 168.997 305.698 168.937 305.337C168.485 302.546 165.864 300.468 163.013 301.221C159.056 302.275 156.546 309.222 156.355 312.876C156.345 313.086 156.486 315.446 156.596 316.921C156.395 316.058 156.215 315.225 155.994 314.341C155.582 312.595 155.11 310.858 154.618 308.991C154.347 308.097 154.076 307.194 153.795 306.28C153.544 305.367 153.152 304.443 152.841 303.51C152.058 301.371 151.164 299.233 150.21 297.115C151.746 296.743 157.169 295.368 159.348 293.692C161.517 292.025 163.816 289.305 163.796 286.414C163.776 283.583 161.496 281.133 158.564 281.455C154.488 281.896 150.953 288.381 150.22 291.965C150.17 292.186 149.929 294.816 149.828 296.262C149.246 294.987 148.674 293.712 148.041 292.447C146.223 288.783 144.265 285.129 142.327 281.475C141.735 280.36 141.153 279.236 140.57 278.112C141.112 277.991 147.599 276.485 150.039 274.608C152.208 272.942 154.508 270.221 154.488 267.33C154.467 264.499 152.188 262.05 149.256 262.371C145.179 262.813 141.645 269.298 140.912 272.882C140.851 273.153 140.51 276.937 140.47 277.901C139.184 275.431 137.929 272.962 136.795 270.472C135.218 267.039 133.862 263.586 132.798 260.152C133.049 260.092 139.827 258.556 142.327 256.639C144.496 254.973 146.796 252.252 146.776 249.361C146.756 246.53 144.476 244.081 141.544 244.402C137.467 244.843 133.933 251.328 133.2 254.912C133.139 255.193 132.778 259.269 132.758 260.012C132.698 259.811 132.607 259.6 132.547 259.4C131.452 255.705 130.86 252.001 130.478 248.498C130.248 246.46 130.147 244.502 130.087 242.605C131.382 242.444 137.266 241.661 139.707 240.186C142.046 238.77 144.627 236.321 144.928 233.44C145.219 230.619 143.221 227.938 140.269 227.928C136.172 227.918 131.945 233.982 130.82 237.455C130.76 237.646 130.348 239.633 130.067 241.089C130.057 240.226 130.027 239.342 130.027 238.519C130.037 235.417 130.227 232.586 130.418 230.077C130.539 228.651 130.679 227.366 130.82 226.161C132.005 225.348 136.744 222.005 138.2 219.616C139.626 217.287 140.781 213.914 139.727 211.224C138.682 208.594 135.67 207.128 133.049 208.483C129.414 210.361 128.45 217.689 129.053 221.293C129.103 221.604 130.478 226.382 130.539 226.342C130.539 226.342 130.599 226.302 130.609 226.292C130.448 227.446 130.288 228.691 130.147 230.046C129.896 232.556 129.635 235.397 129.565 238.509C129.484 241.611 129.484 244.994 129.806 248.548C130.127 252.111 130.639 255.846 131.663 259.63C131.673 259.671 131.693 259.721 131.704 259.761C131.061 258.747 129.163 255.976 128.992 255.786C126.602 253.015 120.347 249.08 116.581 250.686C113.86 251.84 113.067 255.093 114.432 257.573C115.788 260.082 119.122 261.337 121.823 261.729Z" fill="#FFC876"/>
<path d="M192.083 242.495C192.143 242.535 193.388 237.716 193.438 237.405C193.94 233.781 192.786 226.483 189.1 224.706C186.439 223.421 183.467 224.967 182.503 227.627C181.509 230.348 182.764 233.681 184.25 235.969C185.988 238.66 192.083 242.485 192.083 242.495Z" fill="#FFC876"/>
<path d="M636.376 294.224C638.133 294.987 642.431 294.896 642.441 294.896C642.481 294.896 641.517 292.086 641.437 291.915C640.493 289.937 637.511 286.685 635.081 287.006C633.334 287.247 632.359 288.994 632.751 290.64C633.153 292.327 634.87 293.571 636.376 294.224Z" fill="white"/>
<path d="M637.852 306.682C639.68 306.943 643.516 305.839 643.817 305.748C644.419 307.897 645.223 310.055 646.146 312.193C646.679 313.418 647.241 314.633 647.833 315.837C647.482 315.325 647.171 314.874 647.12 314.813C645.684 313.157 641.949 310.808 639.69 311.762C638.063 312.454 637.591 314.392 638.404 315.877C639.238 317.393 641.236 318.146 642.853 318.377C644.49 318.618 647.783 317.735 648.657 317.484C648.888 317.945 649.109 318.407 649.34 318.869C650.454 321.077 651.569 323.286 652.603 325.474C652.964 326.247 653.296 327.02 653.627 327.793C653.316 327.342 653.045 326.96 653.005 326.9C651.569 325.244 647.833 322.894 645.574 323.848C643.947 324.541 643.475 326.478 644.289 327.964C645.122 329.48 647.12 330.233 648.737 330.464C650.304 330.695 653.346 329.901 654.38 329.62C654.702 330.423 655.013 331.227 655.284 332.02C655.455 332.562 655.666 333.074 655.806 333.636C655.957 334.188 656.107 334.73 656.258 335.262C656.509 336.306 656.77 337.39 656.991 338.414C657.152 339.127 657.282 339.81 657.423 340.502C657.071 339.729 656.348 338.224 656.268 338.113C655.103 336.266 651.77 333.365 649.39 333.967C647.683 334.399 646.91 336.256 647.492 337.842C648.084 339.468 649.942 340.512 651.509 340.984C653.226 341.506 657.041 341.034 657.513 340.964C657.744 342.098 657.955 343.213 658.136 344.257C658.548 346.576 658.849 348.654 659.09 350.41H660.696C660.415 348.593 660.054 346.425 659.562 343.996C659.331 342.841 659.07 341.607 658.789 340.342C659.08 340.231 660.696 339.569 662.142 338.766C663.398 340.121 666.611 341.717 667.023 341.918C666.581 342.992 666.149 344.036 665.727 345.01C664.844 347.058 663.99 348.865 663.247 350.41H664.984C665.627 348.985 666.33 347.369 667.063 345.572C667.515 344.478 667.966 343.303 668.428 342.098C668.89 342.199 672.656 342.962 674.423 342.56C676.02 342.199 677.948 341.295 678.661 339.719C679.363 338.173 678.731 336.276 677.064 335.714C674.744 334.931 671.2 337.571 669.894 339.328C669.814 339.428 669.111 340.653 668.679 341.426C668.86 340.934 669.051 340.452 669.232 339.94C669.603 338.926 669.945 337.912 670.316 336.818C670.477 336.286 670.637 335.744 670.798 335.192C670.969 334.65 671.089 334.068 671.23 333.495C671.541 332.17 671.802 330.815 672.033 329.44C672.917 329.761 676.08 330.865 677.717 330.745C679.343 330.634 681.392 330.032 682.336 328.586C683.26 327.171 682.928 325.193 681.362 324.38C679.183 323.256 675.277 325.324 673.73 326.87C673.63 326.97 672.646 328.195 672.114 328.888C672.244 328.064 672.375 327.231 672.485 326.398C672.786 323.969 673.017 321.499 673.258 319.04C673.329 318.287 673.409 317.534 673.489 316.781C673.801 316.901 677.536 318.287 679.363 318.156C680.99 318.046 683.039 317.443 683.982 315.998C684.906 314.582 684.575 312.605 683.008 311.792C680.83 310.667 676.923 312.735 675.377 314.281C675.257 314.402 673.841 316.169 673.499 316.64C673.67 314.984 673.861 313.338 674.122 311.721C674.463 309.493 674.935 307.324 675.538 305.256C675.688 305.317 679.574 306.782 681.452 306.642C683.079 306.531 685.127 305.929 686.071 304.484C686.995 303.068 686.664 301.09 685.097 300.277C682.918 299.153 679.012 301.221 677.466 302.767C677.345 302.887 675.819 304.795 675.568 305.166C675.608 305.046 675.628 304.915 675.668 304.785C676.341 302.586 677.265 300.538 678.229 298.661C678.781 297.567 679.384 296.563 679.976 295.589C680.669 295.941 683.872 297.487 685.569 297.557C687.206 297.617 689.304 297.256 690.399 295.91C691.473 294.605 691.363 292.598 689.897 291.624C687.859 290.269 683.752 291.895 682.034 293.26C681.944 293.331 681.081 294.194 680.458 294.826C680.739 294.395 681.01 293.943 681.291 293.531C682.316 291.985 683.35 290.64 684.274 289.446C684.806 288.773 685.298 288.181 685.77 287.629C686.633 287.619 690.098 287.508 691.614 286.795C693.09 286.103 694.787 284.808 695.139 283.111C695.49 281.455 694.466 279.728 692.719 279.537C690.278 279.276 687.387 282.609 686.493 284.607C686.413 284.778 685.519 287.619 685.569 287.619C685.569 287.619 685.609 287.619 685.619 287.619C685.157 288.141 684.665 288.713 684.153 289.335C683.199 290.51 682.135 291.835 681.071 293.361C680.006 294.887 678.892 296.573 677.877 298.45C676.853 300.338 675.879 302.365 675.146 304.594C675.136 304.614 675.136 304.644 675.126 304.674C675.136 303.961 675.106 301.954 675.086 301.793C674.805 299.625 672.987 295.599 670.577 295.148C668.84 294.826 667.374 296.192 667.233 297.878C667.093 299.605 668.338 301.331 669.563 302.416C670.939 303.64 674.754 304.835 675.056 304.925C674.373 307.053 673.851 309.292 673.439 311.581C673.208 312.896 673.007 314.221 672.837 315.556C672.826 314.934 672.816 314.382 672.806 314.301C672.525 312.133 670.708 308.107 668.298 307.656C666.561 307.334 665.095 308.7 664.954 310.386C664.813 312.113 666.059 313.83 667.284 314.924C668.519 316.028 671.752 317.112 672.616 317.383C672.555 317.895 672.485 318.407 672.425 318.919C672.134 321.379 671.852 323.828 671.501 326.227C671.38 327.071 671.23 327.904 671.079 328.727C671.069 328.175 671.059 327.713 671.049 327.643C670.768 325.474 668.95 321.449 666.541 320.997C664.803 320.676 663.337 322.031 663.197 323.728C663.056 325.454 664.301 327.181 665.526 328.265C666.701 329.319 669.684 330.343 670.698 330.674C670.517 331.518 670.346 332.361 670.125 333.174C669.965 333.726 669.854 334.268 669.663 334.81C669.493 335.352 669.312 335.885 669.141 336.417C668.77 337.43 668.398 338.475 668.017 339.448C667.756 340.131 667.494 340.773 667.233 341.426C667.364 340.583 667.595 338.936 667.595 338.796C667.625 337.34 667.113 334.981 666.089 333.325C666.099 333.114 666.079 332.893 666.049 332.682C665.777 331.006 664.211 329.771 662.504 330.223C660.134 330.855 658.638 335.011 658.527 337.19C658.517 337.32 658.608 338.725 658.668 339.609C658.548 339.097 658.437 338.595 658.307 338.063C658.056 337.019 657.774 335.975 657.483 334.861C657.323 334.329 657.162 333.786 656.991 333.244C656.841 332.702 656.61 332.14 656.419 331.588C655.947 330.313 655.415 329.038 654.842 327.763C655.756 327.542 658.999 326.719 660.305 325.715C661.6 324.721 662.976 323.095 662.966 321.369C662.956 319.672 661.59 318.206 659.833 318.397C657.393 318.658 655.284 322.543 654.842 324.681C654.812 324.812 654.672 326.388 654.611 327.251C654.26 326.488 653.918 325.725 653.547 324.972C652.462 322.784 651.288 320.596 650.133 318.407C649.781 317.735 649.43 317.072 649.079 316.399C649.41 316.329 653.286 315.426 654.742 314.311C656.037 313.318 657.413 311.691 657.403 309.965C657.393 308.268 656.027 306.802 654.27 306.993C651.83 307.254 649.721 311.139 649.279 313.277C649.249 313.438 649.038 315.707 649.018 316.279C648.255 314.803 647.502 313.328 646.819 311.832C645.875 309.784 645.062 307.716 644.429 305.658C644.58 305.628 648.627 304.704 650.123 303.56C651.418 302.566 652.794 300.94 652.784 299.213C652.774 297.517 651.408 296.051 649.651 296.242C647.211 296.503 645.102 300.388 644.66 302.526C644.63 302.697 644.409 305.126 644.399 305.578C644.359 305.457 644.309 305.337 644.269 305.206C643.616 302.998 643.264 300.779 643.034 298.681C642.893 297.466 642.833 296.292 642.803 295.158C643.576 295.067 647.1 294.595 648.556 293.712C649.952 292.869 651.498 291.403 651.679 289.676C651.85 287.99 650.655 286.384 648.888 286.384C646.438 286.384 643.907 290.008 643.234 292.086C643.194 292.196 642.953 293.391 642.783 294.264C642.772 293.752 642.752 293.22 642.762 292.728C642.762 290.871 642.883 289.175 643.003 287.679C643.074 286.825 643.164 286.052 643.244 285.34C643.957 284.848 646.789 282.85 647.663 281.425C648.516 280.029 649.209 278.011 648.576 276.405C647.954 274.829 646.156 273.956 644.59 274.769C642.411 275.893 641.839 280.27 642.2 282.429C642.23 282.619 643.054 285.47 643.094 285.45C643.094 285.45 643.124 285.43 643.134 285.42C643.034 286.113 642.943 286.856 642.853 287.669C642.702 289.175 642.552 290.871 642.501 292.728C642.451 294.585 642.451 296.603 642.642 298.731C642.833 300.86 643.144 303.098 643.756 305.357C643.767 305.387 643.777 305.407 643.777 305.437C643.395 304.835 642.26 303.178 642.15 303.058C640.714 301.402 636.979 299.053 634.729 300.006C633.103 300.699 632.631 302.636 633.444 304.122C634.247 305.698 636.235 306.451 637.852 306.682Z" fill="white"/>
<path d="M679.876 295.178C679.916 295.198 680.659 292.317 680.689 292.136C680.99 289.968 680.297 285.611 678.088 284.537C676.502 283.774 674.724 284.697 674.142 286.283C673.549 287.91 674.303 289.897 675.186 291.273C676.231 292.879 679.876 295.168 679.876 295.178Z" fill="white"/>
<path d="M429.964 298.812C429.964 298.812 446.784 296.262 464.808 295.961C482.822 295.669 488.737 296.844 493.165 298.32C497.593 299.795 501.56 312.223 495.736 324.019C489.912 335.824 469.538 345.562 441.773 343.203C414.008 340.844 394.217 335.232 383.583 327.261C372.949 319.29 382.398 314.863 394.217 308.358C406.026 301.863 422.001 298.41 429.964 298.812Z" fill="#263238" stroke="#263238" stroke-miterlimit="10" stroke-linecap="round" stroke-linejoin="round"/>
<path d="M406.919 326.087C406.919 326.087 448.27 303.349 462.75 299.213C477.219 295.077 493.768 294.194 501.439 299.213C509.121 304.233 507.344 320.475 503.799 326.679C500.254 332.883 471.606 345.873 455.65 350.601C439.704 355.329 377.377 355.028 360.247 356.504C343.116 357.98 301.765 357.096 295.851 353.844C289.946 350.591 293.491 347.047 302.056 344.99C310.622 342.922 338.979 342.922 352.274 339.087C365.558 335.232 397.169 331.106 406.919 326.087Z" fill="white" stroke="#263238" stroke-miterlimit="10" stroke-linecap="round" stroke-linejoin="round"/>
<path d="M503.799 326.669C505.526 323.647 506.832 318.236 506.821 312.906C496.117 321.388 479.438 331.427 456.383 339.659C434.523 347.469 372.618 354.456 347.012 357.096C352.103 356.996 356.692 356.795 360.237 356.484C377.367 355.008 439.694 355.299 455.64 350.581C471.606 345.863 500.254 332.873 503.799 326.669Z" fill="#263238" stroke="#263238" stroke-miterlimit="10" stroke-linecap="round" stroke-linejoin="round"/>
<path d="M474.568 343.614C478.956 341.757 483.335 339.739 487.341 337.731C488.225 333.385 489.269 320.626 479.92 296.031C474.307 296.503 468.373 297.607 462.75 299.213C462.74 299.213 480.262 319.24 474.568 343.614Z" fill="#263238" stroke="#263238" stroke-miterlimit="10" stroke-linecap="round" stroke-linejoin="round"/>
<path d="M366.482 335.844C360.919 336.948 355.909 338.023 352.264 339.077C338.969 342.911 310.612 342.911 302.046 344.979C293.481 347.047 289.936 350.591 295.841 353.834C301.745 357.086 343.106 357.97 360.237 356.494C362.255 356.323 364.916 356.173 368.039 356.032C361.221 348.613 364.333 339.94 366.482 335.844Z" fill="white" stroke="#263238" stroke-miterlimit="10" stroke-linecap="round" stroke-linejoin="round"/>
<path d="M339.571 288.874C339.571 288.874 312.69 292.126 299.104 293.301C285.518 294.485 260.997 305.407 255.976 316.038C250.956 326.669 266.018 339.368 274.583 342.028C283.148 344.689 308.845 350.591 323.023 349.708C337.202 348.825 379.145 336.417 386.525 334.058C393.906 331.699 406.909 326.087 406.909 326.087C406.909 326.087 394.508 326.087 373.531 315.456C352.565 304.825 349.312 293.893 339.571 288.874Z" fill="white" stroke="#263238" stroke-miterlimit="10" stroke-linecap="round" stroke-linejoin="round"/>
<path d="M281.863 297.316C281.863 297.316 303.061 295.108 312.771 302.175C322.481 309.242 328.666 330.865 328.666 330.865L373.541 315.456C373.541 315.456 370.178 311.882 361.793 301.733C353.408 291.584 328.676 285.842 314.106 288.934C299.526 292.016 281.863 297.316 281.863 297.316Z" fill="#263238" stroke="#263238" stroke-miterlimit="10" stroke-linecap="round" stroke-linejoin="round"/>
<path d="M384.406 334.72C385.27 334.459 386.003 334.228 386.535 334.057C393.916 331.698 406.919 326.087 406.919 326.087C406.919 326.087 397.39 326.087 380.922 318.929C383.272 322.884 385.601 328.637 384.406 334.72Z" fill="white" stroke="#263238" stroke-miterlimit="10" stroke-linecap="round" stroke-linejoin="round"/>
<path d="M400.392 328.817C389.045 330.243 369.364 333.345 346.982 339.679C321.446 346.907 290.659 344.327 275.738 342.38C285.257 345.17 309.437 350.561 323.033 349.708C337.212 348.824 379.155 336.417 386.535 334.058C390.501 332.783 396.074 330.584 400.392 328.817Z" fill="#263238" stroke="#263238" stroke-miterlimit="10" stroke-linecap="round" stroke-linejoin="round"/>
<path d="M428.368 203.053L422.303 262.743C422.303 262.743 425.175 277.108 427.092 282.85C429.01 288.592 430.928 297.848 429.964 298.812C429.01 299.765 428.368 299.133 421.66 301.05C414.952 302.968 406.969 314.452 396.757 318.929C386.545 323.396 378.241 321.168 368.661 317.333C359.082 313.498 341.208 290.198 337.372 289.566C333.536 288.924 322.049 287.016 317.259 285.42C312.469 283.824 306.726 277.118 306.726 277.118C306.726 277.118 305.772 277.118 305.772 273.604C305.772 270.091 306.093 269.77 306.093 269.77C306.093 269.77 303.543 267.531 302.9 264.66C302.257 261.789 308.965 246.47 308.965 236.893C308.965 227.316 313.755 191.247 313.755 186.78C313.755 182.313 320.462 181.349 327.481 178.478C334.5 175.607 371.543 161.884 372.176 158.049C372.819 154.214 375.369 127.411 375.369 127.411C375.369 127.411 395.241 148.653 397.721 150.39C400.914 152.628 402.511 154.857 402.511 154.857L400.272 165.387C400.272 165.387 409.851 172.405 416.238 176.239C422.624 180.074 431.24 183.578 431.561 186.137" fill="white"/>
<path d="M428.368 203.053L422.303 262.743C422.303 262.743 425.175 277.108 427.092 282.85C429.01 288.592 430.928 297.848 429.964 298.812C429.01 299.765 428.368 299.133 421.66 301.05C414.952 302.968 406.969 314.452 396.757 318.929C386.545 323.396 378.241 321.168 368.661 317.333C359.082 313.498 341.208 290.198 337.372 289.566C333.536 288.924 322.049 287.016 317.259 285.42C312.469 283.824 306.726 277.118 306.726 277.118C306.726 277.118 305.772 277.118 305.772 273.604C305.772 270.091 306.093 269.77 306.093 269.77C306.093 269.77 303.543 267.531 302.9 264.66C302.257 261.789 308.965 246.47 308.965 236.893C308.965 227.316 313.755 191.247 313.755 186.78C313.755 182.313 320.462 181.349 327.481 178.478C334.5 175.607 371.543 161.884 372.176 158.049C372.819 154.214 375.369 127.411 375.369 127.411C375.369 127.411 395.241 148.653 397.721 150.39C400.914 152.628 402.511 154.857 402.511 154.857L400.272 165.387C400.272 165.387 409.851 172.405 416.238 176.239C422.624 180.074 431.24 183.578 431.561 186.137" stroke="#263238" stroke-miterlimit="10" stroke-linecap="round" stroke-linejoin="round"/>
<path d="M328.014 273.263C329.48 274.398 330.916 275.873 332.271 277.75" stroke="#263238" stroke-miterlimit="10" stroke-linecap="round" stroke-linejoin="round"/>
<path d="M305.772 273.594C305.772 273.594 314.94 267.23 324.107 270.984" stroke="#263238" stroke-miterlimit="10" stroke-linecap="round" stroke-linejoin="round"/>
<path d="M406.026 169.493C402.752 167.204 400.282 165.387 400.282 165.387L402.521 154.857C402.521 154.857 400.924 152.618 397.731 150.39C395.251 148.653 375.379 127.411 375.379 127.411C375.379 127.411 372.829 154.224 372.186 158.049C371.975 159.294 367.928 161.573 362.335 164.193C363.309 170.347 366.814 180.626 379.215 184.541C391.596 188.456 401.176 177.123 406.026 169.493Z" fill="white" stroke="#263238" stroke-miterlimit="10" stroke-linecap="round" stroke-linejoin="round"/>
<path d="M400.372 165.458C400.312 165.418 400.282 165.388 400.282 165.388L402.521 154.857C402.521 154.857 400.924 152.618 397.731 150.39C396.325 149.406 389.307 142.128 383.513 136.024L382.037 143.011C382.026 143.011 382.047 163.089 400.372 165.458Z" fill="#263238"/>
<path d="M380.299 61.5573C380.299 61.5573 379.386 53.9379 373.29 52.4121C367.195 50.8862 353.167 51.7997 348.287 60.9449C343.407 70.0902 347.072 77.0972 348.9 78.3219C350.727 79.5466 352.254 80.1489 352.254 80.1489L353.78 72.5296C353.78 72.5296 354.392 79.2354 358.66 80.7613C362.928 82.2872 371.774 80.7613 371.774 80.7613C371.774 80.7613 379.386 75.2802 380.299 61.5573Z" fill="#263238" stroke="#263238" stroke-miterlimit="10" stroke-linecap="round" stroke-linejoin="round"/>
<path d="M436.672 88.7925C436.672 88.7925 447.527 95.8095 447.527 102.837C447.527 109.854 434.121 112.414 434.121 112.414L436.672 88.7925Z" fill="#263238" stroke="#263238" stroke-miterlimit="10" stroke-linecap="round" stroke-linejoin="round"/>
<path d="M439.142 90.2179C439.142 90.2179 437.927 104.844 436.702 113.076C435.487 121.308 430.296 128.014 429.994 133.495C429.693 138.986 417.493 152.397 411.398 156.965C405.303 161.533 396.155 160.017 391.576 156.353C387.007 152.699 379.376 143.855 375.72 134.408C372.065 124.962 374.807 111.239 375.72 106.972C376.634 102.706 399.499 85.9414 416.88 85.9414C434.262 85.9414 439.142 90.2179 439.142 90.2179Z" fill="white" stroke="#263238" stroke-miterlimit="10" stroke-linecap="round" stroke-linejoin="round"/>
<path d="M419.933 124.35C419.933 124.35 421.148 135.322 421.148 136.235C421.148 137.149 418.407 139.889 413.828 137.149" stroke="#263238" stroke-miterlimit="10" stroke-linecap="round" stroke-linejoin="round"/>
<path d="M401.647 137.159C401.647 137.159 406.528 143.252 414.45 142.951" stroke="#263238" stroke-miterlimit="10" stroke-linecap="round" stroke-linejoin="round"/>
<path d="M418.105 114.602C418.105 114.602 408.044 108.508 395.241 110.335C395.241 110.335 391.586 110.335 393.715 113.076C393.715 113.076 392.801 122.221 394.93 124.962C397.069 127.702 401.939 129.841 406.819 129.841C411.709 129.841 416.579 124.048 418.105 114.602Z" stroke="#263238" stroke-width="2" stroke-miterlimit="10" stroke-linecap="round" stroke-linejoin="round"/>
<path d="M393.413 110.637L373.592 109.422" stroke="#263238" stroke-width="2" stroke-miterlimit="10" stroke-linecap="round" stroke-linejoin="round"/>
<path d="M418.105 114.602L423.287 116.128C423.287 116.128 421.148 127.401 422.373 130.453C423.166 132.441 424.863 133.916 426.932 134.449C428.659 134.89 430.637 135.332 431.832 135.332C434.272 135.332 439.453 130.453 440.679 121.92C440.679 121.92 442.205 121.308 441.592 120.394C440.98 119.481 433.609 115.214 423.548 116.128" stroke="#263238" stroke-width="2" stroke-miterlimit="10" stroke-linecap="round" stroke-linejoin="round"/>
<path d="M417.804 117.342C417.804 117.342 421.69 117.593 422.845 119.059" stroke="#263238" stroke-width="2" stroke-miterlimit="10" stroke-linecap="round" stroke-linejoin="round"/>
<path d="M407.271 120.826C406.919 122.824 405.925 124.319 405.062 124.169C404.198 124.018 403.776 122.271 404.128 120.274C404.479 118.276 405.473 116.78 406.337 116.931C407.21 117.091 407.622 118.828 407.271 120.826Z" fill="#263238"/>
<path d="M429.507 126.201C429.994 124.449 429.769 122.857 429.005 122.645C428.241 122.432 427.227 123.681 426.74 125.433C426.253 127.185 426.478 128.777 427.242 128.99C428.006 129.202 429.02 127.953 429.507 126.201Z" fill="#263238"/>
<path d="M400.914 113.688C400.914 113.688 408.576 111.139 412.091 115.284" stroke="#263238" stroke-width="2" stroke-miterlimit="10" stroke-linecap="round" stroke-linejoin="round"/>
<path d="M426.139 119.431C426.139 119.431 429.653 116.238 432.525 120.706" stroke="#263238" stroke-width="2" stroke-miterlimit="10" stroke-linecap="round" stroke-linejoin="round"/>
<path d="M386.394 107.584C386.394 107.584 402.862 98.7404 416.88 95.9998C430.908 93.2593 441.582 94.474 444.012 86.2423C446.452 78.0105 429.984 64.2977 412.914 59.4189C395.843 54.5401 375.409 59.72 367.175 71.917C358.941 84.114 361.683 98.7404 364.123 104.232C366.563 109.723 368.39 113.989 372.969 114.591C377.558 115.214 386.394 107.584 386.394 107.584Z" fill="#263238" stroke="#263238" stroke-miterlimit="10" stroke-linecap="round" stroke-linejoin="round"/>
<path d="M374.475 97.9175C372.708 98.9916 371.202 100.206 370.027 101.592" stroke="white" stroke-miterlimit="10" stroke-linecap="round" stroke-linejoin="round"/>
<path d="M431.832 77.1572C431.832 77.1572 436.28 79.8275 423.387 85.1581C414.029 89.033 395.06 90.087 381.796 94.6346" stroke="white" stroke-miterlimit="10" stroke-linecap="round" stroke-linejoin="round"/>
<path d="M414.711 74.0254C415.776 72.8609 416.609 71.5358 417.161 70.04" stroke="white" stroke-miterlimit="10" stroke-linecap="round" stroke-linejoin="round"/>
<path d="M366.924 96.261C366.924 96.261 362.928 90.4787 376.705 86.4833C386.646 83.6022 400.975 82.5582 409.861 77.7095" stroke="white" stroke-miterlimit="10" stroke-linecap="round" stroke-linejoin="round"/>
<path d="M377.859 119.169C377.859 119.169 375.439 107.284 370.248 107.284C365.056 107.284 364.374 112.775 366.442 119.481C368.521 126.187 371.975 128.325 375.088 126.187" fill="white"/>
<path d="M377.859 119.169C377.859 119.169 375.439 107.284 370.248 107.284C365.056 107.284 364.374 112.775 366.442 119.481C368.521 126.187 371.975 128.325 375.088 126.187" stroke="#263238" stroke-miterlimit="10" stroke-linecap="round" stroke-linejoin="round"/>
<path d="M337.382 289.556C337.382 289.556 338.658 287.96 338.658 282.85C338.658 277.74 335.143 260.825 333.546 249.019C331.95 237.214 330.353 214.547 330.353 204.97" stroke="#263238" stroke-miterlimit="10" stroke-linecap="round" stroke-linejoin="round"/>
<path d="M369.555 252.664C370.409 254.039 371.282 255.284 372.186 256.358" stroke="#263238" stroke-miterlimit="10" stroke-linecap="round" stroke-linejoin="round"/>
<path d="M351.752 193.797C351.752 193.797 357.475 229.083 367.276 248.548" stroke="#263238" stroke-miterlimit="10" stroke-linecap="round" stroke-linejoin="round"/>
<path d="M371.784 223.823C373.08 226.262 374.385 228.531 375.69 230.509" stroke="#263238" stroke-miterlimit="10" stroke-linecap="round" stroke-linejoin="round"/>
<path d="M355.577 183.909C355.577 183.909 361.984 203.725 369.565 219.416" stroke="#263238" stroke-miterlimit="10" stroke-linecap="round" stroke-linejoin="round"/>
<path d="M286.934 275.833C286.934 275.833 290.449 278.704 297.468 278.704C304.487 278.704 310.562 275.191 319.498 277.429C328.435 279.668 328.435 288.602 327.481 291.152C326.527 293.702 317.902 295.298 309.919 294.344C301.936 293.391 285.659 291.795 285.659 291.795C285.659 291.795 288.209 282.529 286.934 275.833Z" fill="white" stroke="#263238" stroke-miterlimit="10" stroke-linecap="round" stroke-linejoin="round"/>
<path d="M280.427 267.722C280.427 267.722 281.17 271.044 285.227 273.263C289.294 275.482 290.77 281.384 290.77 284.707C290.77 288.03 290.027 289.877 290.027 289.877C290.027 289.877 288.922 294.304 285.227 295.047C281.532 295.79 279.313 297.998 274.884 293.571C270.456 289.144 264.17 275.11 264.17 275.11L264.913 272.892C264.913 272.892 268.608 272.892 271.561 271.416C274.513 269.94 280.427 267.722 280.427 267.722Z" fill="white" stroke="#263238" stroke-miterlimit="10" stroke-linecap="round" stroke-linejoin="round"/>
<path d="M259.742 252.573L285.227 295.047" stroke="#263238" stroke-width="3" stroke-miterlimit="10" stroke-linecap="round" stroke-linejoin="round"/>
<path d="M267.494 294.675C267.494 294.675 270.446 297.627 275.617 297.627C280.789 297.627 285.96 294.304 283.379 293.2C280.789 292.095 278.951 290.981 277.103 291.724C275.256 292.457 267.494 294.675 267.494 294.675Z" fill="white" stroke="#263238" stroke-miterlimit="10" stroke-linecap="round" stroke-linejoin="round"/>
<path d="M263.799 289.134C263.799 289.134 266.018 295.408 267.865 296.151C269.713 296.894 277.465 295.047 279.684 293.571C281.903 292.096 278.208 289.506 274.884 289.506C271.561 289.506 263.799 289.134 263.799 289.134Z" fill="white" stroke="#263238" stroke-miterlimit="10" stroke-linecap="round" stroke-linejoin="round"/>
<path d="M262.323 279.537C262.323 279.537 260.846 287.297 263.799 289.134C266.751 290.981 278.208 291.724 279.313 289.506C280.417 287.287 276.36 286.183 272.294 284.336C268.237 282.488 262.323 279.537 262.323 279.537Z" fill="white" stroke="#263238" stroke-miterlimit="10" stroke-linecap="round" stroke-linejoin="round"/>
<path d="M273.78 268.826C273.78 268.826 274.151 283.231 275.627 284.707C277.103 286.182 280.427 286.554 281.17 285.45C281.913 284.345 282.646 271.787 280.427 267.721C278.208 263.656 273.78 268.826 273.78 268.826Z" fill="white" stroke="#263238" stroke-miterlimit="10" stroke-linecap="round" stroke-linejoin="round"/>
<path d="M264.913 272.891C264.913 272.891 260.113 271.787 260.113 276.586C260.113 281.384 266.761 284.346 269.713 284.707C272.665 285.078 275.989 283.964 273.408 281.756C270.818 279.537 267.122 274.739 264.913 272.891Z" fill="white" stroke="#263238" stroke-miterlimit="10" stroke-linecap="round" stroke-linejoin="round"/>
<path d="M301.173 296.262L321.848 293.31C321.848 293.31 319.187 289.476 312.399 289.476C305.601 289.476 301.474 292.728 300.58 293.903C299.697 295.077 301.173 296.262 301.173 296.262Z" fill="#263238" stroke="#263238" stroke-miterlimit="10" stroke-linecap="round" stroke-linejoin="round"/>
<path d="M342.815 320.766L375.901 309.252C375.901 309.252 367.928 292.417 352.866 286.514C337.804 280.612 315.452 282.127 306.003 285.671L309.447 289.466C309.447 289.466 316.245 289.757 323.626 298.32C331.006 306.883 338.396 320.465 338.396 320.465L342.815 320.766Z" fill="white" stroke="#263238" stroke-miterlimit="10" stroke-linecap="round" stroke-linejoin="round"/>
<path d="M322.18 287.267C322.18 287.267 335.314 285.39 349.081 314.783" stroke="#F0AE00" stroke-miterlimit="10" stroke-linecap="round" stroke-linejoin="round"/>
<path d="M328.656 285.972C328.656 285.972 341.79 284.095 355.557 313.488" stroke="#F0AE00" stroke-miterlimit="10" stroke-linecap="round" stroke-linejoin="round"/>
<path d="M334.089 284.938C334.089 284.938 347.223 283.061 360.99 312.454" stroke="#F0AE00" stroke-miterlimit="10" stroke-linecap="round" stroke-linejoin="round"/>
<path d="M254.791 316.931C254.791 316.931 269.562 295.077 297.026 296.854L301.163 296.262C301.163 296.262 303.824 290.058 311.505 291.534C319.187 293.009 338.979 323.426 338.979 323.426L342.815 320.766C342.815 320.766 332.362 303.068 324.389 293.029C316.416 282.991 305.993 283.332 302.649 287.016C300.6 289.265 297.809 294.354 297.809 294.354C297.809 294.354 294.746 289.717 285.659 291.795C274.493 294.354 268.337 299.314 265.164 302.747C260.545 307.736 251.237 314.512 252.13 313.99L254.791 316.931Z" fill="white" stroke="#263238" stroke-miterlimit="10" stroke-linecap="round" stroke-linejoin="round"/>
<path d="M338.979 323.427L374.124 311.32L375.901 309.252L342.815 320.766L338.979 323.427Z" fill="white" stroke="#263238" stroke-miterlimit="10" stroke-linecap="round" stroke-linejoin="round"/>
<path d="M425.667 181.509C425.667 181.509 438.349 185.886 440.267 192.592C442.185 199.298 451.674 235.929 454.234 241.36C456.785 246.791 462.539 249.973 462.539 254.129C462.539 258.275 462.86 261.467 462.86 261.467C462.86 261.467 469.568 261.789 470.2 267.21C470.843 272.64 472.118 279.657 472.118 279.657L497.664 319.17C497.664 319.17 512.907 320.394 516.411 320.073C519.926 319.752 530.359 320.425 534.174 322.432C535.65 323.205 538.593 325.745 540.902 333.866C542.047 337.902 544.587 345.722 542.991 345.401C541.394 345.08 539.436 340.643 538.793 339.679C538.151 338.725 536.283 333.264 536.283 333.264C536.283 333.264 537.558 342.52 537.88 344.437C538.201 346.355 537.237 348.272 537.237 348.272L537.096 348.322C535.53 348.955 533.793 349.065 532.156 348.623L530.841 348.272C529.616 348.934 528.17 349.085 526.834 348.694L525.408 348.272C525.408 348.272 523.34 341.717 521.422 339.167C519.504 336.617 513.489 333.846 513.489 333.846C513.489 333.846 519.986 341.255 519.665 346.043C519.534 347.981 519.986 349.557 518.389 348.593C516.793 347.639 514.875 342.851 511.37 341.255C507.856 339.659 499.562 337.42 496.368 335.513C493.175 333.595 488.064 326.578 488.064 326.578L446.242 288.913C446.242 288.913 442.094 284.767 441.452 282.529C440.809 280.29 440.809 280.29 440.809 280.29C440.809 280.29 435.065 276.776 433.469 274.859C431.872 272.942 431.23 268.796 431.23 268.796L422.614 258.897L428.358 204.317" fill="white"/>
<path d="M425.667 181.509C425.667 181.509 438.349 185.886 440.267 192.592C442.185 199.298 451.674 235.929 454.234 241.36C456.785 246.791 462.539 249.973 462.539 254.129C462.539 258.275 462.86 261.467 462.86 261.467C462.86 261.467 469.568 261.789 470.2 267.21C470.843 272.64 472.118 279.657 472.118 279.657L497.664 319.17C497.664 319.17 512.907 320.394 516.411 320.073C519.926 319.752 530.359 320.425 534.174 322.432C535.65 323.205 538.593 325.745 540.902 333.866C542.047 337.902 544.587 345.722 542.991 345.401C541.394 345.08 539.436 340.643 538.793 339.679C538.151 338.725 536.283 333.264 536.283 333.264C536.283 333.264 537.558 342.52 537.88 344.437C538.201 346.355 537.237 348.272 537.237 348.272L537.096 348.322C535.53 348.955 533.793 349.065 532.156 348.623L530.841 348.272C529.616 348.934 528.17 349.085 526.834 348.694L525.408 348.272C525.408 348.272 523.34 341.717 521.422 339.167C519.504 336.617 513.489 333.846 513.489 333.846C513.489 333.846 519.986 341.255 519.665 346.043C519.534 347.981 519.986 349.557 518.389 348.593C516.793 347.639 514.875 342.851 511.37 341.255C507.856 339.659 499.562 337.42 496.368 335.513C493.175 333.595 488.064 326.578 488.064 326.578L446.242 288.913C446.242 288.913 442.094 284.767 441.452 282.529C440.809 280.29 440.809 280.29 440.809 280.29C440.809 280.29 435.065 276.776 433.469 274.859C431.872 272.942 431.23 268.796 431.23 268.796L422.614 258.897L428.358 204.317" stroke="#263238" stroke-miterlimit="10" stroke-linecap="round" stroke-linejoin="round"/>
<path d="M425.114 216.976L422.624 258.908L431.24 268.806C431.24 268.806 431.882 272.952 433.479 274.869C435.075 276.786 440.819 280.3 440.819 280.3C440.819 280.3 440.819 280.3 441.462 282.539C442.104 284.777 446.252 288.923 446.252 288.923L452.507 294.555C455.048 289.596 461.093 280.651 472.028 279.216C471.747 277.61 470.733 271.837 470.19 267.21C469.548 261.779 462.85 261.467 462.85 261.467C462.85 261.467 462.529 258.275 462.529 254.129C462.529 249.983 456.785 246.791 454.224 241.36C451.674 235.929 442.175 199.298 440.257 192.592C438.339 185.886 425.657 181.509 425.657 181.509" fill="white"/>
<path d="M425.114 216.976L422.624 258.908L431.24 268.806C431.24 268.806 431.882 272.952 433.479 274.869C435.075 276.786 440.819 280.3 440.819 280.3C440.819 280.3 440.819 280.3 441.462 282.539C442.104 284.777 446.252 288.923 446.252 288.923L452.507 294.555C455.048 289.596 461.093 280.651 472.028 279.216C471.747 277.61 470.733 271.837 470.19 267.21C469.548 261.779 462.85 261.467 462.85 261.467C462.85 261.467 462.529 258.275 462.529 254.129C462.529 249.983 456.785 246.791 454.224 241.36C451.674 235.929 442.175 199.298 440.257 192.592C438.339 185.886 425.657 181.509 425.657 181.509" stroke="#263238" stroke-miterlimit="10" stroke-linecap="round" stroke-linejoin="round"/>
<path d="M424.612 229.655L428.82 265.533L422.624 258.908L424.612 229.655Z" fill="#263238"/>
<path d="M454.265 267.089C455.148 266.467 456.092 265.865 457.106 265.292" stroke="#263238" stroke-miterlimit="10" stroke-linecap="round" stroke-linejoin="round"/>
<path d="M444.012 278.704C444.012 278.704 446.001 274.177 451.081 269.619" stroke="#263238" stroke-miterlimit="10" stroke-linecap="round" stroke-linejoin="round"/>
<path d="M450.981 261.417C452.337 261.207 453.742 261.106 455.188 261.146" stroke="#263238" stroke-miterlimit="10" stroke-linecap="round" stroke-linejoin="round"/>
<path d="M435.397 269.127C435.397 269.127 439.624 265.062 446.001 262.723" stroke="#263238" stroke-miterlimit="10" stroke-linecap="round" stroke-linejoin="round"/>
<path d="M515.206 336.155C515.206 336.155 511.692 331.367 506.902 331.045" stroke="#263238" stroke-miterlimit="10" stroke-linecap="round" stroke-linejoin="round"/>
<path d="M516.803 325.625C516.803 325.625 520.639 326.578 525.418 332.642C530.208 338.705 531.483 347.639 531.483 347.639" stroke="#263238" stroke-miterlimit="10" stroke-linecap="round" stroke-linejoin="round"/>
<path d="M525.95 324.34C525.95 324.34 533.09 330.082 534.365 335.513C535.64 340.944 537.237 348.282 537.237 348.282" stroke="#263238" stroke-miterlimit="10" stroke-linecap="round" stroke-linejoin="round"/>
<path d="M536.283 333.284C536.283 333.284 535.008 327.542 531.815 323.075" stroke="#263238" stroke-miterlimit="10" stroke-linecap="round" stroke-linejoin="round"/>
<path d="M633.022 346.033H544.899L569.169 265.604H657.282L633.022 346.033Z" fill="white" stroke="#263238" stroke-miterlimit="10" stroke-linecap="round" stroke-linejoin="round"/>
<path d="M633.022 346.034L653.577 277.881C627.56 281.103 612.246 302.526 588.177 326.026C573.035 340.813 562.511 345.07 556.346 346.034H633.022Z" fill="#263238" stroke="#263238" stroke-miterlimit="10" stroke-linecap="round" stroke-linejoin="round"/>
<path d="M604.605 308.69C608.454 308.69 611.574 305.687 611.574 301.984C611.574 298.28 608.454 295.278 604.605 295.278C600.756 295.278 597.636 298.28 597.636 301.984C597.636 305.687 600.756 308.69 604.605 308.69Z" fill="white" stroke="#263238" stroke-miterlimit="10" stroke-linecap="round" stroke-linejoin="round"/>
<path d="M633.976 345.712H469.236V350.822H633.976V345.712Z" fill="white" stroke="#263238" stroke-miterlimit="10" stroke-linecap="round" stroke-linejoin="round"/>
<path d="M633.976 345.712H549.688V350.822H633.976V345.712Z" fill="#263238" stroke="#263238" stroke-miterlimit="10" stroke-linecap="round" stroke-linejoin="round"/>
<path d="M254.631 331.979H188.598C182.744 331.979 178.005 336.717 178.005 342.57V343.734C178.005 349.587 182.744 354.325 188.598 354.325H254.631C254.631 354.325 251.106 349.025 251.106 343.012C251.096 336.988 254.631 331.979 254.631 331.979Z" fill="white" stroke="#263238" stroke-miterlimit="10" stroke-linecap="round" stroke-linejoin="round"/>
<path d="M223.281 331.979H157.249C151.395 331.979 146.655 336.717 146.655 342.57V343.734C146.655 349.587 151.395 354.325 157.249 354.325H223.281C223.281 354.325 219.757 349.025 219.757 343.012C219.757 336.988 223.281 331.979 223.281 331.979Z" fill="white" stroke="#263238" stroke-miterlimit="10" stroke-linecap="round" stroke-linejoin="round"/>
<path d="M146.655 342.56V343.724C146.655 347.971 149.166 351.635 152.78 353.321L154.236 353.382V333.605L153.383 332.712C149.447 334.258 146.655 338.083 146.655 342.56Z" fill="white" stroke="#263238" stroke-miterlimit="10" stroke-linecap="round" stroke-linejoin="round"/>
<path d="M254.631 331.979H157.249C151.395 331.979 146.655 336.717 146.655 342.57V343.734C146.655 349.587 151.395 354.325 157.249 354.325H254.631" stroke="#263238" stroke-width="3" stroke-miterlimit="10" stroke-linecap="round" stroke-linejoin="round"/>
<path d="M154.568 336.898H186.871" stroke="#263238" stroke-miterlimit="10" stroke-linecap="round" stroke-linejoin="round"/>
<path d="M191.48 339.87H196.431" stroke="#263238" stroke-miterlimit="10" stroke-linecap="round" stroke-linejoin="round"/>
<path d="M160.824 339.87H187.202" stroke="#263238" stroke-miterlimit="10" stroke-linecap="round" stroke-linejoin="round"/>
<path d="M154.568 346.455H171.046" stroke="#263238" stroke-miterlimit="10" stroke-linecap="round" stroke-linejoin="round"/>
<path d="M204.012 350.079H207.637" stroke="#263238" stroke-miterlimit="10" stroke-linecap="round" stroke-linejoin="round"/>
<path d="M180.937 350.079H201.04" stroke="#263238" stroke-miterlimit="10" stroke-linecap="round" stroke-linejoin="round"/>
<path d="M160.824 350.079H175.002" stroke="#263238" stroke-miterlimit="10" stroke-linecap="round" stroke-linejoin="round"/>
<path d="M189.251 331.979H96.7492C90.8951 331.979 86.1555 336.718 86.1555 342.57V343.735C86.1555 349.587 90.8951 354.326 96.7492 354.326H189.251C189.251 354.326 185.726 349.025 185.726 343.012C185.726 336.989 189.251 331.979 189.251 331.979Z" fill="white" stroke="#263238" stroke-miterlimit="10" stroke-linecap="round" stroke-linejoin="round"/>
<path d="M132.999 335.493V351.474" stroke="#263238" stroke-miterlimit="10" stroke-linecap="round" stroke-linejoin="round"/>
<path d="M133.491 337.982H159.98" stroke="#263238" stroke-miterlimit="10" stroke-linecap="round" stroke-linejoin="round"/>
<path d="M133.491 341.988H169.981" stroke="#263238" stroke-miterlimit="10" stroke-linecap="round" stroke-linejoin="round"/>
<path d="M144.737 346.485H154.236" stroke="#263238" stroke-miterlimit="10" stroke-linecap="round" stroke-linejoin="round"/>
<path d="M166.226 349.477H137.748" stroke="#263238" stroke-miterlimit="10" stroke-linecap="round" stroke-linejoin="round"/>
<path d="M128.39 343.725V342.56C128.39 336.707 133.129 331.969 138.984 331.969H96.7492C90.8951 331.969 86.1555 336.707 86.1555 342.56V343.725C86.1555 349.577 90.8951 354.315 96.7492 354.315H138.984C133.129 354.315 128.39 349.577 128.39 343.725Z" fill="#263238" stroke="#263238" stroke-miterlimit="10" stroke-linecap="round" stroke-linejoin="round"/>
<path d="M184.381 331.979H96.7492C90.8951 331.979 86.1555 336.718 86.1555 342.57V343.735C86.1555 349.587 90.8951 354.326 96.7492 354.326H184.381" stroke="#263238" stroke-width="3" stroke-miterlimit="10" stroke-linecap="round" stroke-linejoin="round"/>
<path d="M191.219 331.979H139.235C133.38 331.979 128.641 336.718 128.641 342.57V343.735C128.641 349.587 133.38 354.326 139.235 354.326H191.219" stroke="#263238" stroke-width="3" stroke-miterlimit="10" stroke-linecap="round" stroke-linejoin="round"/>
<path d="M244.127 309.984H178.095C172.241 309.984 167.501 314.723 167.501 320.575V321.74C167.501 327.592 172.241 332.33 178.095 332.33H244.127C244.127 332.33 240.603 327.03 240.603 321.017C240.603 314.994 244.127 309.984 244.127 309.984Z" fill="white" stroke="#263238" stroke-miterlimit="10" stroke-linecap="round" stroke-linejoin="round"/>
<path d="M212.778 309.984H146.746C140.891 309.984 136.152 314.723 136.152 320.575V321.74C136.152 327.592 140.891 332.33 146.746 332.33H212.778C212.778 332.33 209.253 327.03 209.253 321.017C209.253 314.994 212.778 309.984 212.778 309.984Z" fill="white" stroke="#263238" stroke-miterlimit="10" stroke-linecap="round" stroke-linejoin="round"/>
<path d="M136.152 320.565V321.73C136.152 325.976 138.662 329.64 142.277 331.327L143.733 331.387V311.611L142.88 310.717C138.943 312.263 136.152 316.088 136.152 320.565Z" fill="white" stroke="#263238" stroke-miterlimit="10" stroke-linecap="round" stroke-linejoin="round"/>
<path d="M244.127 309.984H146.746C140.891 309.984 136.152 314.723 136.152 320.575V321.74C136.152 327.592 140.891 332.33 146.746 332.33H244.127" stroke="#263238" stroke-width="3" stroke-miterlimit="10" stroke-linecap="round" stroke-linejoin="round"/>
<path d="M144.064 314.903H176.368" stroke="#263238" stroke-miterlimit="10" stroke-linecap="round" stroke-linejoin="round"/>
<path d="M180.987 317.875H185.927" stroke="#263238" stroke-miterlimit="10" stroke-linecap="round" stroke-linejoin="round"/>
<path d="M150.33 317.875H176.699" stroke="#263238" stroke-miterlimit="10" stroke-linecap="round" stroke-linejoin="round"/>
<path d="M144.064 324.46H160.542" stroke="#263238" stroke-miterlimit="10" stroke-linecap="round" stroke-linejoin="round"/>
<path d="M193.509 328.084H197.133" stroke="#263238" stroke-miterlimit="10" stroke-linecap="round" stroke-linejoin="round"/>
<path d="M170.433 328.084H190.546" stroke="#263238" stroke-miterlimit="10" stroke-linecap="round" stroke-linejoin="round"/>
<path d="M150.33 328.084H164.499" stroke="#263238" stroke-miterlimit="10" stroke-linecap="round" stroke-linejoin="round"/>
<path d="M505.054 250.716H482.481C481.527 250.716 480.754 249.943 480.754 248.989V242.434C480.754 241.48 481.527 240.708 482.481 240.708H512.736C513.69 240.708 514.463 241.48 514.463 242.434V245.004" stroke="white" stroke-miterlimit="10"/>
<path d="M504.843 261.387V247.353C504.843 246.108 505.847 245.104 507.093 245.104H537.056C538.301 245.104 539.306 246.108 539.306 247.353V264.158" stroke="white" stroke-miterlimit="10"/>
<path d="M539.306 277.991V295.488C539.306 296.733 538.301 297.737 537.056 297.737H507.093C505.847 297.737 504.843 296.733 504.843 295.488V264.75" stroke="white" stroke-miterlimit="10"/>
<path d="M506.972 253.306H537.167" stroke="white" stroke-miterlimit="10"/>
<path d="M521.392 262.411H537.167" stroke="white" stroke-miterlimit="10"/>
<path d="M506.972 262.411H518.931" stroke="white" stroke-miterlimit="10"/>
<path d="M506.972 271.506H537.167" stroke="white" stroke-miterlimit="10"/>
<path d="M531.754 280.611H537.167" stroke="white" stroke-miterlimit="10"/>
<path d="M506.972 280.611H529.033" stroke="white" stroke-miterlimit="10"/>
<path d="M506.972 289.716H537.167" stroke="white" stroke-miterlimit="10"/>
<path d="M486.849 245.486H503.297" stroke="white" stroke-miterlimit="10"/>
<path d="M270.888 72.4597H243.013C241.838 72.4597 240.884 71.506 240.884 70.3315V62.2303C240.884 61.0557 241.838 60.1021 243.013 60.1021H280.357C281.532 60.1021 282.486 61.0557 282.486 62.2303V65.4125" stroke="white" stroke-miterlimit="10"/>
<path d="M270.627 85.6304V68.3136C270.627 66.7777 271.872 65.543 273.398 65.543H310.391C311.927 65.543 313.162 66.7878 313.162 68.3136V89.0536" stroke="white" stroke-miterlimit="10"/>
<path d="M313.172 106.13V127.733C313.172 129.269 311.927 130.504 310.401 130.504H273.408C271.872 130.504 270.637 129.259 270.637 127.733V89.7866" stroke="white" stroke-miterlimit="10"/>
<path d="M273.258 75.6621H310.521" stroke="white" stroke-miterlimit="10"/>
<path d="M291.061 86.8955H310.521" stroke="white" stroke-miterlimit="10"/>
<path d="M273.258 86.8955H288.019" stroke="white" stroke-miterlimit="10"/>
<path d="M273.258 98.1284H310.521" stroke="white" stroke-miterlimit="10"/>
<path d="M303.844 109.362H310.521" stroke="white" stroke-miterlimit="10"/>
<path d="M273.258 109.362H300.49" stroke="white" stroke-miterlimit="10"/>
<path d="M273.258 120.595H310.521" stroke="white" stroke-miterlimit="10"/>
<path d="M248.415 66.0049H268.719" stroke="white" stroke-miterlimit="10"/>
<path d="M318.705 107.244C317.149 107.244 315.612 106.662 314.428 105.507L310.461 101.572C309.979 101.1 309.899 100.367 310.25 99.7951C310.481 99.4337 310.853 99.1928 311.285 99.1325C311.716 99.0723 312.138 99.2128 312.449 99.504L313.233 100.237L309.246 92.0251C309.045 91.6035 309.025 91.1317 309.196 90.7C309.357 90.2684 309.688 89.927 310.11 89.7463C310.953 89.385 311.917 89.7463 312.319 90.5695L313.825 93.4807C314.126 93.1294 314.488 92.9286 314.889 92.8684C315.532 92.768 316.125 93.0892 316.466 93.3201C316.777 92.9386 317.159 92.7078 317.591 92.6475C318.113 92.5773 318.605 92.778 318.926 92.9688C319.137 92.4869 319.549 92.2359 320.101 92.2661C320.633 92.2962 321.125 92.6174 321.396 93.1193L324.218 98.2993C325.604 101.02 324.81 104.282 322.35 106.069C321.236 106.852 319.97 107.244 318.705 107.244ZM311.465 99.765C311.435 99.765 311.395 99.765 311.365 99.775C311.124 99.8051 310.923 99.9356 310.793 100.136C310.592 100.458 310.642 100.859 310.903 101.12L314.869 105.055C316.797 106.923 319.77 107.133 321.939 105.557C324.148 103.961 324.851 101.03 323.615 98.6005L320.804 93.4305C320.643 93.1294 320.342 92.9286 320.031 92.9186C319.77 92.9085 319.488 92.9688 319.398 93.551L319.318 94.1232L318.876 93.7217C318.866 93.7217 318.273 93.1896 317.661 93.28C317.33 93.3302 317.038 93.551 316.797 93.9425L316.586 94.2738L316.305 94.0027C316.295 93.9927 315.643 93.3904 314.98 93.4908C314.618 93.541 314.307 93.802 314.046 94.2638L313.745 94.7958L311.736 90.8506C311.485 90.3386 310.883 90.1077 310.361 90.3386C310.1 90.4491 309.899 90.6699 309.788 90.9309C309.688 91.202 309.698 91.4931 309.819 91.7541L315.241 103.007L312.008 99.9758C311.857 99.8352 311.666 99.765 311.465 99.765Z" stroke="white" stroke-miterlimit="10"/>
<path d="M315.241 97.8979C315.12 97.8979 315 97.8277 314.95 97.7072L313.474 94.2338C313.403 94.0732 313.484 93.8825 313.644 93.8122C313.805 93.7419 313.996 93.8222 314.066 93.9829L315.542 97.4562C315.612 97.6169 315.532 97.8076 315.371 97.8779C315.321 97.8879 315.281 97.8979 315.241 97.8979Z" stroke="white" stroke-miterlimit="10"/>
<path d="M317.811 97.135C317.691 97.135 317.57 97.0647 317.52 96.9342L316.235 93.8925C316.165 93.7319 316.245 93.5412 316.406 93.4709C316.566 93.4006 316.757 93.4809 316.827 93.6415L318.113 96.6833C318.183 96.8439 318.103 97.0346 317.942 97.1049C317.892 97.135 317.852 97.135 317.811 97.135Z" stroke="white" stroke-miterlimit="10"/>
<path d="M320.332 96.4721C320.211 96.4721 320.091 96.4018 320.041 96.2914L318.806 93.6311C318.735 93.4705 318.806 93.2798 318.966 93.2095C319.127 93.1392 319.318 93.2095 319.388 93.3601L320.623 96.0203C320.693 96.181 320.623 96.3717 320.462 96.442C320.422 96.462 320.372 96.4721 320.332 96.4721Z" stroke="white" stroke-miterlimit="10"/>
<path d="M294.305 52.8558L290.84 56.3198L294.305 59.7838L297.77 56.3198L294.305 52.8558Z" stroke="white" stroke-miterlimit="10"/>
<path d="M264.411 84.5262C264.411 83.1107 263.266 81.9663 261.851 81.9663C260.435 81.9663 259.29 83.1107 259.29 84.5262C259.29 85.9416 260.435 87.086 261.851 87.086C263.266 87.086 264.411 85.9416 264.411 84.5262Z" stroke="white" stroke-miterlimit="10"/>
<path d="M613.669 0.713183L603.729 10.6509L613.669 20.5886L623.61 10.6509L613.669 0.713183Z" stroke="white" stroke-miterlimit="10"/>
<path d="M270.872 273.683L260.932 283.621L270.872 293.559L280.813 283.621L270.872 273.683Z" stroke="white" stroke-miterlimit="10"/>
<path d="M227.564 254.33L217.624 264.268L227.564 274.205L237.504 264.268L227.564 254.33Z" stroke="white" stroke-miterlimit="10"/>
<path d="M595.193 18.9313L589.768 24.3545L595.193 29.7776L600.617 24.3545L595.193 18.9313Z" stroke="white" stroke-miterlimit="10"/>
<path d="M596.994 247.795C599.212 247.795 601.01 245.997 601.01 243.78C601.01 241.562 599.212 239.764 596.994 239.764C594.775 239.764 592.977 241.562 592.977 243.78C592.977 245.997 594.775 247.795 596.994 247.795Z" stroke="white" stroke-miterlimit="10"/>
<path d="M263.748 213.001C265.967 213.001 267.765 211.203 267.765 208.985C267.765 206.768 265.967 204.97 263.748 204.97C261.53 204.97 259.732 206.768 259.732 208.985C259.732 211.203 261.53 213.001 263.748 213.001Z" stroke="white" stroke-miterlimit="10"/>
<path d="M440.96 22.6975C443.178 22.6975 444.976 20.8997 444.976 18.682C444.976 16.4643 443.178 14.6665 440.96 14.6665C438.741 14.6665 436.943 16.4643 436.943 18.682C436.943 20.8997 438.741 22.6975 440.96 22.6975Z" stroke="white" stroke-miterlimit="10"/>
<path d="M656.238 55.0522H461.434V230.729H656.238V55.0522Z" fill="#F0AE00"/>
<path d="M668.78 46.0176H472.429V222.447H668.78V46.0176Z" fill="white" stroke="#263238" stroke-miterlimit="10" stroke-linecap="round" stroke-linejoin="round"/>
<path d="M668.78 46.0176H524.153V69.9598H668.78V46.0176Z" fill="#263238" stroke="#263238" stroke-miterlimit="10" stroke-linecap="round" stroke-linejoin="round"/>
<path d="M668.78 46.0176H472.429V58.4656H668.78V46.0176Z" fill="white" stroke="#263238" stroke-miterlimit="10" stroke-linecap="round" stroke-linejoin="round"/>
<path d="M600.769 87.1963H481.045V163.801H600.769V87.1963Z" fill="#263238" stroke="#263238" stroke-miterlimit="10" stroke-linecap="round" stroke-linejoin="round"/>
<path d="M600.769 155.269H481.045V163.801H600.769V155.269Z" fill="white" stroke="#263238" stroke-miterlimit="10" stroke-linecap="round" stroke-linejoin="round"/>
<path d="M600.769 158.29H481.045V160.78H600.769V158.29Z" fill="white" stroke="#263238" stroke-miterlimit="10" stroke-linecap="round" stroke-linejoin="round"/>
<path d="M553.854 134.336C558.945 126.037 556.341 115.183 548.039 110.095C539.737 105.006 528.881 107.609 523.791 115.908C518.7 124.208 521.304 135.061 529.606 140.15C537.908 145.239 548.764 142.636 553.854 134.336Z" fill="#0169EE"/>
<path d="M549.046 125.504L533.712 116.65V134.358L549.046 125.504Z" fill="white"/>
<path d="M658.799 87.1963H611.523V117.443H658.799V87.1963Z" fill="#263238" stroke="#263238" stroke-miterlimit="10" stroke-linecap="round" stroke-linejoin="round"/>
<path d="M658.799 114.08H611.523V117.453H658.799V114.08Z" fill="white" stroke="#263238" stroke-miterlimit="10" stroke-linecap="round" stroke-linejoin="round"/>
<path d="M658.799 115.265H611.523V116.248H658.799V115.265Z" fill="white" stroke="#263238" stroke-miterlimit="10" stroke-linecap="round" stroke-linejoin="round"/>
<path d="M634.338 109.131C638.181 109.131 641.296 106.016 641.296 102.174C641.296 98.332 638.181 95.2173 634.338 95.2173C630.494 95.2173 627.379 98.332 627.379 102.174C627.379 106.016 630.494 109.131 634.338 109.131Z" fill="#0169EE"/>
<path d="M638.374 102.325L632.319 98.8311V105.818L638.374 102.325Z" fill="white"/>
<path d="M658.799 120.435H611.523V150.681H658.799V120.435Z" fill="#263238" stroke="#263238" stroke-miterlimit="10" stroke-linecap="round" stroke-linejoin="round"/>
<path d="M658.799 147.318H611.523V150.691H658.799V147.318Z" fill="white" stroke="#263238" stroke-miterlimit="10" stroke-linecap="round" stroke-linejoin="round"/>
<path d="M658.799 148.503H611.523V149.487H658.799V148.503Z" fill="white" stroke="#263238" stroke-miterlimit="10" stroke-linecap="round" stroke-linejoin="round"/>
<path d="M641.306 135.412C641.306 131.568 638.193 128.456 634.348 128.456C630.502 128.456 627.389 131.568 627.389 135.412C627.389 139.257 630.502 142.369 634.348 142.369C638.183 142.369 641.306 139.257 641.306 135.412Z" fill="#0169EE"/>
<path d="M638.374 135.563L632.319 132.069V139.056L638.374 135.563Z" fill="white"/>
<path d="M658.799 153.672H611.523V183.919H658.799V153.672Z" fill="#263238" stroke="#263238" stroke-miterlimit="10" stroke-linecap="round" stroke-linejoin="round"/>
<path d="M658.799 180.556H611.523V183.929H658.799V180.556Z" fill="white" stroke="#263238" stroke-miterlimit="10" stroke-linecap="round" stroke-linejoin="round"/>
<path d="M658.799 181.75H611.523V182.734H658.799V181.75Z" fill="white" stroke="#263238" stroke-miterlimit="10" stroke-linecap="round" stroke-linejoin="round"/>
<path d="M641.306 168.65C641.306 164.805 638.193 161.693 634.348 161.693C630.502 161.693 627.389 164.805 627.389 168.65C627.389 172.495 630.502 175.607 634.348 175.607C638.183 175.607 641.306 172.495 641.306 168.65Z" fill="#0169EE"/>
<path d="M638.374 168.801L632.319 165.307V172.294L638.374 168.801Z" fill="white"/>
<path d="M658.799 186.911H611.523V217.157H658.799V186.911Z" fill="#263238" stroke="#263238" stroke-miterlimit="10" stroke-linecap="round" stroke-linejoin="round"/>
<path d="M658.799 213.794H611.523V217.167H658.799V213.794Z" fill="white" stroke="#263238" stroke-miterlimit="10" stroke-linecap="round" stroke-linejoin="round"/>
<path d="M658.799 214.989H611.523V215.973H658.799V214.989Z" fill="white" stroke="#263238" stroke-miterlimit="10" stroke-linecap="round" stroke-linejoin="round"/>
<path d="M641.306 201.888C641.306 198.044 638.193 194.932 634.348 194.932C630.502 194.932 627.389 198.044 627.389 201.888C627.389 205.733 630.502 208.845 634.348 208.845C638.183 208.845 641.306 205.733 641.306 201.888Z" fill="#0169EE"/>
<path d="M638.374 202.039L632.319 198.545V205.532L638.374 202.039Z" fill="white"/>
<path d="M481.979 171.883H573.667" stroke="#263238" stroke-miterlimit="10" stroke-linecap="round" stroke-linejoin="round"/>
<path d="M481.979 193.536H536.454" stroke="#263238" stroke-miterlimit="10" stroke-linecap="round" stroke-linejoin="round"/>
<path d="M481.979 202.099H536.454" stroke="#263238" stroke-miterlimit="10" stroke-linecap="round" stroke-linejoin="round"/>
<path d="M481.979 210.662H536.454" stroke="#263238" stroke-miterlimit="10" stroke-linecap="round" stroke-linejoin="round"/>
<path d="M546.907 193.536H601.372" stroke="#263238" stroke-miterlimit="10" stroke-linecap="round" stroke-linejoin="round"/>
<path d="M546.907 202.099H601.372" stroke="#263238" stroke-miterlimit="10" stroke-linecap="round" stroke-linejoin="round"/>
<path d="M546.907 210.662H601.372" stroke="#263238" stroke-miterlimit="10" stroke-linecap="round" stroke-linejoin="round"/>
<path d="M481.979 178.94H597.847" stroke="#263238" stroke-miterlimit="10" stroke-linecap="round" stroke-linejoin="round"/>
<path d="M666.36 87.2466H661.63V218.282H666.36V87.2466Z" fill="#A2A7A9"/>
<path d="M666.36 119.039H661.63V135.794H666.36V119.039Z" fill="#263238"/>
<path d="M618.081 222.698V265.865" stroke="#263238" stroke-miterlimit="10" stroke-linecap="round" stroke-linejoin="round"/>
<path d="M549.688 345.712L550.02 346.034H550.773C550.05 345.883 549.688 345.712 549.688 345.712Z" fill="#263238" stroke="#263238" stroke-miterlimit="10" stroke-linecap="round" stroke-linejoin="round"/>
</svg>
