<svg width="23" height="23" viewBox="0 0 23 23" fill="none" xmlns="http://www.w3.org/2000/svg">
<g clip-path="url(#clip0_107_22)">
<path d="M16.3214 22.9907C16.0753 22.9907 15.9366 22.8157 15.8429 22.6626C15.3436 21.8492 14.8437 21.0358 14.3439 20.223C13.3933 18.6769 12.4108 17.0786 11.4466 15.5046C11.3719 15.3824 11.3037 15.3373 11.1768 15.3248C10.6455 15.2726 10.1065 15.2145 9.58531 15.1581C9.22715 15.1195 8.86841 15.081 8.51026 15.0436C8.15566 15.0068 7.99556 14.8472 7.9588 14.4942C7.92263 14.1507 7.88527 13.8078 7.84851 13.4648C7.78862 12.9137 7.72635 12.3435 7.67121 11.7823C7.66172 11.6832 7.62555 11.6328 7.51822 11.5669C5.986 10.626 4.45436 9.68323 2.92273 8.74109C2.06945 8.21603 1.21617 7.69097 0.362891 7.1665C0.232438 7.08641 0.0533624 6.97605 0.0189703 6.74111C-0.0207585 6.47176 0.144086 6.25106 0.448278 6.16562C1.15865 5.96568 1.86962 5.76693 2.58059 5.56878L6.98633 4.33592C10.4457 3.36768 13.9045 2.40002 17.3638 1.43118C18.8338 1.01944 20.3032 0.605327 21.7726 0.191212L22.155 0.0832336C22.1722 0.0784873 22.1906 0.0755209 22.2096 0.0725544C22.2143 0.0719611 22.2202 0.0707745 22.2256 0.0701813L22.2535 0.0179719L22.3394 0.0197518C22.3839 0.0197518 22.4331 0.0155988 22.4859 0.0114457C22.541 0.00669943 22.5974 0.00195312 22.6519 0.00195312C22.7278 0.00195312 22.8375 0.0102592 22.917 0.0802672C23.0225 0.173413 23.0047 0.34428 22.9869 0.508621C22.9804 0.56795 22.9745 0.623719 22.9745 0.670589V0.69254L22.9662 0.712119C22.818 1.09954 22.71 1.5095 22.6057 1.90581C22.5648 2.06126 22.5238 2.21729 22.48 2.37214C20.5736 9.17597 18.6749 15.9661 16.8385 22.5327C16.7904 22.7053 16.6926 22.9397 16.4038 22.9836C16.376 22.9883 16.3481 22.9907 16.3214 22.9907ZM20.0696 4.53764C17.5299 7.90396 14.9036 11.3848 12.3165 14.8051C12.2548 14.887 12.2548 14.916 12.3153 15.0145C13.2659 16.5547 14.2294 18.1222 15.1616 19.6386L16.153 21.2512L21.2792 2.93458L20.0696 4.53764ZM19.9089 3.08586C17.5738 4.84912 15.2387 6.61296 12.9035 8.37681L11.9257 9.11604C10.8892 9.89919 9.81775 10.709 8.76227 11.5028C8.67569 11.5681 8.65731 11.6073 8.66858 11.7046C8.75752 12.4717 8.83165 13.2281 8.90636 14C8.91347 14.0718 8.92237 14.086 9.00776 14.0949L9.28764 14.1222C9.93397 14.1851 10.6017 14.2504 11.2575 14.331C11.277 14.3334 11.2948 14.3346 11.3114 14.3346C11.3992 14.3346 11.4472 14.3038 11.5273 14.1976C13.4936 11.5865 15.4954 8.9345 17.4314 6.36912L18.7123 4.67172C19.0858 4.17751 19.9089 3.08586 19.9089 3.08586ZM2.94526 7.57587C4.61031 8.59988 6.3317 9.6589 8.02284 10.7055C8.05308 10.7244 8.07798 10.7345 8.09518 10.7345C8.11475 10.7345 8.14262 10.7197 8.19361 10.6811C11.4016 8.25459 14.6113 5.82982 17.8216 3.40565L19.3758 2.23153C19.6029 2.06007 19.83 1.88802 20.0571 1.71596L1.75399 6.84316L2.94526 7.57587Z" fill="#EC7938"/>
<path d="M22.8553 0.669211C22.6472 1.21266 22.5221 1.78103 22.3655 2.33991C20.4823 9.05949 18.6031 15.7803 16.724 22.501C16.673 22.6838 16.5894 22.8356 16.386 22.8665C16.1708 22.8991 16.0475 22.7692 15.9437 22.6001C14.4785 20.2139 13.0097 17.8301 11.5474 15.4421C11.4585 15.2973 11.3606 15.2232 11.1881 15.206C10.2986 15.1181 9.41097 15.0167 8.52152 14.9247C8.22089 14.8933 8.10704 14.7812 8.07561 14.481C7.98073 13.5768 7.87697 12.6738 7.78802 11.7696C7.7726 11.6148 7.69967 11.5388 7.5787 11.4647C5.1926 9.99926 2.80888 8.53087 0.423964 7.06367C0.288768 6.98061 0.160687 6.89518 0.135189 6.72253C0.104948 6.51488 0.230657 6.34876 0.47911 6.27875C1.54408 5.97973 2.60964 5.6825 3.67461 5.38467C8.24816 4.10376 12.8217 2.82403 17.3953 1.54372C18.9927 1.09638 20.5896 0.646073 22.1864 0.195767C22.2339 0.182122 22.2932 0.192207 22.3234 0.136438C22.5007 0.139998 22.7367 0.0777028 22.8381 0.167289C22.9241 0.243823 22.8553 0.495378 22.8553 0.669211ZM21.53 2.47755C21.5158 2.47399 21.5016 2.47043 21.4879 2.46628C21.434 2.5357 21.3794 2.60452 21.3266 2.67512C18.293 6.69524 15.26 10.7165 12.2216 14.7337C12.1214 14.866 12.1357 14.9502 12.2139 15.0772C13.4983 17.1591 14.7791 19.2439 16.0605 21.3281C16.0955 21.3851 16.137 21.4384 16.1987 21.5268C17.9847 15.1466 19.7576 8.81209 21.53 2.47755ZM1.46699 6.79966C1.54942 6.85365 1.58499 6.87797 1.62176 6.90111C3.73509 8.2016 5.84961 9.5003 7.95939 10.8061C8.08984 10.8868 8.15981 10.8536 8.26358 10.7753C11.9898 7.95716 15.7178 5.14142 19.4457 2.32567C19.8098 2.05039 20.1739 1.7751 20.538 1.49922C20.5321 1.48676 20.5255 1.4743 20.5196 1.46244C14.1861 3.23637 7.85206 5.01089 1.46699 6.79966ZM20.382 2.65554C20.3702 2.6413 20.3583 2.62766 20.3465 2.61342C20.2895 2.65435 20.2314 2.69351 20.1751 2.73563C17.7273 4.58373 15.2796 6.43241 12.8318 8.2811C11.452 9.3235 10.0727 10.3671 8.69052 11.4065C8.57963 11.4902 8.53338 11.5685 8.55058 11.7168C8.63893 12.4798 8.71423 13.2451 8.78836 14.0099C8.8014 14.1475 8.86485 14.1986 8.99649 14.211C9.746 14.2846 10.4961 14.3546 11.2438 14.4471C11.4312 14.4703 11.5207 14.4032 11.6227 14.2674C14.0154 11.0903 16.4121 7.91682 18.8077 4.74213C19.3325 4.04739 19.8573 3.35147 20.382 2.65554Z" fill="#EC7938"/>
<path d="M6.19413 17.3147C6.06308 17.3147 5.93322 17.2601 5.83835 17.1652C5.64919 16.9766 5.63496 16.6841 5.80633 16.4995C6.03284 16.2551 6.27477 16.0196 6.5084 15.7918L6.63707 15.6666C6.70704 15.5983 6.80429 15.5586 6.90391 15.5586C6.9128 15.5586 6.9211 15.5592 6.93 15.5598C7.14762 15.561 7.30238 15.6529 7.38955 15.8315C7.48442 16.0249 7.46426 16.2219 7.33559 16.3589C7.02843 16.6864 6.76397 16.9516 6.50366 17.1937C6.41945 17.272 6.30916 17.3147 6.19413 17.3147Z" fill="#EC7938"/>
<path d="M6.92467 15.6782C7.09959 15.6782 7.21522 15.7447 7.28282 15.8835C7.34982 16.0199 7.35219 16.1677 7.24902 16.2774C6.98218 16.5622 6.70823 16.841 6.42302 17.1062C6.27655 17.2421 6.05656 17.2148 5.92196 17.0807C5.78676 16.9455 5.7583 16.7248 5.8929 16.58C6.15796 16.294 6.4408 16.0241 6.7195 15.7512C6.7788 15.6936 6.86003 15.6723 6.92467 15.6782Z" fill="#EC7938"/>
<path d="M0.512322 23.0002C0.376533 23.0002 0.244894 22.9415 0.150019 22.8382C-0.0373583 22.6347 -0.0504036 22.3826 0.116813 22.1969C0.330281 21.9596 0.562724 21.7341 0.787459 21.5158C0.845569 21.4588 0.904273 21.4025 0.962384 21.3455C1.02998 21.2797 1.12604 21.2417 1.22685 21.2417C1.23574 21.2417 1.24404 21.2423 1.25234 21.2423C1.47411 21.2464 1.62888 21.3408 1.71308 21.5235C1.8038 21.7193 1.78068 21.9109 1.65023 22.0486C1.41185 22.3001 1.12664 22.5956 0.815921 22.881C0.732906 22.9581 0.624986 23.0002 0.512322 23.0002Z" fill="#EC7938"/>
<path d="M1.247 21.3616C1.42667 21.364 1.54111 21.434 1.60575 21.574C1.66919 21.7117 1.6686 21.8582 1.56483 21.968C1.29681 22.251 1.02345 22.531 0.736458 22.7944C0.588809 22.9303 0.367633 22.9 0.237773 22.7582C0.0996116 22.6081 0.073521 22.423 0.205753 22.2765C0.471402 21.9816 0.761956 21.7087 1.04599 21.4311C1.10469 21.3723 1.18771 21.3569 1.247 21.3616Z" fill="#EC7938"/>
<path d="M3.1528 16.1745C3.02354 16.1745 2.89901 16.1193 2.80295 16.0196C2.60905 15.8185 2.61913 15.5171 2.82726 15.3017C3.06149 15.0597 3.30994 14.8117 3.56551 14.5649C3.66809 14.4658 3.78728 14.4136 3.90943 14.4136C3.98118 14.4136 4.05411 14.4314 4.12527 14.4658C4.30553 14.5536 4.40693 14.7061 4.4176 14.9078V14.9131V14.9185C4.41226 15.0632 4.35534 15.1878 4.24386 15.2994C4.17804 15.3652 4.11222 15.4317 4.0464 15.4981C3.88097 15.6648 3.71019 15.8375 3.53764 16.0042C3.4232 16.1157 3.28978 16.1745 3.1528 16.1745Z" fill="#EC7938"/>
<path d="M4.2996 14.9143C4.29485 15.0413 4.24089 15.135 4.16025 15.2157C3.92603 15.4507 3.69418 15.688 3.4558 15.9188C3.27198 16.0967 3.04429 16.0997 2.88774 15.9372C2.7395 15.7835 2.74424 15.558 2.91205 15.3842C3.1528 15.135 3.39829 14.8906 3.64733 14.6503C3.7677 14.534 3.91298 14.4949 4.07368 14.5726C4.22014 14.6438 4.29129 14.7636 4.2996 14.9143Z" fill="#EC7938"/>
<path d="M5.02243 14.283C4.85165 14.2747 4.70223 14.1762 4.6121 14.013C4.50596 13.822 4.52908 13.6161 4.67376 13.4624C4.95898 13.1599 5.227 12.8923 5.49265 12.6449C5.57804 12.5654 5.69011 12.5215 5.80752 12.5215C5.93916 12.5215 6.06724 12.5761 6.15915 12.671C6.35542 12.8739 6.3738 13.1255 6.20658 13.3117C5.97651 13.5686 5.72569 13.8113 5.48257 14.0462L5.345 14.1797C5.25072 14.2711 5.11968 14.2824 5.02895 14.283H5.02539H5.02243Z" fill="#EC7938"/>
<path d="M5.02836 14.1645C4.90384 14.1585 4.7888 14.0873 4.71586 13.9556C4.63522 13.8103 4.65182 13.6584 4.76034 13.5439C5.02302 13.2651 5.29341 12.9927 5.57389 12.7317C5.71916 12.5964 5.94271 12.6172 6.07435 12.7536C6.21548 12.8996 6.25165 13.0847 6.11882 13.233C5.84902 13.5344 5.55313 13.8127 5.26258 14.0945C5.21159 14.1449 5.13331 14.1639 5.02836 14.1645Z" fill="#EC7938"/>
<path d="M9.21944 18.4535C9.08662 18.4535 8.9538 18.3942 8.85655 18.2904C8.6668 18.0887 8.66621 17.8086 8.85477 17.6081C9.05341 17.3975 9.26273 17.1922 9.46493 16.9929C9.52304 16.9359 9.58056 16.879 9.63867 16.822C9.7377 16.7241 9.86281 16.7028 9.94524 16.6885L9.96125 16.6855L9.97726 16.6873C10.1996 16.7087 10.3508 16.8078 10.4273 16.981C10.5133 17.1774 10.4878 17.3684 10.3573 17.5055C10.1154 17.7588 9.83257 18.0525 9.54024 18.3242C9.44833 18.409 9.33804 18.4535 9.21944 18.4535Z" fill="#EC7938"/>
<path d="M9.9654 16.8062C10.135 16.8228 10.2571 16.8904 10.3182 17.0292C10.3775 17.1645 10.3781 17.3122 10.2714 17.4244C10.0069 17.7014 9.74007 17.9773 9.4596 18.2378C9.30127 18.3843 9.08306 18.3582 8.94312 18.2093C8.80081 18.058 8.78954 17.8509 8.94134 17.6902C9.19395 17.422 9.46019 17.1663 9.72228 16.9076C9.79344 16.8364 9.8889 16.8192 9.9654 16.8062Z" fill="#EC7938"/>
<path d="M4.28952 19.2051C4.16855 19.2051 4.05351 19.1558 3.95568 19.0627C3.85368 18.9654 3.79854 18.8479 3.79617 18.7233C3.7938 18.5821 3.85902 18.4385 3.98532 18.3086C4.19345 18.095 4.41819 17.8702 4.69214 17.6014C4.79472 17.5012 4.91687 17.4478 5.04496 17.4478C5.11315 17.4478 5.18193 17.4626 5.25072 17.4917C5.43394 17.57 5.54068 17.7313 5.55135 17.9449L5.55194 17.9515L5.55135 17.958C5.54364 18.1004 5.48612 18.2256 5.38117 18.33C5.30764 18.4029 5.23471 18.4771 5.16177 18.5507C5.00819 18.7055 4.84928 18.8657 4.68977 19.0206C4.56584 19.141 4.42708 19.2051 4.28952 19.2051Z" fill="#EC7938"/>
<path d="M5.43336 17.9514C5.42683 18.0677 5.37999 18.1644 5.29816 18.2463C5.06809 18.4759 4.84157 18.7091 4.60795 18.9351C4.41405 19.1226 4.20295 19.1339 4.03751 18.9766C3.86436 18.8117 3.87326 18.5934 4.07012 18.3916C4.30197 18.1537 4.53798 17.9194 4.77516 17.6868C4.89731 17.5676 5.04615 17.5343 5.20388 17.602C5.35331 17.6655 5.42505 17.7906 5.43336 17.9514Z" fill="#EC7938"/>
<path d="M7.3261 20.3375C7.19861 20.3375 7.07646 20.2864 6.98218 20.1939C6.77761 19.9928 6.78057 19.6896 6.9887 19.4725C7.20514 19.247 7.44707 19.0049 7.72813 18.7332C7.83012 18.6347 7.94931 18.5825 8.07324 18.5825C8.1444 18.5825 8.21674 18.5997 8.28789 18.6329C8.45867 18.713 8.55888 18.8566 8.58616 19.0601L8.58794 19.0732L8.58675 19.0862C8.5737 19.2322 8.52508 19.3461 8.4391 19.4339L8.31517 19.5603C8.11119 19.7685 7.90009 19.9833 7.68425 20.188C7.58226 20.2847 7.45537 20.3375 7.3261 20.3375Z" fill="#EC7938"/>
<path d="M8.46875 19.0755C8.45867 19.1906 8.42368 19.2802 8.35431 19.3508C8.10585 19.6035 7.85918 19.8581 7.60183 20.1019C7.4358 20.2597 7.21225 20.2538 7.0646 20.109C6.91103 19.9583 6.90865 19.7264 7.0735 19.5543C7.31365 19.3039 7.56033 19.0595 7.80996 18.8186C7.93034 18.7023 8.07561 18.665 8.2369 18.7403C8.38751 18.8103 8.45037 18.9355 8.46875 19.0755Z" fill="#EC7938"/>
<path d="M2.4021 21.0898C2.20405 21.0898 2.0481 20.9937 1.96331 20.8187C1.86903 20.6241 1.88978 20.4265 2.01845 20.2901C2.34636 19.9424 2.6043 19.6849 2.85513 19.4553C2.94289 19.3746 3.04666 19.3325 3.15517 19.3325C3.27614 19.3325 3.39414 19.3841 3.49791 19.482C3.7007 19.6737 3.72738 19.9246 3.5655 20.1222C3.2957 20.4509 2.98855 20.7356 2.6974 20.9991C2.60668 21.0809 2.49342 21.0904 2.41693 21.0904H2.4021V21.0898Z" fill="#EC7938"/>
<path d="M2.40981 20.9708C2.25446 20.9732 2.13705 20.905 2.07004 20.7667C2.00422 20.6309 2.00126 20.4813 2.10503 20.371C2.37305 20.0862 2.647 19.8062 2.93518 19.5422C3.08461 19.4051 3.26843 19.4277 3.41608 19.5671C3.56254 19.7053 3.60286 19.8875 3.4736 20.0453C3.21625 20.3591 2.91858 20.6368 2.61735 20.9091C2.56102 20.9607 2.48512 20.9714 2.40981 20.9708Z" fill="#EC7938"/>
</g>
<defs>
<clipPath id="clip0_107_22">
<rect width="23" height="23" fill="white"/>
</clipPath>
</defs>
</svg>
