<svg width="23" height="23" viewBox="0 0 23 23" fill="none" xmlns="http://www.w3.org/2000/svg">
<g clip-path="url(#clip0_107_3)">
<path d="M1.14002 23C0.627293 23 0.322154 22.9725 0.175824 22.8306C0.0272243 22.6865 0 22.3819 0 21.8705C0.00680608 18.4532 2.18135 15.4682 5.4097 14.4421C6.08009 14.2287 6.12093 14.1737 6.03586 13.5974C6.02792 13.5468 6.01997 13.4907 6.01203 13.4302C5.91448 12.7296 5.61955 12.4712 4.84252 12.403C3.81027 12.3128 2.97993 11.3669 2.913 10.2011C2.85288 9.17382 3.58907 8.18396 4.62473 7.8991C4.98999 7.79792 5.14313 7.67363 5.01835 7.23589C4.71661 6.16904 4.72795 5.15608 5.05238 4.22451C5.19077 3.82857 5.33823 3.45242 5.62862 3.20055C5.88499 2.97839 6.13681 2.74412 6.38183 2.51755C7.14298 1.81145 7.93021 1.08225 8.91142 0.625813C9.81436 0.204572 10.7332 0 11.7189 0C12.682 0 13.6836 0.196873 14.7817 0.601616C14.9473 0.662108 15.1174 0.725899 15.2762 0.805088C15.511 0.922772 15.6801 1.12184 15.7425 1.35061C15.7969 1.55188 15.7606 1.76086 15.6415 1.93683C15.5383 2.08971 15.5042 2.20189 15.5326 2.30308C15.57 2.43726 15.7028 2.50105 15.857 2.57364C16.558 2.908 17.149 3.33584 17.6141 3.84397C18.5772 4.89762 18.8574 6.10855 18.4456 7.44596C18.3753 7.67473 18.39 7.83531 18.6736 7.97169C19.7546 8.48972 20.2742 9.49938 20.0292 10.6047C19.7921 11.6782 18.8188 12.4151 17.6073 12.4371C17.3748 12.4415 17.1627 12.4756 17.1241 12.8352C17.0935 13.1278 17.0152 13.4445 16.8847 13.8053C16.836 13.9417 16.8133 14.0516 16.8643 14.1473C16.9165 14.2452 17.0265 14.2925 17.1763 14.3343C19.5244 14.9843 21.2474 16.4207 22.2978 18.6039C22.814 19.6752 23.0408 20.8905 22.9921 22.3192C22.975 22.8086 22.7391 22.9989 22.1515 22.9989C20.3706 23 18.5885 23 16.8076 23H1.14002ZM6.72667 15.3704C6.68243 15.3704 6.63592 15.3748 6.58488 15.3825C3.73654 15.8356 1.34874 18.4884 1.26139 21.2941C1.25686 21.4371 1.26593 21.5966 1.36916 21.6989C1.47125 21.8012 1.62779 21.8144 1.78092 21.8144C3.732 21.8067 5.61842 21.8067 7.2065 21.8067L11.5034 21.8078H20.5396C21.1601 21.8078 21.4709 21.8078 21.6297 21.6274C21.7885 21.4459 21.7409 21.1611 21.6365 20.5352C21.2134 18.0034 18.9776 15.7916 16.4355 15.3891C16.3788 15.3803 16.3278 15.3759 16.2801 15.3759C16.0907 15.3759 15.9489 15.4419 15.7912 15.6046C14.6694 16.7606 13.1471 17.3974 11.5045 17.3974C9.85406 17.3974 8.32156 16.7562 7.19175 15.5903C7.07945 15.477 6.9456 15.3704 6.72667 15.3704ZM8.61989 6.85535C7.64549 6.85535 7.0579 7.43167 7.04996 8.39733C7.04656 8.85157 7.04769 9.30581 7.04769 9.76004L7.04883 10.332C7.04883 10.52 7.04769 10.7092 7.04769 10.8973C7.04656 11.3053 7.04429 11.7277 7.04996 12.1434C7.06698 13.4368 7.61713 14.5015 8.68342 15.3099C9.44683 15.8873 10.3441 16.1568 11.5091 16.1568C11.6157 16.1568 11.7223 16.1546 11.8312 16.1502C14.2111 16.0556 15.9421 14.3277 15.9478 12.0411C15.9489 11.7211 15.9421 11.3955 15.9342 11.081C15.9194 10.3991 15.9047 9.69295 15.9682 9.00995C16.0056 8.6129 15.8672 8.22576 15.5791 7.9189C15.2796 7.60104 14.8656 7.41847 14.4414 7.41847C14.2735 7.41847 14.109 7.44706 13.9536 7.50536C13.4511 7.68903 12.9418 7.78252 12.4381 7.78252C11.7291 7.78252 11.0054 7.59664 10.2851 7.23149C9.82457 6.99723 9.28576 6.87184 8.68228 6.85645C8.66187 6.85535 8.64031 6.85535 8.61989 6.85535ZM5.37226 8.96815C4.75064 8.96815 4.21977 9.41799 4.16305 9.99101C4.13129 10.3111 4.22657 10.6201 4.43076 10.8588C4.6338 11.0975 4.92533 11.2437 5.25202 11.2734C5.29966 11.2778 5.34504 11.28 5.38701 11.28C5.49023 11.28 5.63883 11.2679 5.73639 11.1601C5.81466 11.0733 5.84188 10.9457 5.8192 10.7686C5.80105 10.63 5.80558 10.487 5.81012 10.3375C5.81239 10.2671 5.81466 10.1967 5.81466 10.1263L5.81352 9.89422C5.81239 9.71275 5.81239 9.53017 5.81579 9.3487C5.8192 9.18812 5.78403 9.00005 5.48456 8.97365C5.446 8.96925 5.40856 8.96815 5.37226 8.96815ZM17.5325 8.91096C17.1842 8.91096 17.1842 9.21672 17.1831 9.51258C17.1831 9.70395 17.1831 9.89532 17.1842 10.0867V10.3298C17.1842 10.5211 17.1853 10.7125 17.1831 10.9039C17.1808 11.1151 17.2829 11.2294 17.495 11.2525C17.5347 11.2569 17.5744 11.2591 17.6141 11.2591C18.1926 11.2591 18.7371 10.8236 18.8267 10.2891C18.9311 9.66546 18.5466 9.11113 17.9102 8.96925C17.7548 8.93406 17.63 8.91096 17.5325 8.91096ZM14.5695 6.21084C15.3488 6.21084 16.0419 6.56169 16.6306 7.25239C16.6488 7.27329 16.6635 7.29748 16.6794 7.32058C16.7327 7.40087 16.8065 7.51086 16.9607 7.53945L17.0435 7.55485L17.0821 7.48226C17.6141 6.4902 17.4553 5.43764 16.6465 4.59516C16.1338 4.06174 15.4657 3.65369 14.5412 3.31054C14.0772 3.13896 13.8197 2.95089 13.7313 2.71882C13.6428 2.48785 13.7097 2.1854 13.9422 1.76745L14.0012 1.65967L13.8855 1.61348C13.2242 1.34841 12.4823 1.20873 11.7393 1.20873C10.166 1.20873 8.77644 1.80265 7.82699 2.8805L7.76233 2.95529C7.65116 3.08397 7.54567 3.20715 7.40501 3.29514C6.18219 4.07383 5.76702 5.19788 6.17425 6.63758L6.23096 6.83995L6.37049 6.67937C6.8299 6.15034 7.31199 5.85229 7.88597 5.7423C8.17977 5.68621 8.47583 5.65761 8.76509 5.65761C9.43436 5.65761 10.0855 5.80939 10.7003 6.10745C11.2981 6.39781 11.8789 6.53859 12.4755 6.53859C12.8794 6.53859 13.2877 6.4748 13.7222 6.34392C14.0126 6.25483 14.2973 6.21084 14.5695 6.21084Z" fill="#EC7938"/>
</g>
<defs>
<clipPath id="clip0_107_3">
<rect width="23" height="23" fill="white"/>
</clipPath>
</defs>
</svg>
