<svg width="24" height="24" viewBox="0 0 24 24" fill="none" xmlns="http://www.w3.org/2000/svg">
<g clip-path="url(#clip0_107_54)">
<path d="M20.2095 24C19.9287 24 19.656 23.9052 19.3982 23.7187C19.1274 23.5229 18.8596 23.3154 18.6006 23.1147C18.4971 23.0341 18.3936 22.9542 18.2894 22.8743L17.6052 22.3501C16.6656 21.6296 15.6938 20.8849 14.7412 20.1483C14.6433 20.0721 14.5491 20.0411 14.4171 20.0411C12.8392 20.043 11.2625 20.0436 9.68516 20.0436C8.39355 20.0436 7.10195 20.0442 5.81035 20.0448C5.35668 20.0448 5.00713 19.9475 4.7084 19.7381C4.68237 19.7196 4.67183 19.7196 4.67183 19.7196C4.67183 19.7196 4.66068 19.7196 4.62721 19.7443C4.35389 19.9426 4.07003 20.043 3.7837 20.043C3.56368 20.043 3.34242 19.9835 3.12488 19.8664C2.61915 19.5932 2.36505 19.1378 2.36876 18.5114C2.37062 18.2023 2.37 17.8931 2.36938 17.584C2.36876 17.1274 2.36752 16.6559 2.37496 16.1912C2.3762 16.1045 2.36257 16.0859 2.36195 16.0853C2.36195 16.0853 2.34707 16.076 2.29005 16.076C2.27952 16.076 2.26898 16.076 2.2572 16.0766L2.20514 16.0791C2.08925 16.0847 1.96963 16.0902 1.85064 16.0902C1.65293 16.0902 1.49241 16.0741 1.34428 16.0388C0.735668 15.8957 0.314844 15.524 0.0935854 14.9354C0.08119 14.9026 0.075612 14.871 0.0712736 14.8437C0.0669352 14.8196 0.0625968 14.7923 0.0557794 14.788L0 14.752V1.39894L0.00867679 1.37725C0.0272699 1.33017 0.0446235 1.28246 0.0625968 1.23476C0.125813 1.06376 0.190889 0.887191 0.305547 0.725489C0.547258 0.384119 0.89123 0.155506 1.38705 0.00557592L1.4044 0H18.6576L18.6799 0.00867365C18.7214 0.0247819 18.7629 0.0402705 18.8051 0.0551397C18.9011 0.0898343 19.0003 0.125768 19.0945 0.175951C19.7143 0.503691 20.0347 1.02473 20.0471 1.72482C20.0583 2.36543 20.0576 3.04445 20.0459 3.86163C20.0452 3.92421 20.0527 3.94341 20.0545 3.94713C20.0545 3.94713 20.0545 3.94713 20.0552 3.94713C20.0589 3.94713 20.0787 3.95271 20.1302 3.95271H20.1413C20.4469 3.94837 20.7722 3.94651 21.1645 3.94651C21.4509 3.94651 21.7378 3.94775 22.0242 3.94837L22.2076 3.94899C23.2786 3.95271 23.9981 4.67696 23.9988 5.75125C23.9994 9.91708 23.9994 14.0835 23.9988 18.2494C23.9988 19.3175 23.2755 20.0386 22.1989 20.0436C22.1549 20.0436 22.1116 20.0448 22.0676 20.0461C22.0174 20.0473 21.9672 20.0485 21.917 20.0485C21.8426 20.0485 21.7812 20.0461 21.7236 20.0405C21.7081 20.0392 21.6938 20.038 21.6808 20.038C21.6486 20.038 21.6374 20.043 21.6362 20.0436C21.6368 20.0436 21.6257 20.064 21.6263 20.1421C21.6356 20.8731 21.6424 21.7374 21.6257 22.6042C21.6145 23.1642 21.3418 23.593 20.8373 23.8439C20.6291 23.9473 20.4177 24 20.2095 24ZM14.582 18.986C14.7543 18.986 14.9799 19.0077 15.1949 19.175C15.7887 19.6365 16.396 20.1018 16.983 20.551C17.1949 20.7133 17.4069 20.8756 17.6188 21.0386C17.8463 21.2133 18.0738 21.388 18.3012 21.5627C18.8485 21.9834 19.4137 22.4183 19.9727 22.8421C20.0595 22.9077 20.1518 22.9424 20.2392 22.9424C20.4227 22.9424 20.5559 22.7975 20.5795 22.5732C20.5851 22.5205 20.5844 22.4648 20.5838 22.4059V22.3545C20.5838 22.0658 20.5838 21.7777 20.5838 21.489C20.5838 20.8577 20.5832 20.2263 20.5857 19.5956C20.5869 19.1892 20.7784 18.9965 21.1869 18.9891C21.3009 18.9872 21.4149 18.9866 21.529 18.9866C21.6102 18.9866 21.6907 18.9866 21.7719 18.9872C21.8525 18.9872 21.9331 18.9879 22.0136 18.9879C22.0707 18.9879 22.1277 18.9879 22.1853 18.9872C22.7072 18.9835 22.9613 18.7289 22.9613 18.2097C22.9619 14.068 22.9619 9.927 22.9613 5.78533C22.9613 5.25499 22.7158 5.00656 22.1896 5.0047C21.8853 5.00346 21.581 5.00284 21.2767 5.00284C20.9241 5.00284 20.572 5.00346 20.2194 5.0047H20.1023C20.0917 5.0047 20.0688 5.0047 20.0483 5.00532C20.0483 5.02576 20.0483 5.05054 20.049 5.07409C20.0496 5.10506 20.0502 5.141 20.0502 5.18189C20.049 8.21085 20.049 11.2392 20.0502 14.2682C20.0502 14.9082 19.8042 15.4125 19.3189 15.7662C18.9346 16.0463 18.5051 16.0822 18.1742 16.0822C17.1596 16.0816 16.1487 16.081 15.1373 16.081C13.3424 16.081 11.4862 16.0803 9.66037 16.076C9.47753 16.076 9.34242 16.1243 9.1912 16.242C8.58444 16.7148 7.96343 17.1899 7.36288 17.6496C7.13914 17.8206 6.9154 17.9923 6.69228 18.1633L5.62318 18.9841C5.65231 18.9866 5.68206 18.9879 5.71429 18.9879C5.73412 18.9879 5.75395 18.9872 5.77378 18.9872C5.79486 18.9872 5.81531 18.9866 5.83576 18.9866C7.21165 18.9872 8.5863 18.9879 9.96095 18.9879C11.4998 18.9879 13.0394 18.9872 14.5782 18.986H14.582ZM2.7524 15.0308C3.23458 15.0321 3.41432 15.2117 3.41556 15.6944C3.41742 16.773 3.41742 17.6645 3.41494 18.4997C3.41432 18.75 3.47443 18.8757 3.62938 18.9495C3.67958 18.973 3.72668 18.9848 3.77378 18.9848C3.86613 18.9848 3.96219 18.9414 4.09482 18.8392C4.79826 18.2977 5.50232 17.7574 6.207 17.2172C7.05113 16.5698 7.92439 15.9 8.78091 15.239C8.96808 15.0946 9.16703 15.0277 9.4075 15.0277C11.1503 15.0302 12.8919 15.0308 14.6328 15.0308L18.2213 15.0302C18.753 15.0302 18.9916 14.7923 18.9941 14.2582C18.996 13.9076 18.9954 13.5563 18.9954 13.2056L18.9947 12.7521V1.84625C18.9954 1.68331 18.9954 1.53028 18.9222 1.39894C18.7815 1.14802 18.564 1.0365 18.2169 1.0365C16.7933 1.03774 15.3709 1.03774 13.9486 1.03774H1.91385C1.26805 1.03774 1.03936 1.26573 1.03936 1.90882V14.1709L1.03874 14.2285C1.03812 14.2787 1.0375 14.3258 1.0406 14.3716C1.06539 14.7669 1.33747 15.0252 1.73412 15.029C1.85869 15.0302 1.98327 15.0308 2.10784 15.0308L2.6365 15.0302L2.7524 15.0308Z" fill="#EC7938"/>
<path d="M18.6346 0.124023C18.7691 0.177304 18.9104 0.218195 19.0375 0.285725C19.6145 0.591162 19.9126 1.07874 19.9238 1.72741C19.9362 2.43803 19.9331 3.14989 19.9225 3.86051C19.9201 4.03832 19.9746 4.07921 20.1438 4.07673C20.8317 4.06744 21.5203 4.07116 22.2082 4.07363C23.2048 4.07673 23.8754 4.75266 23.8754 5.75199C23.876 9.91782 23.876 14.0843 23.8754 18.2501C23.8754 19.2439 23.1993 19.9161 22.1989 19.9204C22.044 19.921 21.8884 19.9316 21.7354 19.9173C21.5562 19.9006 21.4998 19.957 21.5023 20.1441C21.5129 20.9631 21.5178 21.7828 21.5017 22.6018C21.4918 23.1129 21.2439 23.5032 20.7822 23.7331C20.3272 23.9598 19.8804 23.9159 19.4707 23.6191C19.0951 23.3471 18.7326 23.0584 18.3644 22.7765C17.1807 21.8689 15.9963 20.9631 14.8169 20.0505C14.6923 19.9539 14.5702 19.9173 14.4159 19.9173C11.5476 19.921 8.67865 19.9185 5.81035 19.921C5.43787 19.9216 5.0877 19.8529 4.77905 19.6373C4.6929 19.5772 4.63527 19.5852 4.5547 19.6441C4.1221 19.9582 3.65913 20.0133 3.18438 19.7575C2.69476 19.4935 2.48962 19.0598 2.49334 18.5122C2.49768 17.739 2.48714 16.9664 2.49954 16.1938C2.50264 15.995 2.44066 15.9448 2.25163 15.9534C1.9591 15.9671 1.66037 15.9869 1.37341 15.9194C0.807562 15.7862 0.416487 15.4429 0.210103 14.8928C0.184073 14.824 0.198947 14.7354 0.125194 14.6858C0.123955 10.2648 0.123955 5.84368 0.123955 1.42259C0.208244 1.20947 0.27084 0.988291 0.40657 0.796851C0.659437 0.439373 1.01704 0.246694 1.42299 0.124023C7.16021 0.124023 12.8974 0.124023 18.6346 0.124023ZM10.0291 0.913945C7.32383 0.913945 4.61853 0.913945 1.91323 0.913945C1.19864 0.913945 0.914782 1.19708 0.914782 1.90894C0.914782 5.99671 0.914782 10.0839 0.914782 14.1716C0.914782 14.241 0.912303 14.311 0.916642 14.3804C0.945771 14.8401 1.27053 15.1493 1.73226 15.1536C2.07251 15.1567 2.41215 15.1536 2.7524 15.1548C3.16269 15.1555 3.29098 15.2825 3.2916 15.6951C3.29284 16.63 3.29346 17.5649 3.29098 18.4998C3.29036 18.7383 3.34056 18.9496 3.57608 19.0617C3.80167 19.1689 3.98637 19.0797 4.17044 18.9378C5.73102 17.7359 7.29656 16.5408 8.85652 15.3376C9.02572 15.2069 9.19678 15.1517 9.40936 15.1517C12.3465 15.1561 15.2835 15.1548 18.2213 15.1548C18.82 15.1548 19.1156 14.8606 19.1181 14.2596C19.1205 13.7571 19.1187 13.2553 19.1187 12.7529C19.1187 9.12913 19.1187 5.50541 19.1187 1.88106C19.1187 1.69581 19.1255 1.50871 19.0301 1.33895C18.8509 1.01989 18.5652 0.912706 18.2151 0.913326C15.4862 0.915185 12.758 0.913945 10.0291 0.913945ZM5.35978 19.032C5.53145 19.1286 5.68702 19.1107 5.83824 19.1113C8.7524 19.1125 11.6659 19.1131 14.5801 19.11C14.7797 19.11 14.9544 19.1453 15.1187 19.273C15.9238 19.8987 16.7351 20.5164 17.5439 21.1372C18.3285 21.7388 19.1106 22.3434 19.8984 22.9413C20.2522 23.2102 20.6576 23.0274 20.7034 22.5869C20.7115 22.5101 20.7084 22.4327 20.7084 22.3552C20.709 21.4358 20.7065 20.5164 20.7096 19.597C20.7109 19.2562 20.8478 19.1199 21.1893 19.1138C21.5215 19.1076 21.8544 19.1144 22.1866 19.1119C22.7797 19.1076 23.0858 18.8021 23.0858 18.2104C23.0865 14.0688 23.0865 9.92773 23.0858 5.78606C23.0858 5.19006 22.7828 4.884 22.1909 4.88152C21.5339 4.87842 20.877 4.87966 20.22 4.88152C19.881 4.88276 19.9275 4.85364 19.9275 5.18262C19.9262 8.21159 19.9262 11.2399 19.9275 14.2689C19.9275 14.8469 19.7205 15.3215 19.247 15.6672C18.9266 15.9008 18.5597 15.9596 18.1723 15.959C15.3356 15.9565 12.4989 15.9603 9.66223 15.9528C9.44593 15.9522 9.28293 16.0154 9.11683 16.1449C8.28819 16.7898 7.45212 17.4261 6.61915 18.0661C6.20453 18.3833 5.79052 18.7018 5.35978 19.032Z" fill="#EC7938"/>
<path d="M10.0056 10.1418C9.08584 10.1418 8.32476 9.39397 8.30865 8.47395C8.29191 7.55144 9.03874 6.75099 9.93865 6.72621C9.956 6.72559 9.97335 6.72559 9.99071 6.72559C10.9445 6.72559 11.7112 7.46223 11.7354 8.40332C11.7471 8.84691 11.5817 9.27192 11.2693 9.59966C10.947 9.93794 10.5126 10.13 10.0446 10.1411C10.0316 10.1418 10.0186 10.1418 10.0056 10.1418ZM10.0192 7.76766C9.66099 7.76766 9.35854 8.07496 9.35792 8.43801C9.3573 8.79797 9.65107 9.09163 10.013 9.09349C10.1983 9.09349 10.3663 9.02596 10.4884 8.90267C10.6105 8.78 10.6774 8.61273 10.6768 8.4312C10.6756 8.07 10.3836 7.77262 10.0267 7.76766H10.0192Z" fill="#EC7938"/>
<path d="M10.0415 10.0176C9.18252 10.038 8.44747 9.33171 8.4326 8.47178C8.4171 7.61247 9.10567 6.87335 9.94174 6.84981C10.8559 6.82441 11.5879 7.50715 11.6114 8.40611C11.6337 9.27038 10.9253 9.99711 10.0415 10.0176ZM10.8007 8.43089C10.7989 7.99969 10.4555 7.64964 10.0285 7.64407C9.59777 7.63849 9.23458 8.00154 9.23396 8.43833C9.23334 8.86395 9.58475 9.21586 10.0124 9.21772C10.4586 9.21957 10.8026 8.87634 10.8007 8.43089Z" fill="#EC7938"/>
<path d="M5.66966 10.1427C4.72327 10.1427 3.95228 9.37822 3.95042 8.43899C3.9498 7.98548 4.12767 7.55676 4.45181 7.23149C4.77719 6.90561 5.20731 6.72656 5.66346 6.72656C6.12643 6.7278 6.55841 6.90871 6.88379 7.23583C7.20669 7.56109 7.38395 7.9892 7.38209 8.44209C7.37837 9.37636 6.61357 10.139 5.67648 10.1427H5.66966ZM5.6647 7.76864C5.30896 7.76864 5.01518 8.06231 5.01023 8.4235C5.00775 8.60689 5.07344 8.77602 5.19616 8.90117C5.31763 9.02508 5.48497 9.09385 5.66594 9.09447C6.03223 9.09447 6.31918 8.8101 6.32228 8.44704C6.32414 8.2618 6.25535 8.08956 6.12891 7.96194C6.00682 7.83803 5.84258 7.76988 5.66656 7.76926L5.66408 7.64535V7.76864H5.6647Z" fill="#EC7938"/>
<path d="M5.66718 6.8501C6.54416 6.85196 7.26123 7.57001 7.25814 8.4411C7.25504 9.30227 6.53982 10.0147 5.67586 10.0185C4.79641 10.0216 4.07623 9.31094 4.07437 8.438C4.07313 7.56568 4.79269 6.84824 5.66718 6.8501ZM6.44624 8.44667C6.44995 8.00122 6.10474 7.6456 5.66718 7.64374C5.24016 7.6425 4.89247 7.98821 4.88627 8.42065C4.87945 8.86735 5.22033 9.21553 5.66532 9.21677C6.09916 9.21925 6.44252 8.88036 6.44624 8.44667Z" fill="#EC7938"/>
<path d="M14.3781 10.1427C13.436 10.1427 12.6687 9.37698 12.6669 8.43651C12.6663 7.97867 12.8429 7.54932 13.1645 7.22716C13.4868 6.90437 13.9182 6.72656 14.3787 6.72656C14.8379 6.72656 15.268 6.90499 15.5897 7.22963C15.912 7.55428 16.0874 7.98548 16.0837 8.44457C16.0769 9.37822 15.3145 10.1403 14.3836 10.1434H14.3781V10.1427ZM14.3694 7.76802C14.2002 7.76802 14.0297 7.84299 13.9021 7.97309C13.7756 8.10258 13.705 8.27233 13.7087 8.43961C13.7168 8.79895 14.0149 9.09199 14.3731 9.09261C14.5553 9.09261 14.722 9.02446 14.8454 8.90055C14.9687 8.77602 15.0363 8.60751 15.0344 8.42536C15.0319 8.06664 14.7363 7.77174 14.3756 7.7674L14.3694 7.76802Z" fill="#EC7938"/>
<path d="M14.3787 6.84961C15.2588 6.84961 15.9659 7.56271 15.9591 8.44308C15.9529 9.31602 15.2526 10.0161 14.383 10.0186C13.5011 10.0211 12.7921 9.31664 12.7908 8.43565C12.7896 7.55589 13.4967 6.84961 14.3787 6.84961ZM15.1584 8.4245C15.1553 7.99887 14.8038 7.6482 14.3768 7.64387C13.951 7.63953 13.5755 8.01807 13.5848 8.44246C13.5947 8.87057 13.9455 9.21566 14.3725 9.2169C14.8169 9.21752 15.1621 8.86995 15.1584 8.4245Z" fill="#EC7938"/>
</g>
<defs>
<clipPath id="clip0_107_54">
<rect width="24" height="24" fill="white"/>
</clipPath>
</defs>
</svg>
