<svg width="23" height="23" viewBox="0 0 23 23" fill="none" xmlns="http://www.w3.org/2000/svg">
<g clip-path="url(#clip0_107_73)">
<path d="M19.1068 23C15.1577 22.9951 11.1428 22.9951 7.25953 22.9945C5.69678 22.9945 4.13402 22.9945 2.57127 22.9939C1.13079 22.9933 0.00185692 21.8817 0.00123629 20.463C-0.00124624 14.8284 -0.00124624 9.02707 0.00123629 3.22023C0.00247755 1.76056 0.963216 0.511683 2.39315 0.113367C2.49928 0.0839528 2.60541 0.0582154 2.71836 0.0312525C2.76119 0.020835 2.80339 0.0110303 2.84621 0H19.1055L19.1049 0.98476C19.1043 2.65585 19.1043 4.38393 19.0987 6.08259C19.0981 6.31913 19.2172 6.44782 19.3457 6.55199C21.207 8.05518 21.6129 10.673 20.2897 12.6419C20.0489 13.0004 20.1991 13.2253 20.3772 13.3987C20.8371 13.8455 21.3013 14.3038 21.7507 14.7469C22.159 15.1501 22.5811 15.5668 23 15.9743C22.7778 16.1772 22.5587 16.3929 22.349 16.6159C21.5527 15.8211 20.7384 15.0196 19.9508 14.2444L19.7404 14.0373C19.7299 14.0275 19.7206 14.0158 19.7106 14.0048C19.6591 13.946 19.5803 13.8571 19.4432 13.8173L19.2483 13.7609L19.1533 13.938C19.0875 14.0612 19.0956 14.1776 19.1006 14.2548C19.1018 14.2695 19.103 14.2842 19.103 14.2989L19.1018 15.0999C19.0999 16.3261 19.0981 17.5939 19.1074 18.841C19.1074 18.8502 19.1074 18.8587 19.1074 18.8661C19.1006 18.8661 19.0931 18.8655 19.0857 18.8649C18.9839 18.8587 18.874 18.8557 18.7394 18.8557C18.6655 18.8557 18.5916 18.8563 18.5184 18.8575C18.4464 18.8581 18.3744 18.8594 18.3031 18.8594C18.2515 18.8594 18.2 18.8587 18.1485 18.8575H18.1224C18.0672 18.8575 17.9207 18.8575 17.8121 18.966C17.701 19.0763 17.7029 19.227 17.7029 19.2767C17.7097 20.0194 17.7104 20.8056 17.7035 21.68C17.7029 21.7683 17.7135 21.8976 17.814 21.9975C17.9238 22.1065 18.0728 22.1065 18.1218 22.1065H18.1442C18.2391 22.1041 18.3434 22.1029 18.4731 22.1029C18.5401 22.1029 18.8101 22.1041 18.8778 22.1041C18.9529 22.1041 19.028 22.1035 19.103 22.1029C19.0962 22.4031 19.0925 22.6985 19.1068 23ZM2.60727 18.8606C2.00774 18.8606 1.54661 19.0787 1.23754 19.5095C0.853364 20.0445 0.808679 20.6407 1.10782 21.2339C1.39393 21.8014 1.92706 22.1016 2.65009 22.1023C4.75404 22.1041 6.85798 22.1041 8.96254 22.1047C11.4171 22.1053 13.8717 22.1053 16.3263 22.1084C16.4263 22.1084 16.5702 22.0961 16.677 21.9895C16.7825 21.8847 16.7943 21.7462 16.7931 21.6378C16.7881 21.1696 16.7887 20.6934 16.7893 20.2326C16.7893 19.9605 16.79 19.6885 16.7893 19.4158C16.7893 19.3845 16.7893 19.3563 16.7893 19.3306C16.7906 19.1756 16.7912 19.0536 16.6913 18.9543C16.5957 18.8587 16.4691 18.8587 16.4083 18.8587C16.3884 18.8587 16.3661 18.8594 16.3406 18.86C16.3114 18.8606 16.2779 18.8612 16.2388 18.8612C15.0547 18.8606 13.8724 18.86 12.6907 18.86L2.60727 18.8606ZM1.40014 9.17966C1.29587 9.17966 1.14506 9.19252 1.03335 9.30344C0.919772 9.41619 0.906738 9.56817 0.907359 9.68766C0.915427 10.7018 0.914186 11.7338 0.913565 12.7314C0.912945 13.0684 0.912945 13.4055 0.912945 13.7431V17.7772L0.913565 17.8384C0.913565 17.8703 0.914186 17.9022 0.913565 17.9334C0.912324 18.007 0.920392 18.1148 1.0048 18.1994C1.05941 18.2539 1.13265 18.2839 1.21209 18.2839C1.27229 18.2839 1.33373 18.2668 1.40014 18.2312C1.77066 18.0345 2.19145 17.9469 2.76367 17.9469C2.84745 17.9469 2.93496 17.9487 3.03116 17.9524C3.04295 17.953 3.05475 17.953 3.06592 17.953C3.11619 17.953 3.26824 17.953 3.38182 17.8409C3.48671 17.7373 3.4985 17.5976 3.4985 17.502C3.49415 14.9693 3.49353 12.3165 3.4985 9.6178C3.4985 9.5265 3.48733 9.39291 3.38492 9.29241C3.28438 9.19252 3.15343 9.18149 3.06405 9.18149H3.04978C2.70161 9.1864 2.4366 9.18885 2.19083 9.18885C1.91713 9.18885 1.66949 9.18578 1.43552 9.17966C1.42248 9.18027 1.41131 9.17966 1.40014 9.17966ZM4.9365 0.885487C4.80369 0.885487 4.65287 0.900807 4.5393 1.01295C4.42634 1.12509 4.41145 1.27584 4.41145 1.40881C4.41765 3.53705 4.41765 5.70082 4.41703 7.79352V10.8152C4.41703 13.0298 4.41703 15.2451 4.41517 17.4597V17.4714C4.41517 17.578 4.41455 17.7238 4.52937 17.8372C4.64853 17.9549 4.81672 17.9549 4.87196 17.9549C7.00072 17.9518 9.22072 17.95 11.6592 17.95C13.6862 17.95 15.7119 17.9512 17.7389 17.953C17.8363 17.953 17.9766 17.9408 18.0821 17.836C18.187 17.7312 18.1982 17.5933 18.1975 17.4983C18.1901 16.5798 18.1907 15.7335 18.1982 14.9111C18.1988 14.821 18.1889 14.6899 18.0927 14.5943C18.0498 14.5514 17.9735 14.5005 17.855 14.5005C17.7904 14.5005 17.729 14.5159 17.6775 14.5306C17.2815 14.6439 16.865 14.7015 16.4393 14.7015C16.2115 14.7015 15.9757 14.685 15.7374 14.6525C14.5253 14.4877 13.4038 13.8234 12.659 12.8307C11.918 11.8422 11.6157 10.6522 11.8069 9.4787C11.9838 8.39528 12.5324 7.39704 13.3535 6.66843C14.1907 5.92511 15.2607 5.51515 16.3661 5.51515C16.7906 5.51515 17.2225 5.57459 17.6502 5.69163C17.7277 5.71308 17.7867 5.72227 17.8413 5.72227C17.9661 5.72227 18.0449 5.67018 18.0889 5.62606C18.1982 5.5176 18.1975 5.36072 18.1975 5.27677C18.1913 3.83977 18.1889 2.63134 18.2 1.40452C18.2013 1.28197 18.1876 1.12754 18.0728 1.01295C17.9592 0.899582 17.8041 0.884262 17.6675 0.884262C15.5419 0.887326 13.4212 0.889164 11.3631 0.889164C9.20086 0.889164 7.0392 0.887326 4.93836 0.883649H4.9365V0.885487ZM16.4163 6.42882C15.4097 6.42882 14.4688 6.80998 13.7675 7.50244C13.0655 8.1949 12.6795 9.12328 12.6801 10.116C12.6807 12.1493 14.3478 13.8063 16.3959 13.8093C17.4106 13.8093 18.3577 13.4214 19.0689 12.7173C19.7752 12.0175 20.1618 11.0897 20.1587 10.105C20.1519 8.0803 18.475 6.43127 16.4207 6.42944H16.4163V6.42882ZM2.70595 8.28681C2.84187 8.28681 2.95296 8.28804 3.05537 8.2911C3.06343 8.2911 3.0715 8.29172 3.07895 8.29172C3.12798 8.29172 3.27693 8.29172 3.38865 8.17896C3.50222 8.06437 3.4985 7.90872 3.49726 7.85786C3.48919 7.52082 3.48919 7.17827 3.49726 6.84062C3.4985 6.79221 3.5016 6.64636 3.39237 6.53606C3.29431 6.43679 3.16646 6.42576 3.07895 6.42576H3.07088C2.78105 6.42821 2.49183 6.42944 2.202 6.42944C1.91402 6.42944 1.62605 6.42821 1.3387 6.42576H1.33063C1.28036 6.42576 1.12768 6.42576 1.01783 6.53667C0.90798 6.64759 0.910462 6.79466 0.911703 6.84246C0.919151 7.20278 0.919151 7.53553 0.911703 7.86092C0.910462 7.91117 0.906738 8.06376 1.02031 8.17896C1.13265 8.29233 1.28408 8.29233 1.33435 8.29233H1.35732C1.46034 8.28927 1.57206 8.28804 1.70922 8.28804C1.79176 8.28804 1.8743 8.28865 1.95685 8.28865C2.04063 8.28927 2.1238 8.28927 2.20758 8.28927C2.29137 8.28927 2.37515 8.28865 2.45894 8.28804C2.54024 8.28743 2.62279 8.28681 2.70595 8.28681ZM2.25413 5.51331C2.54459 5.51331 2.80277 5.51515 3.04295 5.51944H3.05909C3.11122 5.51944 3.26948 5.51944 3.3843 5.40484C3.50036 5.28903 3.4985 5.12847 3.49788 5.05984C3.49229 4.60944 3.49353 4.15107 3.49415 3.7074C3.49415 3.54134 3.49477 3.37466 3.49477 3.20798V2.73858C3.49477 2.26918 3.49477 1.79978 3.49415 1.33038C3.49415 1.32118 3.49477 1.3126 3.49477 1.30341C3.49726 1.23417 3.5016 1.10548 3.40044 1.00192C3.33217 0.93206 3.23783 0.896518 3.12053 0.896518C3.11122 0.896518 3.10129 0.896518 3.09136 0.897131C2.00277 0.946767 1.01597 1.88802 0.936529 2.95305C0.903015 3.39978 0.907359 3.84896 0.912324 4.28343C0.914807 4.54938 0.91791 4.82514 0.911703 5.09354C0.910462 5.14257 0.907359 5.29086 1.01845 5.40362C1.13017 5.51637 1.28222 5.51637 1.34739 5.51637H1.35794C1.65584 5.51515 1.95561 5.51331 2.25413 5.51331Z" fill="#EC7938"/>
<path d="M9.30451 6.42931C8.82786 6.42686 8.34067 6.42563 7.81934 6.42563C7.31352 6.42563 6.80708 6.42686 6.30127 6.4287C6.30748 6.12046 6.30748 5.81345 6.30127 5.5138C6.52532 5.51563 6.74999 5.51625 6.97403 5.51625C7.11616 5.51625 7.6828 5.51563 7.8243 5.51563C7.96456 5.51563 8.10483 5.51563 8.24447 5.51625C8.38473 5.51625 8.52561 5.51686 8.66588 5.51686C8.91351 5.51686 9.11832 5.51563 9.30513 5.51318C9.2952 5.84532 9.29892 6.16949 9.30451 6.42931Z" fill="#EC7938"/>
<path d="M6.30065 3.6606C6.3081 3.31805 6.30748 3.02697 6.30003 2.75305C6.49181 2.75612 6.70158 2.75796 6.95604 2.75796C7.10251 2.75796 7.24898 2.75734 7.39607 2.75673C7.54192 2.75612 7.68839 2.75612 7.83424 2.75612C7.97574 2.75612 8.11724 2.75673 8.25875 2.75734C8.40087 2.75796 8.543 2.75857 8.68574 2.75857C8.92593 2.75857 9.12453 2.75673 9.30637 2.75244C9.29644 3.04168 9.29769 3.32847 9.30451 3.6606C8.80801 3.65876 8.31212 3.65754 7.81624 3.65754C7.31042 3.65754 6.80585 3.65876 6.30065 3.6606Z" fill="#EC7938"/>
</g>
<defs>
<clipPath id="clip0_107_73">
<rect width="23" height="23" fill="white"/>
</clipPath>
</defs>
</svg>
