<svg width="23" height="25" viewBox="0 0 23 25" fill="none" xmlns="http://www.w3.org/2000/svg">
<g clip-path="url(#clip0_107_16)">
<path d="M5.10531 0C5.66669 0.131771 6.06292 0.485336 6.45498 0.859774C7.51737 1.8748 8.59434 2.87679 9.66436 3.88464C10.5429 4.71115 10.5422 5.66747 9.66159 6.49854C9.08147 7.0465 8.49719 7.59054 7.91707 8.1385C7.63326 8.40661 7.62493 8.55599 7.86433 8.85933C9.43745 10.8535 11.284 12.5913 13.406 14.0702C13.7321 14.2972 13.9049 14.288 14.1957 14.016C14.7841 13.4648 15.3705 12.911 15.9589 12.3591C16.775 11.5946 17.8568 11.59 18.677 12.3565C19.874 13.4752 21.0676 14.5972 22.2583 15.7225C23.0744 16.4936 23.0681 17.4747 22.25 18.2484C21.7372 18.733 21.2272 19.2203 20.7033 19.6939C20.5561 19.827 20.5735 19.8909 20.7151 20.0116C21.2355 20.4532 21.7448 20.9066 22.2549 21.3587C22.9189 21.9477 23.1521 22.6718 22.9044 23.4905C22.6559 24.3111 22.0453 24.803 21.1515 24.9713C21.0343 24.9935 20.9107 24.998 20.7907 24.9987C14.4545 25 8.11761 25.0007 1.78143 24.9993C0.890431 24.9993 0.127118 24.3888 0.0188667 23.6007C-0.104651 22.7012 0.432443 21.9366 1.34426 21.7129C1.5559 21.6614 1.7724 21.6607 1.98821 21.6607C3.79726 21.6601 5.60632 21.6614 7.41606 21.6594C7.93789 21.6587 8.27375 21.4435 8.38478 21.0482C8.53189 20.5256 8.14815 20.026 7.57289 20.0129C7.03649 20.0005 6.49939 20.009 5.96299 20.0083C5.05396 20.0083 4.14492 20.0103 3.23588 20.0077C2.07218 20.0044 1.32066 19.296 1.31927 18.204C1.31858 17.5693 1.3165 16.9346 1.32066 16.2998C1.32274 16.0154 1.50386 15.8289 1.76338 15.8249C2.02638 15.821 2.19917 15.9972 2.21651 16.2881C2.22068 16.3533 2.2186 16.4186 2.2186 16.4831C2.2186 17.0526 2.21721 17.6221 2.21929 18.1923C2.22206 18.8439 2.54682 19.1525 3.23311 19.1531C4.64385 19.1544 6.05528 19.1505 7.46602 19.1551C8.34661 19.1577 9.05857 19.6633 9.25703 20.4121C9.54223 21.4878 8.70328 22.5009 7.51182 22.5042C5.65073 22.51 3.78963 22.5055 1.92854 22.5068C1.80779 22.5068 1.68358 22.5035 1.5677 22.5283C1.1569 22.6177 0.889737 22.9497 0.893901 23.3463C0.898064 23.7299 1.16453 24.0443 1.57117 24.1337C1.67942 24.1578 1.79322 24.1676 1.90494 24.1676C8.14607 24.1689 14.3872 24.1696 20.629 24.1683C21.3819 24.1683 21.9003 23.8186 22.0599 23.2002C22.1723 22.7638 22.0613 22.3652 21.7254 22.0541C21.171 21.54 20.5915 21.0501 20.0246 20.5472C19.9517 20.4826 19.9011 20.4552 19.8123 20.5361C18.7027 21.5439 17.3828 21.634 15.9714 21.3006C14.4552 20.9425 13.1222 20.2256 11.8551 19.3952C9.06135 17.5641 6.64928 15.3383 4.3982 12.9521C3.15053 11.6291 2.01111 10.2273 1.11942 8.66298C0.605923 7.76406 0.189571 6.82992 0.0480113 5.80772C-0.114366 4.63743 0.158345 3.59892 1.08612 2.75023C1.75575 2.13704 2.41567 1.51406 3.06865 0.885215C3.4628 0.504905 3.86249 0.140252 4.43012 0C4.65564 0 4.88048 0 5.10531 0ZM17.2385 20.6196C18.0546 20.6424 18.7443 20.3815 19.3106 19.8263C19.6221 19.5211 19.9372 19.2184 20.2675 18.9313C20.4264 18.7937 20.4243 18.718 20.2689 18.5739C18.8366 17.2398 17.4141 15.896 15.9874 14.5568C15.8104 14.3911 15.6383 14.1191 15.4426 14.1015C15.2372 14.0826 15.088 14.3931 14.9007 14.5464C14.8681 14.5731 14.8389 14.6038 14.8084 14.6325C14.2144 15.1857 13.5441 15.2254 12.8772 14.7512C12.0973 14.1961 11.345 13.6096 10.6164 12.9964C9.28271 11.8738 8.1308 10.5971 7.06355 9.25138C6.65622 8.73734 6.72561 8.08566 7.19886 7.62577C7.39108 7.43855 7.58538 7.25263 7.78731 7.07455C7.88654 6.98779 7.88307 6.93299 7.78731 6.84297C6.19337 5.34913 4.60221 3.85333 3.01452 2.35492C2.91876 2.26425 2.86464 2.2662 2.77234 2.35557C2.37403 2.74045 1.96393 3.11424 1.5677 3.50042C1.28041 3.78027 1.09791 4.11883 0.994519 4.49653C0.774546 5.30346 0.945251 6.07974 1.22629 6.83906C1.73146 8.20504 2.55584 9.40664 3.47529 10.5515C5.34887 12.8862 7.52084 14.958 9.86213 16.8758C11.175 17.9515 12.5559 18.9431 14.1013 19.7115C15.0839 20.2001 16.1019 20.5968 17.2385 20.6196ZM4.73683 0.825853C4.62095 0.817373 4.48702 0.852599 4.36697 0.919137C4.05679 1.09135 3.84931 1.37055 3.58839 1.5943C3.52039 1.65301 3.57105 1.69411 3.61407 1.7352C3.72371 1.83958 3.83404 1.94265 3.94368 2.04572C5.41063 3.4254 6.88105 4.80182 8.34106 6.18868C8.5069 6.34654 8.59711 6.34328 8.73867 6.1815C8.87538 6.0256 9.04747 5.89709 9.18972 5.74379C9.50823 5.40066 9.50962 4.94142 9.17029 4.61917C7.91707 3.42997 6.65483 2.24859 5.39467 1.06526C5.22119 0.902828 5.01024 0.81933 4.73683 0.825853ZM17.2989 12.6311C17.0609 12.6259 16.8527 12.7114 16.6785 12.8731C16.5307 13.0101 16.3933 13.1589 16.2351 13.2841C16.0894 13.3996 16.0873 13.4707 16.2295 13.6031C17.6556 14.9325 19.0718 16.2711 20.4951 17.6025C20.688 17.7832 20.8656 18.1153 21.0905 18.0924C21.307 18.0703 21.4978 17.7715 21.6886 17.5836C22.0571 17.2222 22.0613 16.7376 21.6879 16.384C20.4493 15.2124 19.2044 14.0467 17.9616 12.8784C17.7818 12.7087 17.5653 12.6226 17.2989 12.6311Z" fill="#EC7938"/>
<path d="M19.0717 3.7282C19.0606 3.87236 19.0009 3.97739 18.9059 4.06676C17.8907 5.02112 16.8775 5.97679 15.8589 6.92724C15.6417 7.13011 15.378 7.12424 15.1941 6.93898C15.022 6.76546 15.031 6.52214 15.2343 6.33035C16.2468 5.37403 17.2634 4.42098 18.2786 3.46727C18.4264 3.32832 18.5978 3.27744 18.7976 3.36028C18.9746 3.43334 19.0495 3.57229 19.0717 3.7282Z" fill="#EC7938"/>
<path d="M14.1928 3.52571C14.1928 4.12651 14.1941 4.72731 14.1921 5.32876C14.1907 5.63861 14.0255 5.81605 13.7466 5.81605C13.4676 5.81605 13.3052 5.64449 13.3045 5.32876C13.3018 4.12716 13.3018 2.92491 13.3045 1.72331C13.3052 1.41867 13.4822 1.22689 13.7466 1.22754C14.0096 1.22819 14.1914 1.42585 14.1928 1.72266C14.1948 2.32411 14.1928 2.92491 14.1928 3.52571Z" fill="#EC7938"/>
<path d="M18.8413 8.73937C18.2022 8.73937 17.5631 8.74068 16.9233 8.73872C16.602 8.73741 16.4022 8.57172 16.405 8.31731C16.4077 8.07203 16.6007 7.90765 16.9088 7.90699C18.2043 7.90438 19.5006 7.90373 20.7961 7.90699C21.0945 7.90765 21.2971 8.08834 21.2923 8.32775C21.2874 8.56911 21.0855 8.73741 20.7843 8.73872C20.1369 8.74133 19.4888 8.73937 18.8413 8.73937Z" fill="#EC7938"/>
</g>
<defs>
<clipPath id="clip0_107_16">
<rect width="23" height="25" fill="white"/>
</clipPath>
</defs>
</svg>
