<svg width="538" height="377" viewBox="0 0 538 377" fill="none" xmlns="http://www.w3.org/2000/svg">
<g clip-path="url(#clip0_47_56)">
<path d="M228.054 72.4964C210.168 7.73505 129.569 -13.1242 83.369 35.2725C82.7057 35.9694 82.0423 36.6779 81.379 37.398C15.1516 109.244 46.4441 286.292 184.648 331.17C322.851 376.048 466.606 294.097 474.682 220.846C482.758 147.594 418.998 124.575 320.047 145.062C264.153 156.63 239.191 112.81 228.054 72.4964Z" fill="#D7DEF7"/>
<path d="M343.03 83.5765C324.539 86.5846 319.418 102.926 333.697 114.529C338.422 118.361 345.16 121.544 354.76 123.135C391.336 129.186 410.747 113.042 396.084 92.1014C387.019 79.1747 361.347 80.5916 343.03 83.5765Z" fill="#D7DEF7"/>
<path d="M56.8478 215.91C47.7707 199.557 30.6175 200.265 24.4963 217.594C22.4714 223.32 21.7499 230.73 23.4955 240.288C30.1404 276.688 51.9252 289.463 66.7161 268.627C75.8513 255.759 65.8433 232.123 56.8478 215.91Z" fill="#D7DEF7"/>
<path d="M487.727 229.359C486.028 238.255 493.383 244.562 501.727 241.136C504.485 239.997 507.266 237.814 509.745 233.97C519.171 219.336 514.4 206.781 501.273 208.07C493.173 208.86 489.415 220.532 487.727 229.359Z" fill="#D7DEF7"/>
<path d="M440.981 135.434C449.871 137.281 456.307 130.045 453.013 121.66C451.92 118.884 449.778 116.073 445.973 113.541C431.473 103.89 418.812 108.431 419.882 121.555C420.546 129.65 432.171 133.599 440.981 135.434Z" fill="#D7DEF7"/>
<path d="M224.971 40.1971C232.011 45.9229 241.065 42.4503 242.007 33.4956C242.322 30.534 241.717 27.0497 239.505 23.0544C231.08 7.81643 217.744 6.05105 212.647 18.188C209.481 25.6792 217.988 34.5177 224.971 40.1971Z" fill="#D7DEF7"/>
<path d="M506.382 359.811C509.431 360.322 512.619 359.462 514.749 357.221C516.134 355.757 517.076 353.957 517.076 352.226C517.076 352.203 517.076 352.18 517.076 352.157C517.041 339.741 532.321 340.566 537.22 325.386C542.131 310.206 522.744 308.928 511.665 318.301C503.705 325.037 494.151 315.63 482.572 323.481C472.517 330.299 478.115 347.093 461.637 341.843C456.377 340.159 451.663 341.785 447.684 344.758C443.11 348.185 440.119 352.993 438.886 358.219L440.201 359.149C472.704 379.044 487.355 356.64 506.382 359.811Z" fill="#5F84D6"/>
<path d="M474.17 359.148L517.274 331.541C517.856 331.17 518.019 330.403 517.646 329.834C517.274 329.253 516.506 329.091 515.936 329.462L469.585 359.16H474.17V359.148Z" fill="#224372"/>
<path d="M471.842 277.001C470.027 249.94 469.724 221.554 471.738 202.739C474.379 178.152 480.338 161.044 489.461 151.88C490.066 151.276 491.055 151.265 491.661 151.869C492.266 152.473 492.277 153.46 491.672 154.064C475.718 170.091 469.98 213.111 475.043 278.581L471.842 277.001Z" fill="#224372"/>
<path d="M475.927 181.02C475.927 181.02 462.94 180.997 463.859 158.198C463.859 158.21 483.736 163.866 475.927 181.02Z" fill="#224372"/>
<path d="M474.833 192.751C474.833 192.751 474.135 179.801 496.99 179.464C496.99 179.452 492.429 199.58 474.833 192.751Z" fill="#224372"/>
<path d="M484.771 160.777C484.771 160.777 479.779 148.802 501.215 140.87C501.215 140.87 503.647 161.357 484.771 160.777Z" fill="#224372"/>
<path d="M471.912 216.27C471.912 216.27 459.682 220.637 452.827 198.871C452.827 198.871 473.46 197.489 471.912 216.27Z" fill="#224372"/>
<path d="M472.622 228.395C472.622 228.395 469.689 215.758 492.138 211.484C492.138 211.473 491.137 232.077 472.622 228.395Z" fill="#224372"/>
<path d="M471.936 245.073C471.936 245.073 459.786 249.672 452.525 228.035C452.525 228.035 473.123 226.269 471.936 245.073Z" fill="#224372"/>
<path d="M94.9131 337.325L91.3754 337.186L89.5018 337.116L84.1836 336.907C84.1836 336.907 35.028 253.621 65.8201 226.467C75.3044 218.105 91.8758 225.038 88.2101 263.47C84.812 299.08 94.9131 337.325 94.9131 337.325Z" fill="#224372"/>
<path d="M91.3754 337.186L89.5018 337.116C80.9252 316.942 76.5845 295.258 74.4432 280.044C71.8947 261.972 71.7667 248.859 71.7667 248.732C71.7667 248.267 72.1391 247.884 72.6045 247.884C73.07 247.884 73.4541 248.255 73.4657 248.72C73.4657 248.848 73.5821 261.879 76.1306 279.835C78.2835 295.119 82.6591 316.966 91.3754 337.186Z" fill="#224372"/>
<path d="M104.677 354.004L99.8705 355.781L97.322 356.721L90.0953 359.393C90.0953 359.393 -22.0758 275.445 3.89844 222.03C11.8932 205.585 37.914 205.631 54.4738 259.022C69.8233 308.522 104.677 354.004 104.677 354.004Z" fill="#5F84D6"/>
<path d="M99.8705 355.792L97.322 356.733C74.5945 334.538 56.6965 307.988 45.3269 288.847C31.8277 266.13 24.345 248.662 24.2752 248.488C24.0075 247.861 24.2985 247.14 24.9269 246.885C25.5553 246.618 26.2768 246.908 26.5444 247.535C26.6143 247.71 34.0504 265.05 47.4682 287.639C58.8959 306.861 76.9452 333.632 99.8705 355.792Z" fill="#224372"/>
<path d="M488.123 358.754C488.065 356.814 487.844 354.863 487.413 352.924C483.375 334.503 494.349 331.019 508.814 325.2C523.279 319.382 525.001 302.099 514.749 287.733C504.508 273.366 522.907 261.821 516.134 240.195C509.361 218.581 485.819 232.96 480.663 252.89C476.963 267.222 458.145 264.121 451.175 282.704C445.123 298.836 465.407 313.737 441.981 321.135C434.499 323.493 430.356 329.23 428.191 335.932C425.701 343.655 426.19 351.669 429.029 358.742H488.123V358.754Z" fill="#224372"/>
<path d="M459.46 358.754L498.049 263.668C498.41 262.762 497.98 261.74 497.072 261.38C496.164 261.019 495.14 261.449 494.779 262.355L455.655 358.765H459.46V358.754Z" fill="#224372"/>
<path d="M137.889 71.2769C137.889 71.2769 138.704 54.1574 128.265 50.8706C112.02 45.7487 107.493 54.1574 104.991 59.7207C101.779 66.8402 103.152 80.8122 112.834 82.1595C127.311 84.1687 136.993 76.062 137.889 71.2769Z" fill="#403657"/>
<path d="M148.351 128.524C156.8 128.524 164.085 122.624 165.819 114.366C167.064 108.431 168.286 103.17 168.286 100.208V100.127C168.367 99.1978 168.402 98.2571 168.414 97.3395C168.53 83.8321 160.175 59.1633 130.826 63.0774C130.826 63.0774 106.469 65.8532 103.699 89.6044C103.699 89.6044 102.547 100.568 101.779 108.501C101.767 108.64 101.756 108.78 101.733 108.919C100.662 119.407 108.924 128.512 119.491 128.512H148.351V128.524Z" fill="#403657"/>
<path d="M183.205 156.758C183.205 156.758 188.395 197.792 194.318 218.86C194.318 218.86 202.744 214.946 213.764 209.627C225.715 203.866 242.904 193.343 242.904 193.343L247.244 203.785C247.244 203.785 202.848 245.596 188.15 247.965C173.441 250.335 164.434 197.792 164.434 197.792L183.205 156.758Z" fill="#224372"/>
<path d="M241.996 194.575C241.996 194.575 240.774 188.744 243.392 184.795C246.011 180.846 249.991 173.46 254.657 171.927C258.567 170.637 252.795 177.223 252.632 181.404C252.632 181.404 258.451 180.672 262.64 179.313C266.329 178.117 273.626 176.63 277.012 175.957C277.943 175.771 278.537 176.944 277.827 177.56C276.675 178.558 274.254 179.813 269.273 181.009C269.273 181.009 281.434 178.709 282.691 180.568C283.948 182.426 268.703 185.016 268.703 185.016C268.703 185.016 280.538 184.319 280.853 186.166C281.039 187.292 268.773 189.882 268.773 189.882C268.773 189.882 279.968 190.184 277.257 191.95C276.465 192.461 254.808 194.9 247.268 203.785C247.244 203.796 242.17 198.558 241.996 194.575Z" fill="#FFA681"/>
<path d="M108.354 148.674C108.354 148.674 83.5202 155.98 62.131 160.8C62.131 160.8 61.5725 151.543 61.0139 139.337C60.4087 126.096 61.5026 106.015 61.5026 106.015L50.2378 107.165C50.2378 107.165 34.5043 166.026 39.4152 180.056C44.3261 194.086 106.655 174.435 106.655 174.435L108.354 148.674Z" fill="#224372"/>
<path d="M60.8509 107.397C60.8509 107.397 66.5648 105.69 68.7992 101.52C71.0335 97.3508 77.2012 88.9537 73.3959 85.8411C72.011 84.7029 70.9986 89.6622 67.4027 91.7992C67.4027 91.7992 65.2731 86.3521 64.4817 82.02C63.7835 78.2105 61.619 71.0909 60.5949 67.8041C60.3156 66.8982 59.0006 66.933 58.8028 67.8505C58.4769 69.3371 58.5119 72.0549 59.8269 77.0026C59.8269 77.0026 56.068 65.2373 53.8337 65.0166C51.5994 64.796 56.5684 79.4184 56.5684 79.4184C56.5684 79.4184 51.5528 68.6984 49.7723 69.3023C48.6901 69.6856 52.251 81.6715 52.251 81.6715C52.251 81.6715 46.6652 71.9852 46.3975 75.2024C46.3161 76.1431 54.4854 96.3172 50.2378 107.165C50.2262 107.165 57.255 109.128 60.8509 107.397Z" fill="#FFA681"/>
<path d="M182.274 315.746L182.472 316.617C163.13 329.683 90.8052 320.764 90.8052 320.764C90.9332 319.254 91.0961 317.663 91.3056 316.025C91.5267 314.202 91.806 312.308 92.1318 310.357C93.0046 305.108 94.18 299.417 95.495 293.575C95.9139 291.739 96.3445 289.87 96.7867 287.988C98.0901 282.402 99.4865 276.745 100.802 271.24C101.255 269.347 101.698 267.477 102.14 265.619C102.745 263.041 103.315 260.497 103.862 258.046C104.572 254.771 105.212 251.635 105.747 248.674C106.108 246.676 106.422 244.771 106.655 242.959C106.934 241.043 107.121 239.231 107.237 237.547C106.085 233.308 105.014 229.15 104.013 225.12C103.513 223.064 103.024 221.066 102.547 219.08C101.058 212.727 99.7542 206.688 98.6137 201.032C98.2064 198.976 97.8108 196.978 97.45 195.027C96.1816 188.349 95.1691 182.31 94.3429 177.048C94.0287 174.946 93.7261 172.983 93.4701 171.137C93.1792 169.116 92.9348 167.246 92.7137 165.539C91.7478 158.071 91.4103 153.831 91.4103 153.831C91.5849 153.692 91.7594 153.564 91.9456 153.436C94.1451 151.88 97.5664 150.417 101.383 149.116C105.41 147.734 109.855 146.538 113.777 145.597C114.371 145.457 114.952 145.318 115.523 145.179C120.678 143.971 124.53 143.274 124.53 143.274C142.067 146.944 147.071 144.586 147.071 144.586L155.985 147.211L157.033 147.583L163.526 149.859L163.794 149.952L175.443 154.04L183.216 156.758L180.202 170.637L178.887 176.7L174.919 194.981L173.616 201.02L169.659 219.231L168.356 225.213L165.086 240.3L165.737 243.18L167.017 248.778L169.042 257.675L170.881 265.723L172.149 271.298L175.966 288.069L177.235 293.609L181.017 310.195L182.274 315.746Z" fill="#5F84D6"/>
<path d="M157.021 147.571C155.159 158.512 149.841 169.522 138.785 170.707C125.438 172.147 118.513 155.434 115.499 145.167C120.655 143.959 125.996 142.786 125.996 142.786C143.533 146.456 146.92 144.215 146.92 144.215L155.962 147.188L157.021 147.571Z" fill="#FFA681"/>
<path d="M137.424 161.52C123.436 161.52 120.084 144.273 120.049 144.098C119.98 143.727 120.224 143.367 120.608 143.297C120.98 143.227 121.341 143.471 121.411 143.843C121.539 144.54 124.716 160.811 138.238 160.115C150.073 159.522 150.772 146.41 150.795 145.852C150.807 145.469 151.132 145.179 151.517 145.19C151.901 145.202 152.191 145.527 152.18 145.91C152.168 146.061 151.412 160.835 138.32 161.497C138.006 161.508 137.715 161.52 137.424 161.52Z" fill="white"/>
<path d="M112.125 157.455C112.125 159.313 110.623 160.812 108.761 160.812C106.899 160.812 105.398 159.313 105.398 157.455C105.398 155.597 106.899 154.099 108.761 154.099C110.623 154.099 112.125 155.597 112.125 157.455Z" fill="white"/>
<path d="M105.387 173.843C105.387 175.701 103.885 177.199 102.023 177.199C100.161 177.199 98.6603 175.701 98.6603 173.843C98.6603 171.985 100.161 170.486 102.023 170.486C103.874 170.486 105.387 171.985 105.387 173.843Z" fill="white"/>
<path d="M126.869 181.589C126.869 183.448 125.368 184.946 123.506 184.946C121.644 184.946 120.143 183.448 120.143 181.589C120.143 179.731 121.644 178.233 123.506 178.233C125.368 178.233 126.869 179.731 126.869 181.589Z" fill="white"/>
<path d="M111.88 190.753C112.567 192.472 111.729 194.435 110.007 195.12C108.284 195.805 106.318 194.969 105.631 193.25C104.944 191.531 105.782 189.569 107.505 188.883C109.239 188.186 111.194 189.023 111.88 190.753Z" fill="white"/>
<path d="M141.055 196.955C141.055 198.813 139.553 200.312 137.692 200.312C135.83 200.312 134.328 198.813 134.328 196.955C134.328 195.097 135.83 193.599 137.692 193.599C139.553 193.599 141.055 195.097 141.055 196.955Z" fill="white"/>
<path d="M163.468 203.877C163.468 205.759 161.943 207.28 160.058 207.28C158.173 207.28 156.648 205.759 156.648 203.877C156.648 201.996 158.173 200.474 160.058 200.474C161.943 200.463 163.468 201.984 163.468 203.877Z" fill="white"/>
<path d="M167.855 160.173C167.855 162.054 166.331 163.587 164.445 163.587C162.56 163.587 161.036 162.066 161.036 160.173C161.036 158.291 162.56 156.77 164.445 156.77C166.331 156.77 167.855 158.291 167.855 160.173Z" fill="white"/>
<path d="M142.416 218.395C142.416 220.253 140.915 221.752 139.053 221.752C137.191 221.752 135.69 220.253 135.69 218.395C135.69 216.537 137.191 215.039 139.053 215.039C140.915 215.039 142.416 216.548 142.416 218.395Z" fill="white"/>
<path d="M121.69 228.813C121.69 230.671 120.189 232.17 118.327 232.17C116.465 232.17 114.964 230.671 114.964 228.813C114.964 226.955 116.465 225.457 118.327 225.457C120.177 225.457 121.69 226.955 121.69 228.813Z" fill="white"/>
<path d="M119.27 209.847C119.27 211.706 117.769 213.204 115.907 213.204C114.045 213.204 112.543 211.706 112.543 209.847C112.543 207.989 114.045 206.491 115.907 206.491C117.769 206.491 119.27 207.989 119.27 209.847Z" fill="white"/>
<path d="M152.424 182.472C152.424 184.331 150.923 185.829 149.061 185.829C147.199 185.829 145.698 184.331 145.698 182.472C145.698 180.614 147.199 179.116 149.061 179.116C150.911 179.104 152.424 180.614 152.424 182.472Z" fill="white"/>
<path d="M172.103 177.85C172.103 179.731 170.578 181.253 168.693 181.253C166.808 181.253 165.283 179.731 165.283 177.85C165.283 175.968 166.808 174.447 168.693 174.447C170.578 174.435 172.103 175.968 172.103 177.85Z" fill="white"/>
<path d="M160.058 224.249C160.058 226.13 158.534 227.652 156.648 227.652C154.763 227.652 153.239 226.13 153.239 224.249C153.239 222.367 154.763 220.846 156.648 220.846C158.522 220.846 160.058 222.367 160.058 224.249Z" fill="white"/>
<path d="M160.058 250.532C160.058 252.39 158.557 253.888 156.695 253.888C154.833 253.888 153.332 252.39 153.332 250.532C153.332 248.674 154.833 247.175 156.695 247.175C158.545 247.175 160.058 248.674 160.058 250.532Z" fill="white"/>
<path d="M142.928 239.44C143.615 241.159 142.777 243.122 141.055 243.807C139.332 244.493 137.366 243.656 136.679 241.937C135.992 240.218 136.83 238.256 138.553 237.57C140.275 236.885 142.242 237.721 142.928 239.44Z" fill="white"/>
<path d="M120.015 249.278C120.701 250.997 119.863 252.959 118.141 253.645C116.419 254.33 114.452 253.494 113.765 251.775C113.079 250.056 113.917 248.093 115.639 247.408C117.373 246.723 119.328 247.559 120.015 249.278Z" fill="white"/>
<path d="M189.512 358.731L188.802 354.48L186.044 338.011L185.101 332.366L182.471 316.617L177.689 316.838L114.277 319.707L90.8052 320.763L89.2923 333.017L88.5824 338.719L86.4994 355.63L86.1154 358.731H189.512Z" fill="#224372"/>
<path d="M189.5 358.731L188.849 354.898L188.79 354.491L188.337 351.774L187.883 349.091L186.021 337.999L185.486 334.724L185.078 332.366L185.02 332.018L182.623 317.651L182.46 316.629L182.25 315.746L182.064 314.968L180.994 310.218L178.864 300.926L178.247 298.267L177.2 293.621L175.931 288.058L175.07 284.248L174.453 281.589L172.114 271.31L171.253 267.547L170.846 265.723L170.66 264.887L169.019 257.663C143.242 265.259 115.942 260.752 103.827 258.035C103.292 260.474 102.698 263.029 102.105 265.607C101.965 266.176 101.837 266.734 101.698 267.303C101.488 268.186 101.267 269.08 101.058 269.963C100.976 270.392 100.871 270.799 100.767 271.229C99.7658 275.445 98.7185 279.742 97.6944 284.004C97.4849 284.887 97.2871 285.781 97.0776 286.641C96.9729 287.094 96.8681 287.523 96.7518 287.988C96.3212 289.87 95.8906 291.751 95.46 293.574C94.9247 296.013 94.4127 298.406 93.9239 300.775C93.7377 301.658 93.5515 302.517 93.3886 303.377C92.8999 305.769 92.4693 308.104 92.0969 310.357C91.771 312.32 91.5034 314.201 91.2939 316.048C91.2125 316.617 91.1543 317.175 91.0728 317.709C90.9914 318.626 90.8866 319.509 90.8052 320.392C90.8052 320.531 90.7819 320.636 90.7819 320.764L89.2807 333.005L89.0363 334.91L88.7105 337.569L88.5708 338.696L86.9067 352.099L86.5808 354.782L86.4761 355.641L86.1154 358.731H189.5Z" fill="#403657"/>
<path d="M158.313 101.776C158.313 101.776 162.502 96.4796 165.621 100.858C168.74 105.237 164.329 118.187 156.695 115.028L158.313 101.776Z" fill="#F97853"/>
<path d="M158.371 111.032C158.65 111.032 158.906 110.858 158.988 110.591C160.175 106.595 164.539 104.969 164.585 104.958C164.923 104.842 165.085 104.482 164.957 104.168C164.829 103.855 164.457 103.692 164.131 103.808C163.922 103.878 159.116 105.655 157.754 110.254C157.661 110.579 157.859 110.916 158.196 111.009C158.254 111.021 158.313 111.032 158.371 111.032Z" fill="#EA5143"/>
<path d="M162.781 109.011C162.898 109.011 163.026 108.977 163.13 108.918C163.433 108.733 163.514 108.361 163.328 108.071C163.293 108.024 162.525 106.909 160.908 106.224C160.582 106.085 160.198 106.224 160.058 106.538C159.907 106.851 160.058 107.211 160.384 107.351C161.629 107.885 162.246 108.744 162.246 108.744C162.362 108.918 162.56 109.011 162.781 109.011Z" fill="#EA5143"/>
<path d="M156.427 114.946C155.706 115.748 155.264 116.805 155.264 117.966C155.264 120.463 157.3 122.507 159.814 122.507C162.316 122.507 164.364 120.475 164.364 117.966C164.364 116.526 163.689 115.237 162.63 114.412C162.106 113.994 161.478 113.692 160.803 113.541C160.687 113.239 160.745 112.949 160.966 112.682C161.839 112.867 162.63 113.262 163.282 113.82C164.48 114.807 165.237 116.305 165.237 117.966C165.237 120.951 162.805 123.378 159.814 123.378C156.823 123.378 154.391 120.951 154.391 117.966C154.391 116.677 154.845 115.504 155.601 114.575C155.88 114.691 156.148 114.819 156.427 114.946Z" fill="white"/>
<path d="M125.996 128.86V144.749C125.996 144.749 133.397 150.44 139.158 150.939C144.918 151.439 146.92 144.656 146.92 144.656V129.871L125.996 128.86Z" fill="#FFA681"/>
<path d="M125.996 130.417V136.758C129.871 141.044 136.737 142.565 146.92 141.067V131.427L125.996 130.417Z" fill="#F97853"/>
<path d="M160.838 107.815C160.652 109.348 160.442 110.905 160.163 112.461C158.336 122.786 151.784 133.947 143.522 135.817C125.67 139.859 118.257 125.864 115.406 115.55C115.092 114.4 115.686 113.088 115.429 111.729C114.836 108.512 113.533 104.853 113.242 101.253C113.032 98.756 112.893 96.2937 112.788 94.0638C112.497 87.7921 116.139 82.0198 121.83 79.7666C130.034 76.5146 142.498 73.9362 154.298 80.8351C158.662 83.3902 161.396 88.1056 161.49 93.2856C161.571 97.2461 161.466 102.403 160.838 107.815Z" fill="#FFA681"/>
<path d="M138.204 115.806C137.866 115.806 137.575 115.562 137.517 115.225C137.459 114.854 137.703 114.494 138.087 114.424L140.473 114.029L137.191 105.307C137.051 104.947 137.238 104.552 137.598 104.412C137.959 104.285 138.355 104.459 138.494 104.819L142.37 115.109L138.332 115.783C138.273 115.806 138.238 115.806 138.204 115.806Z" fill="#F97853"/>
<path d="M146.745 104.273C146.745 105.794 147.537 107.037 148.502 107.037C149.468 107.037 150.26 105.806 150.26 104.273C150.26 102.74 149.468 101.509 148.502 101.509C147.525 101.509 146.745 102.74 146.745 104.273Z" fill="#403657"/>
<path d="M127.311 104.273C127.311 105.794 128.102 107.037 129.068 107.037C130.034 107.037 130.826 105.806 130.826 104.273C130.826 102.74 130.034 101.509 129.068 101.509C128.091 101.509 127.311 102.74 127.311 104.273Z" fill="#403657"/>
<path d="M153.669 97.0258C152.261 96.7471 149.399 96.2941 146.35 96.3987C145.547 96.4219 144.907 97.0258 145.023 97.6646V97.6762C145.116 98.1873 145.651 98.5241 146.291 98.4776C148.363 98.3266 153.797 98.3499 156.323 99.1048C156.392 98.7448 156.148 98.3499 155.787 98.0131C155.252 97.5136 154.496 97.1884 153.669 97.0258Z" fill="#403657"/>
<path d="M125.403 97.3624C126.811 97.0721 129.662 96.5726 132.711 96.6423C133.514 96.6539 134.165 97.2579 134.061 97.8967V97.9083C133.979 98.4193 133.444 98.7678 132.792 98.7329C130.709 98.6052 125.286 98.7097 122.773 99.4994C122.703 99.1394 122.936 98.7445 123.285 98.3961C123.82 97.8735 124.576 97.5366 125.403 97.3624Z" fill="#403657"/>
<path d="M146.745 119.929C146.233 122.357 144.523 126.816 138.774 126.816C133.002 126.816 131.384 122.74 130.837 119.929H146.745Z" fill="white"/>
<path d="M138.844 130.986C140.508 130.986 141.974 130.092 142.032 130.057C142.346 129.859 142.451 129.441 142.253 129.128C142.055 128.814 141.637 128.71 141.322 128.907C141.311 128.919 140.112 129.639 138.844 129.639C137.47 129.639 136.248 128.919 136.237 128.907C135.911 128.71 135.492 128.814 135.306 129.139C135.108 129.464 135.213 129.871 135.539 130.068C135.597 130.092 137.086 130.986 138.844 130.986Z" fill="#F97853"/>
<path d="M161.559 106.189C161.396 106.329 161.234 106.282 161.082 106.003C158.72 101.857 160.943 93.5762 153.96 90.4055C148.642 87.9897 146.734 83.0188 146.734 83.0188C145.523 85.0977 142.358 87.0025 142.358 87.0025C142.358 87.0025 134.328 91.7527 125.996 94.9583C123.517 95.9107 121.748 96.8746 120.515 97.7109C120.608 97.7341 120.666 97.7573 120.666 97.7573C120.666 97.7573 118.362 101.497 120.049 107.316C121.737 113.135 119.561 122.728 115.814 124.946C115.883 124.784 118.7 118.152 117.105 112.728C116.186 109.627 116.198 104.679 115.325 101.729C114.359 101.067 112.136 99.9524 111.391 99.5111C111.182 96.9676 111.019 94.4589 110.914 92.1825C110.612 85.783 114.452 79.9062 120.445 77.6065C129.092 74.2848 142.23 71.66 154.67 78.6983C159.267 81.2999 162.153 86.1082 162.258 91.3811C162.327 95.4112 162.223 100.673 161.559 106.189Z" fill="#403657"/>
<path d="M115.325 101.729C115.325 101.729 110.449 95.8293 107.574 100.08C104.7 104.343 108.948 117.385 115.988 114.319L115.325 101.729Z" fill="#FFA681"/>
<path d="M115.523 114.528C116.023 115.481 116.198 116.607 115.918 117.734C115.313 120.161 112.834 121.636 110.402 121.032C107.97 120.428 106.492 117.955 107.097 115.527C107.446 114.133 108.412 113.053 109.634 112.496C110.251 112.217 110.926 112.078 111.624 112.089C111.74 111.834 111.81 111.543 111.671 111.218C110.786 111.195 109.913 111.381 109.145 111.753C107.749 112.426 106.643 113.692 106.248 115.306C105.526 118.198 107.295 121.137 110.193 121.869C113.09 122.589 116.035 120.823 116.768 117.931C117.082 116.689 116.919 115.434 116.419 114.354C116.116 114.424 115.814 114.482 115.523 114.528Z" fill="white"/>
<path d="M114.266 109.964C114.01 109.964 113.765 109.79 113.696 109.534C112.602 105.655 108.575 104.075 108.529 104.064C108.226 103.948 108.063 103.599 108.18 103.297C108.296 102.995 108.633 102.833 108.948 102.949C109.134 103.018 113.579 104.737 114.836 109.209C114.929 109.522 114.743 109.848 114.429 109.941C114.371 109.952 114.324 109.964 114.266 109.964Z" fill="#F97853"/>
<path d="M110.204 108.001C110.1 108.001 109.983 107.966 109.879 107.908C109.599 107.734 109.518 107.362 109.704 107.083C109.739 107.037 110.449 105.957 111.938 105.283C112.241 105.144 112.59 105.283 112.73 105.585C112.869 105.887 112.73 106.236 112.427 106.375C111.275 106.886 110.716 107.722 110.705 107.734C110.588 107.908 110.402 108.001 110.204 108.001Z" fill="#F97853"/>
<path d="M373.531 229.917C362.185 238.047 344.438 243.622 344.438 243.622L340.807 230.579L337.968 220.405L335.966 213.227L315.624 213.215C316.73 217.025 317.859 220.904 319.011 224.737C320.477 229.673 321.943 234.504 323.328 238.964C325.295 245.236 327.099 250.753 328.565 254.702C328.903 255.619 329.298 256.618 329.752 257.686C332.475 265.015 334.663 272.971 345.043 267.977C354.179 263.587 366.572 257.501 372.763 253.459L373.531 229.917Z" fill="#FFA681"/>
<path d="M319.011 224.725C320.477 229.661 321.944 234.492 323.34 238.952C331.637 238.07 337.386 233.97 340.807 230.567L337.968 220.393L319.011 224.725Z" fill="#F97853"/>
<path d="M314.694 153.529C314.694 153.529 335.92 204.04 345.043 220.404C345.043 220.404 332.254 231.252 319.791 231.554C319.791 231.554 312.61 176.096 314.694 153.529Z" fill="#224372"/>
<path d="M265.014 358.766C265.224 355.235 265.433 351.867 265.608 348.742C266.364 335.99 266.841 327.291 266.841 327.291L261.837 327.07L259.021 326.942L225.005 325.433C225.005 325.433 224.389 335.165 223.656 349.463C223.504 352.389 223.353 355.502 223.202 358.766H265.014Z" fill="#224372"/>
<path d="M261.837 327.07L266.841 327.291C266.841 327.291 266.353 335.99 265.608 348.742C252.539 349.834 238.272 350.276 223.656 349.463C224.389 335.165 225.005 325.433 225.005 325.433L259.021 326.942L261.837 327.07Z" fill="#224372"/>
<path d="M260.057 358.766C260.848 345.142 261.488 333.481 261.849 327.07L259.033 326.942C258.684 333.377 258.032 345.096 257.241 358.766H260.057Z" fill="#224372"/>
<path d="M275.976 358.766H317.789C317.638 355.502 317.475 352.389 317.335 349.463C316.602 335.165 315.985 325.433 315.985 325.433L281.97 326.942L279.153 327.07L274.149 327.291C274.149 327.291 274.638 335.99 275.383 348.742C275.558 351.867 275.755 355.235 275.976 358.766Z" fill="#224372"/>
<path d="M279.142 327.07L274.138 327.291C274.138 327.291 274.627 335.99 275.371 348.742C288.44 349.834 302.707 350.276 317.323 349.463C316.59 335.165 315.974 325.433 315.974 325.433L281.958 326.942L279.142 327.07Z" fill="#224372"/>
<path d="M283.75 358.766C282.959 345.096 282.307 333.377 281.958 326.942L279.142 327.07C279.491 333.481 280.143 345.142 280.934 358.766H283.75Z" fill="#224372"/>
<path d="M217.628 301.24C217.628 301.937 217.628 302.634 217.628 303.307C217.639 315.723 217.709 325.34 217.767 330.067C229.777 333.319 241.798 335.409 253.819 336.385C254.366 336.431 254.902 336.466 255.448 336.513C255.739 336.536 256.03 336.559 256.321 336.571C256.961 336.617 257.613 336.652 258.253 336.687C258.975 336.733 259.684 336.768 260.406 336.803C268.587 337.186 276.756 337.035 284.937 336.362C286.59 336.222 288.23 336.071 289.883 335.886C289.988 335.874 290.092 335.862 290.197 335.851C290.616 335.804 291.035 335.758 291.466 335.7C291.722 335.665 291.978 335.642 292.234 335.607C301.741 334.469 311.261 332.622 320.78 330.055C320.803 327.907 320.815 324.724 320.815 320.717C320.815 319.974 320.815 319.207 320.815 318.406C320.815 312.669 320.768 305.526 320.71 297.465C320.71 296.78 320.698 296.083 320.698 295.375C320.652 289.997 320.594 284.248 320.524 278.244C320.512 277.547 320.512 276.85 320.5 276.153C320.419 269.998 320.326 263.61 320.221 257.117C320.151 253.157 320.082 249.15 320 245.155C319.919 241.101 319.826 237.036 319.732 233.006C319.709 232.123 319.686 231.252 319.663 230.37C318.732 192.217 317.114 157.142 314.449 153.228C312.599 150.521 308.375 147.339 303.382 144.134C302.777 143.75 302.149 143.355 301.52 142.96C299.402 141.636 282.074 135.76 279.875 134.47L261.57 133.193C261.453 133.263 243.951 139.151 243.835 139.209C243.078 139.639 242.322 140.069 241.565 140.51C235.083 144.238 228.683 148.175 225.006 151.567C224.47 152.054 223.981 152.542 223.574 153.007C223.248 153.379 222.957 153.739 222.725 154.099C222.504 154.424 222.294 154.958 222.085 155.701C219.873 163.738 218.71 195.306 218.128 229.661C218.081 232.123 218.046 234.597 218.012 237.083C218 238.174 217.977 239.266 217.965 240.358C217.953 241.113 217.942 241.868 217.93 242.611C217.93 242.994 217.918 243.366 217.918 243.738C217.895 245.608 217.872 247.466 217.86 249.324C217.849 250.695 217.825 252.065 217.814 253.436C217.662 270.741 217.604 287.547 217.628 301.24Z" fill="#1C46A3"/>
<path d="M184.88 350.298C184.427 355.176 190.385 352.528 188.697 342.645C187.022 332.761 191.793 323.818 193.841 324.097C195.901 324.387 192.142 334.886 193.969 338.673C195.796 342.459 198.158 335.107 200.509 330.647C202.953 326.013 202.802 315.909 201.696 308.696C200.591 301.484 213.682 257.663 213.752 244.968L215.347 239.591L221.189 219.882L230.335 189.022C230.335 189.022 224.854 165.666 215.614 167.675C215.614 167.675 210.727 183.947 205.49 202.298C204.605 205.41 203.709 208.592 202.825 211.752C199.101 225.05 195.598 238.186 193.969 245.979C189.675 266.559 189.337 309.323 189.337 309.323C189.337 309.323 181.75 325.037 181.575 332.029C181.401 339.486 185.323 345.42 184.88 350.298Z" fill="#FFA681"/>
<path d="M202.837 211.74L215.358 239.58L221.2 219.87L205.502 202.274C204.617 205.399 203.733 208.581 202.837 211.74Z" fill="#F97853"/>
<path d="M202.22 203.447C207.713 212.843 213.298 222.193 218.861 231.554C220.688 225.433 222.597 219.556 224.377 214.144C224.377 214.133 224.389 214.121 224.389 214.098C225.099 211.937 225.797 209.859 226.46 207.861C226.472 207.826 226.483 207.791 226.495 207.756C226.728 207.059 226.949 206.363 227.182 205.689C229.835 197.675 231.895 191.311 232.488 187.594C234.071 177.594 229.753 158.024 223.656 154.156C223.493 154.505 223.016 153.425 222.725 154.087C221.654 156.549 216.906 162.646 214.555 168.581C214.253 169.336 213.95 170.126 213.624 170.927C210.226 179.673 206.072 191.02 202.22 203.447Z" fill="#5F84D6"/>
<path d="M269.914 151.474C277.838 151.474 283.436 144.25 283.669 143.948C284.006 143.506 283.936 142.868 283.529 142.508C283.122 142.148 282.517 142.217 282.179 142.659C282.109 142.751 276.907 149.43 269.914 149.43C263.001 149.43 258.788 141.869 258.753 141.799C258.486 141.311 257.904 141.149 257.45 141.427C256.996 141.706 256.833 142.333 257.101 142.821C257.287 143.17 261.895 151.474 269.914 151.474Z" fill="white"/>
<path d="M303.44 220.648C303.592 220.648 303.731 220.614 303.871 220.532C304.348 220.277 304.534 219.661 304.301 219.15L300.845 211.856C300.601 211.345 300.019 211.148 299.553 211.403C299.076 211.659 298.89 212.275 299.123 212.786L302.579 220.079C302.754 220.439 303.091 220.648 303.44 220.648Z" fill="white"/>
<path d="M310.644 214.667C310.772 214.748 310.911 214.806 311.063 214.818C311.598 214.865 312.064 214.446 312.11 213.877L312.785 205.736C312.832 205.167 312.436 204.667 311.912 204.621C311.377 204.574 310.911 204.992 310.865 205.561L310.19 213.703C310.167 214.11 310.353 214.47 310.644 214.667Z" fill="white"/>
<path d="M292.071 202.042C292.536 202.042 292.944 201.682 293.025 201.183L294.27 193.122C294.352 192.565 294.003 192.031 293.479 191.938C292.955 191.845 292.455 192.228 292.373 192.786L291.128 200.846C291.047 201.403 291.396 201.938 291.919 202.031C291.966 202.042 292.013 202.042 292.071 202.042Z" fill="white"/>
<path d="M261.011 205.05C261.174 205.05 261.349 205.004 261.5 204.911C261.954 204.621 262.105 203.994 261.837 203.506L257.939 196.468C257.671 195.98 257.078 195.817 256.612 196.107C256.158 196.398 256.007 197.025 256.275 197.513L260.173 204.551C260.359 204.865 260.674 205.05 261.011 205.05Z" fill="white"/>
<path d="M299.169 173.529C299.344 173.529 299.53 173.471 299.693 173.366L306.128 168.93C306.571 168.616 306.699 167.989 306.419 167.501C306.128 167.025 305.535 166.886 305.081 167.199L298.646 171.636C298.204 171.949 298.076 172.577 298.355 173.064C298.541 173.355 298.855 173.529 299.169 173.529Z" fill="white"/>
<path d="M270.53 239.045C270.682 239.045 270.821 239.011 270.961 238.929C271.438 238.674 271.624 238.058 271.391 237.547L267.935 230.253C267.691 229.742 267.121 229.545 266.643 229.8C266.166 230.056 265.98 230.671 266.213 231.183L269.669 238.476C269.832 238.836 270.17 239.045 270.53 239.045Z" fill="white"/>
<path d="M285.717 179.011C286.043 179.011 286.357 178.837 286.531 178.523C286.811 178.036 286.683 177.408 286.229 177.106L279.735 172.774C279.281 172.472 278.688 172.623 278.409 173.099C278.129 173.587 278.257 174.214 278.711 174.516L285.205 178.849C285.368 178.965 285.542 179.011 285.717 179.011Z" fill="white"/>
<path d="M301.148 148.686C301.136 148.884 301.171 149.081 301.253 149.244C301.404 149.546 301.695 149.755 302.032 149.79C302.568 149.836 303.021 149.406 303.056 148.837L303.359 144.145C302.754 143.762 302.137 143.367 301.497 142.972L301.148 148.686Z" fill="white"/>
<path d="M309.806 193.436C310.132 193.436 310.446 193.262 310.621 192.948C310.9 192.46 310.772 191.833 310.318 191.531L303.824 187.199C303.37 186.897 302.777 187.048 302.498 187.524C302.218 188.012 302.346 188.639 302.8 188.941L309.294 193.273C309.457 193.378 309.631 193.436 309.806 193.436Z" fill="white"/>
<path d="M258.044 157.85C258.23 157.85 258.404 157.792 258.579 157.676C259.021 157.362 259.149 156.724 258.858 156.247L255.158 150.254C254.867 149.778 254.261 149.65 253.819 149.964C253.377 150.278 253.249 150.916 253.54 151.393L257.241 157.386C257.427 157.688 257.729 157.85 258.044 157.85Z" fill="white"/>
<path d="M254.727 261.415C254.983 261.415 255.239 261.31 255.425 261.101L260.732 255.201C261.104 254.794 261.093 254.144 260.708 253.749C260.324 253.354 259.708 253.366 259.347 253.784L254.04 259.684C253.668 260.091 253.68 260.741 254.064 261.136C254.25 261.31 254.494 261.415 254.727 261.415Z" fill="white"/>
<path d="M274.219 260.184C274.475 260.184 274.731 260.079 274.918 259.87L280.224 253.97C280.596 253.563 280.585 252.913 280.201 252.518C279.817 252.123 279.212 252.135 278.839 252.553L273.533 258.453C273.16 258.86 273.172 259.51 273.556 259.905C273.731 260.091 273.975 260.184 274.219 260.184Z" fill="white"/>
<path d="M288.23 300.032C288.324 299.777 288.312 299.486 288.196 299.231L284.891 291.856C284.658 291.345 284.088 291.124 283.599 291.368C283.122 291.612 282.912 292.227 283.145 292.738L286.45 300.114C286.683 300.625 287.253 300.845 287.742 300.601C287.974 300.485 288.137 300.276 288.23 300.032Z" fill="white"/>
<path d="M232.302 324.353C232.395 324.097 232.383 323.807 232.267 323.551L228.962 316.176C228.729 315.665 228.159 315.444 227.67 315.688C227.193 315.932 226.984 316.548 227.217 317.059L230.522 324.434C230.754 324.945 231.325 325.166 231.813 324.922C232.058 324.806 232.221 324.596 232.302 324.353Z" fill="white"/>
<path d="M256.321 336.559C256.973 336.606 257.613 336.641 258.253 336.675L258.928 332.088C259.009 331.53 258.649 330.996 258.125 330.915C257.601 330.833 257.101 331.217 257.019 331.774L256.321 336.559Z" fill="white"/>
<path d="M248.617 322.692C248.827 322.541 248.978 322.297 249.013 322.006L250.2 313.934C250.282 313.377 249.921 312.843 249.397 312.761C248.873 312.669 248.373 313.052 248.292 313.621L247.105 321.693C247.023 322.25 247.384 322.785 247.908 322.866C248.175 322.901 248.42 322.831 248.617 322.692Z" fill="white"/>
<path d="M295.178 255.166C295.341 255.166 295.504 255.12 295.655 255.027C296.121 254.736 296.272 254.109 296.004 253.622L292.164 246.548C291.896 246.061 291.303 245.886 290.849 246.177C290.383 246.455 290.232 247.094 290.5 247.582L294.34 254.655C294.515 254.98 294.84 255.166 295.178 255.166Z" fill="white"/>
<path d="M283.913 237.489C284.262 237.489 284.6 237.292 284.774 236.932L288.289 229.673C288.533 229.162 288.347 228.546 287.87 228.291C287.393 228.024 286.811 228.233 286.566 228.732L283.052 235.991C282.808 236.502 282.994 237.118 283.471 237.373C283.611 237.454 283.762 237.489 283.913 237.489Z" fill="white"/>
<path d="M314.414 236.421C314.519 236.548 314.647 236.641 314.775 236.711C315.101 236.85 315.485 236.804 315.776 236.548L319.721 233.006C319.697 232.123 319.686 231.252 319.663 230.37L314.531 234.969C314.123 235.341 314.077 235.979 314.414 236.421Z" fill="white"/>
<path d="M283.96 160.428C284.309 160.428 284.646 160.231 284.821 159.871L288.335 152.612C288.58 152.101 288.393 151.485 287.916 151.23C287.439 150.974 286.857 151.172 286.613 151.671L283.098 158.93C282.854 159.441 283.04 160.057 283.517 160.312C283.657 160.394 283.808 160.428 283.96 160.428Z" fill="white"/>
<path d="M261.465 187.037C261.523 187.037 261.581 187.025 261.651 187.013C262.175 186.909 262.512 186.363 262.419 185.806L260.965 177.78C260.86 177.223 260.359 176.851 259.836 176.967C259.312 177.072 258.975 177.617 259.068 178.175L260.522 186.2C260.604 186.7 261.011 187.037 261.465 187.037Z" fill="white"/>
<path d="M273.987 194.087C274.045 194.087 274.103 194.075 274.173 194.063C274.696 193.959 275.034 193.413 274.941 192.856L273.486 184.83C273.381 184.273 272.881 183.913 272.357 184.017C271.834 184.122 271.496 184.667 271.589 185.225L273.044 193.25C273.125 193.738 273.533 194.087 273.987 194.087Z" fill="white"/>
<path d="M265.014 167.606C265.328 167.606 265.643 167.432 265.829 167.13L269.937 160.231C270.228 159.754 270.088 159.116 269.634 158.814C269.18 158.512 268.587 158.651 268.308 159.127L264.2 166.026C263.909 166.502 264.048 167.141 264.502 167.443C264.653 167.559 264.84 167.606 265.014 167.606Z" fill="white"/>
<path d="M302.661 238.767C302.928 238.465 302.998 238.012 302.824 237.617L299.53 230.242C299.297 229.731 298.727 229.51 298.238 229.754C297.761 229.998 297.552 230.614 297.785 231.125L301.078 238.5C301.311 239.011 301.881 239.231 302.37 238.988C302.474 238.93 302.579 238.86 302.661 238.767Z" fill="white"/>
<path d="M277.827 217.362C278.211 217.362 278.572 217.118 278.723 216.711L281.516 209.104C281.714 208.57 281.469 207.977 280.969 207.768C280.468 207.559 279.91 207.826 279.724 208.349L276.931 215.956C276.733 216.49 276.977 217.083 277.478 217.292C277.594 217.338 277.71 217.362 277.827 217.362Z" fill="white"/>
<path d="M247.174 264.376C247.326 264.376 247.465 264.342 247.605 264.26C248.082 264.005 248.268 263.389 248.036 262.878L244.579 255.584C244.335 255.073 243.753 254.876 243.288 255.131C242.81 255.387 242.624 256.003 242.857 256.514L246.313 263.807C246.476 264.167 246.825 264.376 247.174 264.376Z" fill="white"/>
<path d="M297.982 316.792C297.982 316.943 298.017 317.105 298.087 317.256C298.332 317.756 298.913 317.953 299.391 317.698L306.187 313.935C306.664 313.679 306.85 313.052 306.594 312.541C306.35 312.041 305.768 311.844 305.291 312.1L298.494 315.863C298.169 316.048 297.982 316.408 297.982 316.792Z" fill="white"/>
<path d="M316.439 321.46C316.439 321.623 316.474 321.774 316.544 321.925C316.788 322.436 317.37 322.622 317.847 322.366L320.803 320.729C320.803 319.985 320.803 319.219 320.803 318.417L316.963 320.531C316.625 320.717 316.439 321.089 316.439 321.46Z" fill="white"/>
<path d="M287.881 330.555L290.209 335.851C290.628 335.804 291.047 335.758 291.477 335.7C291.733 335.665 291.989 335.642 292.234 335.607L289.627 329.672C289.406 329.161 288.824 328.929 288.347 329.173C287.858 329.428 287.649 330.032 287.881 330.555Z" fill="white"/>
<path d="M234.629 245.77C235.095 245.77 235.502 245.41 235.584 244.911L236.829 236.85C236.91 236.293 236.561 235.759 236.038 235.666C235.514 235.573 235.014 235.956 234.932 236.514L233.687 244.574C233.605 245.131 233.955 245.666 234.478 245.759C234.525 245.77 234.571 245.77 234.629 245.77Z" fill="white"/>
<path d="M233.826 186.27C233.989 186.27 234.164 186.224 234.315 186.131C234.769 185.84 234.92 185.213 234.653 184.726L230.754 177.687C230.487 177.199 229.893 177.037 229.428 177.327C228.974 177.618 228.822 178.245 229.09 178.733L232.989 185.771C233.175 186.096 233.501 186.27 233.826 186.27Z" fill="white"/>
<path d="M246.371 214.864C246.546 214.864 246.732 214.806 246.895 214.702L253.319 210.265C253.761 209.952 253.889 209.324 253.61 208.837C253.319 208.36 252.725 208.221 252.271 208.535L245.836 212.971C245.394 213.285 245.266 213.912 245.545 214.4C245.743 214.69 246.057 214.864 246.371 214.864Z" fill="white"/>
<path d="M314.449 262.808C314.6 262.808 314.74 262.773 314.88 262.692C315.357 262.436 315.543 261.821 315.31 261.31L311.854 254.016C311.61 253.505 311.039 253.308 310.562 253.563C310.085 253.819 309.899 254.434 310.132 254.945L313.588 262.239C313.751 262.599 314.1 262.808 314.449 262.808Z" fill="white"/>
<path d="M235.421 225.945C235.747 225.945 236.061 225.771 236.235 225.457C236.515 224.969 236.375 224.342 235.933 224.04L229.439 219.708C228.985 219.406 228.392 219.557 228.113 220.033C227.833 220.521 227.961 221.148 228.415 221.45L234.909 225.782C235.06 225.887 235.246 225.945 235.421 225.945Z" fill="white"/>
<path d="M250.98 236.258C251.212 236.49 251.55 236.595 251.887 236.502C252.399 236.351 252.702 235.782 252.562 235.236L250.549 227.35C250.41 226.804 249.874 226.479 249.362 226.63C248.85 226.781 248.548 227.35 248.687 227.896L250.7 235.782C250.747 235.968 250.852 236.13 250.98 236.258Z" fill="white"/>
<path d="M223.586 153.007L225.262 155.724C225.448 156.026 225.75 156.189 226.064 156.189C226.251 156.189 226.425 156.142 226.588 156.015C227.03 155.701 227.158 155.062 226.867 154.586L225.005 151.566C224.47 152.054 223.993 152.542 223.586 153.007Z" fill="white"/>
<path d="M216.243 170.939L218.023 173.831C218.209 174.133 218.512 174.296 218.826 174.296C219.012 174.296 219.187 174.238 219.361 174.122C219.804 173.808 219.932 173.169 219.629 172.693L217.104 168.593C216.825 169.348 216.545 170.138 216.243 170.939Z" fill="white"/>
<path d="M299.705 288.267C299.961 288.267 300.217 288.162 300.403 287.953L305.71 282.053C306.082 281.646 306.07 280.996 305.686 280.601C305.302 280.206 304.685 280.218 304.325 280.636L299.018 286.536C298.646 286.943 298.657 287.593 299.041 287.988C299.216 288.174 299.46 288.267 299.705 288.267Z" fill="white"/>
<path d="M264.421 308.882C264.677 308.882 264.933 308.778 265.119 308.569L270.426 302.669C270.798 302.262 270.786 301.612 270.402 301.217C270.018 300.822 269.401 300.834 269.041 301.252L263.734 307.152C263.362 307.558 263.373 308.209 263.757 308.604C263.932 308.789 264.176 308.882 264.421 308.882Z" fill="white"/>
<path d="M254.611 300.694C254.773 300.485 254.855 300.206 254.82 299.916L253.866 291.809C253.796 291.24 253.319 290.845 252.784 290.915C252.26 290.984 251.876 291.495 251.946 292.065L252.9 300.171C252.97 300.74 253.447 301.135 253.982 301.066C254.238 301.031 254.459 300.891 254.611 300.694Z" fill="white"/>
<path d="M274.708 323.551C274.964 323.551 275.22 323.447 275.406 323.238L280.713 317.338C281.085 316.931 281.074 316.281 280.69 315.886C280.306 315.491 279.689 315.503 279.328 315.921L274.021 321.821C273.649 322.227 273.661 322.878 274.045 323.273C274.219 323.458 274.464 323.551 274.708 323.551Z" fill="white"/>
<path d="M217.616 301.24C217.616 301.937 217.616 302.634 217.616 303.308L223.597 303.842C224.133 303.888 224.598 303.47 224.645 302.901C224.691 302.332 224.296 301.844 223.76 301.786L217.616 301.24Z" fill="white"/>
<path d="M287.718 275.875C287.974 275.875 288.23 275.77 288.417 275.561L293.723 269.661C294.096 269.254 294.084 268.604 293.7 268.209C293.316 267.814 292.711 267.826 292.338 268.244L287.032 274.144C286.659 274.55 286.671 275.201 287.055 275.596C287.241 275.77 287.486 275.875 287.718 275.875Z" fill="white"/>
<path d="M262.21 273.308C262.221 273.575 262.338 273.842 262.547 274.028L268.412 279.289C268.82 279.661 269.425 279.602 269.774 279.161C270.111 278.72 270.065 278.081 269.657 277.709L263.792 272.448C263.385 272.076 262.78 272.135 262.431 272.576C262.268 272.785 262.198 273.052 262.21 273.308Z" fill="white"/>
<path d="M234.28 302.239C234.443 302.239 234.606 302.192 234.757 302.1C235.223 301.809 235.374 301.182 235.107 300.694L231.266 293.621C230.999 293.133 230.405 292.959 229.951 293.25C229.486 293.54 229.335 294.167 229.602 294.655L233.442 301.728C233.629 302.053 233.955 302.239 234.28 302.239Z" fill="white"/>
<path d="M227.647 281.217C227.996 281.217 228.334 281.008 228.508 280.659L232.023 273.4C232.267 272.889 232.081 272.274 231.604 272.018C231.127 271.751 230.545 271.96 230.3 272.46L226.786 279.719C226.542 280.23 226.728 280.845 227.205 281.101C227.345 281.182 227.496 281.217 227.647 281.217Z" fill="white"/>
<path d="M238.121 198.744C238.47 198.744 238.807 198.535 238.982 198.186L242.496 190.927C242.741 190.416 242.554 189.801 242.077 189.545C241.6 189.29 241.018 189.487 240.774 189.987L237.26 197.246C237.015 197.757 237.201 198.372 237.678 198.628C237.818 198.709 237.969 198.744 238.121 198.744Z" fill="white"/>
<path d="M234.28 168.268C234.339 168.268 234.397 168.256 234.467 168.245C234.99 168.14 235.328 167.594 235.235 167.037L233.78 159.012C233.675 158.454 233.175 158.082 232.651 158.199C232.127 158.303 231.79 158.849 231.883 159.406L233.338 167.432C233.431 167.92 233.827 168.268 234.28 168.268Z" fill="white"/>
<path d="M216.65 195.956C216.708 195.956 216.766 195.945 216.836 195.933C217.36 195.829 217.697 195.283 217.604 194.725L216.15 186.7C216.045 186.142 215.544 185.782 215.021 185.887C214.497 185.991 214.16 186.537 214.253 187.095L215.707 195.12C215.789 195.619 216.196 195.956 216.65 195.956Z" fill="white"/>
<path d="M246.814 175.306C246.872 175.306 246.93 175.295 247 175.283C247.523 175.179 247.861 174.633 247.768 174.075L246.313 166.05C246.208 165.492 245.708 165.132 245.184 165.237C244.661 165.341 244.323 165.887 244.416 166.445L245.871 174.47C245.952 174.97 246.36 175.306 246.814 175.306Z" fill="white"/>
<path d="M241.065 147.351C241.251 147.397 241.437 147.385 241.6 147.316C241.903 147.2 242.147 146.932 242.217 146.584L243.834 139.209C243.078 139.639 242.322 140.068 241.565 140.51L240.332 146.108C240.215 146.677 240.541 147.223 241.065 147.351Z" fill="white"/>
<path d="M218.989 208.361C219.303 208.361 219.617 208.186 219.804 207.884L223.912 200.986C224.203 200.509 224.063 199.871 223.609 199.569C223.155 199.267 222.562 199.406 222.282 199.882L218.174 206.781C217.884 207.257 218.023 207.896 218.477 208.198C218.628 208.314 218.814 208.361 218.989 208.361Z" fill="white"/>
<path d="M246.395 282.494C246.662 282.192 246.732 281.74 246.558 281.345L243.264 273.97C243.032 273.459 242.461 273.238 241.973 273.482C241.495 273.726 241.286 274.341 241.519 274.852L244.812 282.227C245.045 282.738 245.615 282.959 246.104 282.715C246.209 282.657 246.313 282.587 246.395 282.494Z" fill="white"/>
<path d="M314.263 296.35L320.71 297.465C320.71 296.78 320.698 296.083 320.687 295.375L314.577 294.318C314.053 294.236 313.553 294.608 313.472 295.166C313.378 295.735 313.728 296.257 314.263 296.35Z" fill="white"/>
<path d="M316.218 277.512L320.512 278.256C320.5 277.559 320.5 276.862 320.489 276.165L316.532 275.48C316.008 275.387 315.508 275.77 315.427 276.328C315.334 276.897 315.694 277.419 316.218 277.512Z" fill="white"/>
<path d="M221.561 261.09C221.945 261.09 222.306 260.846 222.457 260.439L225.25 252.832C225.448 252.298 225.203 251.705 224.703 251.496C224.203 251.287 223.644 251.554 223.458 252.077L220.665 259.684C220.467 260.219 220.711 260.811 221.212 261.02C221.328 261.066 221.445 261.09 221.561 261.09Z" fill="white"/>
<path d="M218.023 237.082C219.839 229.614 222.108 221.31 224.365 214.156C224.365 214.144 224.377 214.133 224.377 214.109C225.075 211.903 225.774 209.8 226.449 207.873C226.46 207.838 226.472 207.803 226.483 207.768C226.693 207.164 226.902 206.572 227.123 206.003C227.158 205.898 227.17 205.805 227.17 205.701C227.17 205.364 226.961 205.039 226.611 204.911C226.169 204.748 225.68 204.981 225.518 205.422C223.202 211.717 220.467 220.776 218.128 229.661C218.093 232.123 218.058 234.597 218.023 237.082Z" fill="#224372"/>
<path d="M245.685 92.8329C245.685 92.8329 238.97 85.4462 241.507 76.84C244.044 68.2455 250.98 68.3384 250.98 68.3384C250.98 68.3384 255.03 59.1979 261.919 58.8959C268.808 58.594 275.313 46.3757 281.586 49.6974C287.858 53.0191 280.911 60.2548 280.911 60.2548C280.911 60.2548 291.652 48.9425 295.201 52.2642C298.739 55.5859 290.279 64.4824 290.279 64.4824C290.279 64.4824 299.309 58.1526 302.277 60.5568C305.244 62.9726 295.201 73.379 295.201 73.379C295.201 73.379 301.695 85.063 295.155 90.3126L245.685 92.8329Z" fill="#403657"/>
<path d="M292.629 95.3068C292.629 95.3068 296.923 89.5926 300.124 94.3196C303.324 99.0466 298.797 113.007 290.977 109.604L292.629 95.3068Z" fill="#F97853"/>
<path d="M292.688 105.284C292.978 105.284 293.246 105.098 293.328 104.807C294.538 100.498 299.018 98.7447 299.065 98.733C299.402 98.6053 299.577 98.222 299.449 97.8852C299.321 97.5484 298.937 97.3742 298.599 97.5019C298.39 97.5832 293.456 99.488 292.059 104.459C291.966 104.807 292.164 105.179 292.513 105.272C292.571 105.272 292.629 105.284 292.688 105.284Z" fill="#EA5143"/>
<path d="M297.203 103.111C297.331 103.111 297.447 103.077 297.564 103.007C297.866 102.81 297.959 102.403 297.761 102.089C297.726 102.043 296.935 100.835 295.283 100.092C294.945 99.9408 294.561 100.092 294.41 100.429C294.259 100.765 294.41 101.149 294.747 101.3C296.027 101.869 296.656 102.798 296.656 102.81C296.772 103.007 296.982 103.111 297.203 103.111Z" fill="#EA5143"/>
<path d="M248.35 95.3068C248.35 95.3068 244.056 89.5926 240.855 94.3196C237.655 99.0466 242.182 113.007 250.002 109.604L248.35 95.3068Z" fill="#F97853"/>
<path d="M248.303 105.284C248.012 105.284 247.745 105.098 247.663 104.807C246.453 100.498 241.973 98.7447 241.926 98.733C241.589 98.6053 241.414 98.222 241.542 97.8852C241.67 97.5484 242.054 97.3742 242.391 97.5019C242.601 97.5832 247.535 99.488 248.932 104.459C249.025 104.807 248.827 105.179 248.478 105.272C248.42 105.272 248.361 105.284 248.303 105.284Z" fill="#EA5143"/>
<path d="M243.776 103.111C243.648 103.111 243.532 103.077 243.416 103.007C243.113 102.81 243.02 102.403 243.218 102.089C243.253 102.043 244.044 100.835 245.696 100.092C246.034 99.9408 246.418 100.092 246.569 100.429C246.721 100.765 246.569 101.149 246.232 101.3C244.952 101.869 244.323 102.798 244.323 102.81C244.207 103.007 243.997 103.111 243.776 103.111Z" fill="#EA5143"/>
<path d="M259.917 121.439V135.33C259.917 135.33 264.072 142.403 269.681 142.879C275.29 143.367 280.271 136.793 280.271 136.793V122.415L259.917 121.439Z" fill="#FFA681"/>
<path d="M259.917 121.439V127.606C263.688 131.776 270.367 132.821 280.271 131.358V122.415L259.917 121.439Z" fill="#F97853"/>
<path d="M245.254 85.7831C245.51 91.1838 246.022 97.9317 247.058 103.321V103.332C247.058 103.344 247.058 103.367 247.07 103.379C247.07 103.379 247.07 103.379 247.07 103.39C247.326 104.703 247.605 105.946 247.919 107.06C248.105 107.711 248.303 108.396 248.536 109.093C251.829 119.418 259.475 134.366 278.676 127.525C286.764 124.645 290.977 116.317 293.118 107.27C293.246 106.735 293.362 106.201 293.467 105.678C293.537 105.342 293.607 105.005 293.665 104.68L293.758 104.192C293.77 104.11 293.781 104.052 293.793 104.018C293.793 103.994 293.793 103.983 293.793 103.983C295.062 97.0257 295.248 89.9991 295.155 84.9817C295.062 79.8598 292.257 75.1793 287.788 72.6473C275.686 65.7949 262.92 68.3501 254.506 71.5788C248.687 73.832 244.952 79.5578 245.254 85.7831Z" fill="#FFA681"/>
<path d="M247.046 103.321C247.046 103.321 247.046 103.321 247.046 103.332C247.046 103.344 247.046 103.367 247.058 103.379C247.058 103.379 247.058 103.379 247.058 103.39C247.186 103.843 247.861 106.317 248.524 109.093C251.818 119.418 259.463 134.366 278.665 127.525C286.753 124.645 290.965 116.317 293.106 107.27C293.234 106.735 293.351 106.201 293.456 105.678C293.525 105.342 293.595 105.005 293.653 104.68L293.747 104.192C293.758 104.11 293.77 104.052 293.781 104.018C293.781 103.994 293.781 103.983 293.781 103.983L290.954 103.414C290.418 106.085 289.22 108.594 287.753 110.835C285.368 105.121 273.242 108.919 273.242 108.919L273.184 108.942C272.45 109.174 271.682 109.29 270.926 109.29C270.146 109.29 269.367 109.163 268.599 108.919C268.599 108.919 256.624 104.958 254.133 110.405C251.655 106.573 249.967 103.088 249.967 103.088L247.046 103.321ZM270.914 111.52C284.623 109.674 282.47 117.037 282.47 117.037C280.946 118.419 279.561 119.43 278.618 119.952C275.627 121.613 272.683 122.252 270.542 122.147C268.436 122.055 267.865 122.484 262.547 119.616C261.605 119.116 260.662 118.361 259.731 117.478C259.498 116.038 257.171 109.163 270.914 111.52Z" fill="#403657"/>
<path d="M258.497 95.8177C258.497 97.3043 259.265 98.5006 260.208 98.5006C261.151 98.5006 261.919 97.3043 261.919 95.8177C261.919 94.331 261.151 93.1348 260.208 93.1348C259.265 93.1348 258.497 94.3426 258.497 95.8177Z" fill="#403657"/>
<path d="M279.875 95.8177C279.875 97.3043 280.643 98.5006 281.586 98.5006C282.528 98.5006 283.296 97.3043 283.296 95.8177C283.296 94.331 282.528 93.1348 281.586 93.1348C280.631 93.1348 279.875 94.3426 279.875 95.8177Z" fill="#403657"/>
<path d="M254.122 86.7704C254.122 86.7704 261.186 83.983 266.632 86.3291L266.085 89.3488C266.085 89.3488 258.102 88.6752 254.075 90.3012C253.714 89.1397 253.656 87.9667 254.122 86.7704Z" fill="#403657"/>
<path d="M287.707 86.7821C287.707 86.7821 280.585 83.9714 275.115 86.3408L275.662 89.3837C275.662 89.3837 283.704 88.7101 287.753 90.3477C288.126 89.1746 288.172 87.99 287.707 86.7821Z" fill="#403657"/>
<path d="M270.263 107.815C269.145 107.815 268.04 107.385 267.865 107.316C267.528 107.176 267.365 106.793 267.505 106.456C267.644 106.12 268.028 105.957 268.366 106.096C268.959 106.34 270.391 106.712 271.019 106.352C271.135 106.282 271.298 106.143 271.345 105.736C271.589 103.437 270.949 95.7131 270.949 95.6318C270.914 95.2718 271.194 94.9466 271.554 94.9234C271.915 94.8885 272.241 95.1673 272.264 95.5273C272.288 95.8525 272.916 103.448 272.66 105.876C272.567 106.793 272.09 107.258 271.694 107.49C271.275 107.722 270.763 107.815 270.263 107.815Z" fill="#F97853"/>
<path d="M278.688 112.844C278.188 115.365 276.523 119.999 270.903 119.999C265.27 119.999 263.688 115.759 263.152 112.844H278.688Z" fill="white"/>
<path d="M245.243 85.7716C245.499 91.1722 246.011 97.9202 247.046 103.309L250.002 103.1C250.002 103.1 249.281 98.5473 248.955 95.5741C248.629 92.6008 248.059 87.0608 250.596 86.3639C253.133 85.6787 251.643 79.3489 255.169 76.6079C258.695 73.8553 266.574 73.1004 271.764 76.2943C276.954 79.4767 282.819 76.0504 285.205 76.6079C287.602 77.1538 290.86 80.4523 289.976 83.53C289.092 86.6078 291.733 88.4777 292.373 91.66C293.013 94.8424 290.965 103.425 290.965 103.425L293.793 103.994C295.062 97.0375 295.259 90.0108 295.166 84.9934C295.073 79.8715 292.269 75.1794 287.8 72.6591C275.697 65.8066 262.931 68.3618 254.517 71.5905C248.687 73.8321 244.952 79.558 245.243 85.7716Z" fill="#403657"/>
<path d="M366.875 234.365C365.083 250.718 354.376 287.257 346.975 294.411C337.328 303.726 305.593 323.342 289.057 333.4C286.078 335.212 300.089 347.302 300.089 347.302C300.089 347.302 343.984 328.569 360.754 313.795C365.502 309.614 375.126 296.432 385.995 271.333C389.288 263.726 397.283 248.372 396.864 238.36C396.375 226.851 378.047 228.744 366.875 234.365Z" fill="#224372"/>
<path d="M332.626 328.313C332.626 328.313 320.687 332.843 316.451 337.813C312.215 342.796 306.629 347.012 307.99 348.975C309.352 350.938 315.543 345.2 315.543 345.2C315.543 345.2 317.242 351.495 323.247 352.18C329.252 352.866 340.621 341.124 340.621 341.124L332.626 328.313Z" fill="#FFA681"/>
<path d="M450.477 280.032C450.477 281.066 450.465 282.297 450.453 283.679C450.43 285.061 450.407 286.606 450.36 288.29C450.325 289.44 450.29 290.671 450.244 291.949C450.209 293.029 450.162 294.144 450.116 295.305C450.069 296.49 450.011 297.709 449.953 298.975C449.127 316.106 447.113 339.753 442.691 358.719H349.815C352.91 344.945 357.658 323.203 361.417 295.003C361.58 293.819 361.731 292.622 361.882 291.414C362.034 290.207 362.185 288.987 362.336 287.756C362.418 287.105 362.499 286.443 362.581 285.781C362.639 285.236 362.709 284.69 362.767 284.155C362.941 282.634 363.093 281.136 363.232 279.672C363.349 278.453 363.453 277.245 363.558 276.06C365.152 257.106 364.594 242.89 366.875 234.377C369.54 224.47 400.623 213.111 400.623 213.111L420.092 214.133C420.092 214.133 438.665 220.184 448.591 228.883C458.518 237.582 450.22 263.54 450.465 278.279C450.477 278.778 450.477 279.359 450.477 280.032Z" fill="#5F84D6"/>
<path d="M450.453 283.679C442.005 284.701 433.195 285.108 424.549 285.108C396.235 285.108 369.656 280.787 363.221 279.661C363.337 278.441 363.442 277.233 363.547 276.049C371.029 277.373 414.296 284.516 450.465 280.033C450.488 281.066 450.477 282.297 450.453 283.679Z" fill="#E0D5F8"/>
<path d="M450.36 288.29C450.325 289.44 450.29 290.671 450.244 291.948C441.853 292.947 433.125 293.354 424.549 293.354C394.641 293.354 366.665 288.534 362.325 287.756C362.406 287.105 362.488 286.443 362.569 285.781C362.627 285.235 362.697 284.69 362.755 284.155C367.061 284.933 412.562 292.947 450.36 288.29Z" fill="#E0D5F8"/>
<path d="M450.127 295.305C450.081 296.49 450.023 297.709 449.964 298.975C441.237 300.079 432.101 300.508 423.152 300.508C394.187 300.508 367.049 295.99 361.417 294.992C361.58 293.807 361.731 292.611 361.882 291.403C368.585 292.599 413.284 300.125 450.127 295.305Z" fill="#E0D5F8"/>
<path d="M406.243 231.752C415.926 231.752 424.863 221.485 425.247 221.032C425.491 220.742 425.456 220.312 425.177 220.068C424.886 219.824 424.456 219.859 424.211 220.138C424.118 220.242 414.762 231.009 405.406 230.358C405.033 230.335 404.707 230.614 404.672 230.985C404.649 231.357 404.928 231.682 405.301 231.717C405.627 231.74 405.941 231.752 406.243 231.752Z" fill="#224372"/>
<path d="M414.646 347.279C414.983 347.279 415.286 347.024 415.321 346.675C415.367 346.304 415.099 345.967 414.715 345.921C389.707 343.052 379.338 299.835 379.234 299.405C379.152 299.034 378.78 298.813 378.419 298.894C378.047 298.976 377.825 299.347 377.907 299.707C378.326 301.531 388.601 344.295 414.564 347.279C414.587 347.268 414.611 347.279 414.646 347.279Z" fill="#224372"/>
<path d="M404.684 334.202C404.917 334.202 405.138 334.085 405.266 333.876C405.464 333.551 405.359 333.133 405.045 332.936C391.744 324.748 389.765 312.68 389.742 312.564C389.684 312.192 389.335 311.937 388.962 311.995C388.59 312.053 388.334 312.402 388.392 312.773C388.473 313.296 390.463 325.572 404.323 334.109C404.44 334.167 404.556 334.202 404.684 334.202Z" fill="#224372"/>
<path d="M412.446 195.538C427.582 195.538 439.852 183.293 439.852 168.187C439.852 153.081 427.582 140.835 412.446 140.835C397.31 140.835 385.04 153.081 385.04 168.187C385.04 183.293 397.31 195.538 412.446 195.538Z" fill="#403657"/>
<path d="M385.494 163.286C385.494 163.286 377.732 161.149 378.756 153.634C379.629 147.235 387.158 151.381 386.495 146.387C385.832 141.381 384.365 136.84 390.847 135.585C396.515 134.494 396.608 138.373 404.056 132.74C412.853 126.097 419.603 141.486 427.458 141.95C439.037 142.635 440.492 149.163 441.632 154.389C442.773 159.615 438.316 163.286 438.316 163.286H385.494Z" fill="#403657"/>
<path d="M389.649 175.841C389.649 175.841 385.308 170.069 382.085 174.842C378.861 179.615 383.423 193.727 391.325 190.277L389.649 175.841Z" fill="#F97853"/>
<path d="M389.591 185.922C389.3 185.922 389.032 185.724 388.951 185.434C387.729 181.079 383.202 179.313 383.155 179.302C382.806 179.174 382.643 178.791 382.771 178.442C382.899 178.094 383.283 177.931 383.632 178.059C383.842 178.14 388.823 180.068 390.242 185.086C390.347 185.446 390.138 185.806 389.777 185.91C389.719 185.91 389.649 185.922 389.591 185.922Z" fill="#EA5143"/>
<path d="M385.029 183.727C384.901 183.727 384.784 183.692 384.668 183.622C384.354 183.425 384.272 183.007 384.47 182.705C384.505 182.658 385.308 181.439 386.972 180.684C387.31 180.533 387.705 180.684 387.857 181.021C388.008 181.358 387.857 181.753 387.519 181.904C386.227 182.484 385.599 183.413 385.587 183.425C385.459 183.622 385.25 183.727 385.029 183.727Z" fill="#EA5143"/>
<path d="M421.127 202.24V216.27C421.127 216.27 415.344 222.449 409.676 222.936C404.009 223.424 400.565 216.711 400.565 216.711V203.227L421.127 202.24Z" fill="#FFA681"/>
<path d="M421.127 202.24V208.465C417.322 212.681 410.573 213.726 400.576 212.251V203.215L421.127 202.24Z" fill="#F97853"/>
<path d="M435.953 166.213C435.697 171.66 435.174 178.477 434.126 183.936C433.87 185.295 433.568 186.572 433.242 187.722C430.286 198.059 422.885 215.782 402.17 208.407C393.024 205.144 388.776 194.981 386.891 184.633C385.611 177.606 385.413 170.51 385.506 165.434C385.611 160.254 388.439 155.527 392.954 152.972C405.185 146.05 418.079 148.628 426.574 151.892C432.474 154.157 436.256 159.929 435.953 166.213Z" fill="#FFA681"/>
<path d="M411.096 176.119V177.223C411.096 179.452 411.969 181.543 413.552 183.111C415.111 184.656 417.171 185.504 419.37 185.504H419.638C421.546 185.469 423.269 184.702 424.782 183.227C426.306 181.752 427.167 179.627 427.167 177.408V176.096C427.167 175.736 427.097 175.387 426.969 175.062C426.83 174.667 426.597 174.331 426.306 174.04C425.782 173.518 425.049 173.192 424.246 173.192H413.994C412.83 173.192 411.829 173.866 411.364 174.853C411.189 175.213 411.085 175.608 411.085 176.026C411.096 176.073 411.096 176.096 411.096 176.119ZM412.306 176.119C412.306 175.178 413.075 174.412 414.017 174.412H424.27C425.212 174.412 425.98 175.167 425.98 176.119V177.432C425.98 179.325 425.247 181.125 423.955 182.379C422.664 183.622 421.209 184.272 419.626 184.307H419.382C417.508 184.307 415.751 183.587 414.413 182.263C413.063 180.927 412.318 179.139 412.318 177.234V176.119H412.306Z" fill="#403657"/>
<path d="M390.568 176.119V177.222C390.568 179.452 391.441 181.543 393.024 183.111C394.583 184.656 396.643 185.503 398.842 185.503H399.122C401.018 185.469 402.752 184.702 404.265 183.227C405.79 181.752 406.662 179.627 406.662 177.408V176.096C406.662 176.073 406.662 176.061 406.662 176.038C406.662 175.643 406.569 175.271 406.418 174.923C405.964 173.901 404.94 173.181 403.753 173.181H393.501C392.605 173.181 391.79 173.587 391.255 174.226C390.999 174.54 390.801 174.911 390.696 175.306C390.603 175.596 390.568 175.852 390.568 176.119ZM391.778 176.119C391.778 175.178 392.546 174.412 393.489 174.412H403.741C404.684 174.412 405.452 175.167 405.452 176.119V177.431C405.452 179.325 404.707 181.125 403.427 182.379C402.147 183.622 400.681 184.272 399.098 184.307H398.854C396.98 184.307 395.223 183.587 393.896 182.263C392.546 180.927 391.802 179.139 391.802 177.234V176.119H391.778Z" fill="#403657"/>
<path d="M434.487 172.728C431.007 172.577 428.517 173.576 427.54 174.063C427.26 174.191 426.527 174.667 426.504 174.691L427.074 175.713C427.086 175.713 427.889 175.225 428.203 175.085C429.169 174.633 431.31 173.738 434.499 173.924V172.728H434.487Z" fill="#403657"/>
<path d="M411.911 176.165L412.306 175.027C412.237 175.004 410.538 174.423 408.676 174.423C406.686 174.423 405.417 175.027 405.359 175.062L405.883 176.142C405.894 176.142 406.977 175.631 408.676 175.631C410.328 175.631 411.899 176.165 411.911 176.165Z" fill="#403657"/>
<path d="M386.332 173.018V174.226C388.834 174.435 391.15 175.55 391.185 175.562L391.72 174.481C391.581 174.412 389.102 173.216 386.332 173.018Z" fill="#403657"/>
<path d="M400.064 177.664C400.064 179.162 399.296 180.37 398.342 180.37C397.388 180.37 396.62 179.151 396.62 177.664C396.62 176.166 397.388 174.958 398.342 174.958C399.284 174.958 400.064 176.166 400.064 177.664Z" fill="#403657"/>
<path d="M420.29 177.664C420.29 179.162 419.522 180.37 418.567 180.37C417.613 180.37 416.845 179.151 416.845 177.664C416.845 176.166 417.613 174.958 418.567 174.958C419.51 174.958 420.29 176.166 420.29 177.664Z" fill="#403657"/>
<path d="M392.721 169.336C392.721 169.336 399.913 166.503 405.452 168.883L404.987 171.45C404.987 171.45 398.994 170.115 393.117 172.298C392.744 171.125 392.244 170.556 392.721 169.336Z" fill="#403657"/>
<path d="M425.619 169.336C425.619 169.336 418.428 166.503 412.888 168.883L413.354 171.45C413.354 171.45 419.347 170.115 425.224 172.298C425.585 171.125 426.085 170.556 425.619 169.336Z" fill="#403657"/>
<path d="M409.514 189.034C410.642 189.034 411.76 188.593 411.934 188.523C412.272 188.384 412.434 188.001 412.295 187.652C412.155 187.315 411.771 187.153 411.422 187.292C410.817 187.536 409.374 187.919 408.745 187.548C408.629 187.478 408.455 187.327 408.42 186.932C408.175 184.609 408.815 176.804 408.827 176.723C408.862 176.351 408.583 176.038 408.222 176.003C407.849 175.968 407.535 176.247 407.5 176.607C407.477 176.932 406.849 184.609 407.105 187.06C407.198 187.977 407.686 188.453 408.071 188.686C408.489 188.941 409.001 189.034 409.514 189.034Z" fill="#F97853"/>
<path d="M401.228 192.414C401.775 195.155 403.59 200.196 409.7 200.196C415.821 200.196 417.543 195.585 418.137 192.414H401.228Z" fill="white"/>
<path d="M409.618 203.68C411.352 203.68 412.807 202.809 412.877 202.774C413.191 202.588 413.296 202.17 413.098 201.857C412.912 201.543 412.493 201.439 412.178 201.636C412.167 201.648 410.957 202.356 409.618 202.356C408.385 202.356 407.198 201.648 407.186 201.636C406.872 201.439 406.465 201.543 406.267 201.857C406.069 202.17 406.174 202.577 406.488 202.774C406.546 202.797 407.989 203.68 409.618 203.68Z" fill="#F97853"/>
<path d="M388.962 180.289C388.462 177.536 387.961 173.994 388.322 172.171C388.974 168.953 391.639 167.06 390.754 163.959C389.87 160.847 393.152 157.513 395.572 156.956C397.993 156.398 403.648 157.595 409.211 154.958C414.518 152.438 423.757 154.238 425.259 157.641C427.074 161.764 424.607 162.147 429.576 166.607C431.554 168.384 429.204 172.995 428.866 175.992C428.715 177.374 428.692 178.047 428.75 179.522L428.773 180.277H434.72C435.371 175.632 435.755 170.498 435.953 166.201C436.256 159.917 432.474 154.145 426.585 151.88C418.09 148.617 405.196 146.038 392.965 152.961C388.45 155.516 385.622 160.243 385.529 165.423C385.448 169.441 385.564 174.749 386.251 180.277H388.962V180.289Z" fill="#403657"/>
<path d="M432.078 182.844C432.055 181.288 432.171 179.743 432.439 178.21C432.811 176.119 433.416 174.226 435.558 173.355C437.28 172.658 439.119 172.635 440.434 174.575C443.657 179.348 440.061 194.214 432.16 190.765L432.078 182.844Z" fill="#FFA681"/>
<path d="M433.707 186.445C433.998 186.387 434.219 186.143 434.243 185.841C434.592 181.334 438.676 178.721 438.723 178.686C439.037 178.489 439.13 178.082 438.932 177.769C438.735 177.455 438.327 177.362 438.013 177.56C437.827 177.676 433.312 180.545 432.916 185.736C432.893 186.108 433.16 186.421 433.533 186.456C433.579 186.468 433.649 186.456 433.707 186.445Z" fill="#F97853"/>
<path d="M437.745 183.402C437.862 183.378 437.978 183.32 438.083 183.227C438.351 182.972 438.351 182.554 438.095 182.287C438.048 182.24 437.024 181.207 435.243 180.8C434.883 180.719 434.522 180.939 434.44 181.299C434.359 181.66 434.58 182.02 434.941 182.101C436.326 182.414 437.129 183.204 437.129 183.216C437.303 183.378 437.536 183.448 437.745 183.402Z" fill="#F97853"/>
<path d="M444.646 225.829C434.883 240.59 397.539 291.635 389.113 297.559C378.14 305.282 348.232 316.257 331.067 327.698C325.237 331.588 339.015 342.587 339.015 342.587C339.015 342.587 380.874 330.845 399.715 318.836C405.045 315.444 427.225 293.261 441.365 273.598C446.206 266.862 454.084 257.501 455.224 247.547C456.539 236.096 452.932 229.963 444.646 225.829Z" fill="#224372"/>
<path d="M370.622 358.72H254.273C252.784 358.72 251.585 357.512 251.585 356.037V346.78C251.585 345.293 252.795 344.097 254.273 344.097H370.622C372.112 344.097 373.31 345.305 373.31 346.78V356.037C373.31 357.512 372.112 358.72 370.622 358.72Z" fill="#1A0B42"/>
<path d="M251.597 358.719L228.718 273.192C227.438 268.383 231.057 263.68 236.038 263.68H286.392C289.79 263.68 292.769 265.933 293.688 269.196L318.883 358.719H251.597Z" fill="#403657"/>
<path d="M293.7 269.196L318.685 357.988H324.434L299.449 269.196C298.518 265.933 295.55 263.668 292.152 263.668H286.403C289.79 263.668 292.769 265.933 293.7 269.196Z" fill="#1A0B42"/>
<path d="M280.748 315.026C282.051 320.671 278.537 325.235 272.881 325.235C267.225 325.235 261.581 320.659 260.278 315.026C258.975 309.382 262.489 304.817 268.145 304.817C273.8 304.806 279.444 309.382 280.748 315.026Z" fill="#614C6E"/>
<path d="M436.779 43.7044C432.544 43.7044 429.099 40.2666 429.099 36.039C429.099 31.8114 432.544 28.3735 436.779 28.3735C441.015 28.3735 444.46 31.8114 444.46 36.039C444.46 40.2666 441.015 43.7044 436.779 43.7044ZM436.779 30.7777C433.87 30.7777 431.508 33.1354 431.508 36.039C431.508 38.9425 433.87 41.3002 436.779 41.3002C439.689 41.3002 442.051 38.9425 442.051 36.039C442.051 33.1354 439.689 30.7777 436.779 30.7777Z" fill="#224372"/>
<path d="M464.441 70.6146C460.205 70.6146 456.761 67.1767 456.761 62.9491C456.761 58.7215 460.205 55.2837 464.441 55.2837C468.677 55.2837 472.122 58.7215 472.122 62.9491C472.122 67.1767 468.677 70.6146 464.441 70.6146ZM464.441 57.6878C461.532 57.6878 459.17 60.0456 459.17 62.9491C459.17 65.8527 461.532 68.2104 464.441 68.2104C467.35 68.2104 469.713 65.8527 469.713 62.9491C469.713 60.0456 467.35 57.6878 464.441 57.6878Z" fill="#224372"/>
<path d="M473.937 95.5389C473.274 95.5389 472.727 95.0047 472.727 94.331V89.0233C472.727 88.3613 473.262 87.8154 473.937 87.8154C474.6 87.8154 475.147 88.3497 475.147 89.0233V94.331C475.136 94.9931 474.6 95.5389 473.937 95.5389Z" fill="#224372"/>
<path d="M473.937 104.819C473.274 104.819 472.727 104.284 472.727 103.611V98.3031C472.727 97.6411 473.262 97.0952 473.937 97.0952C474.6 97.0952 475.147 97.6295 475.147 98.3031V103.611C475.136 104.284 474.6 104.819 473.937 104.819Z" fill="#224372"/>
<path d="M481.397 97.5252H476.625C475.962 97.5252 475.415 96.9909 475.415 96.3173C475.415 95.6552 475.95 95.1094 476.625 95.1094H481.397C482.06 95.1094 482.607 95.6436 482.607 96.3173C482.595 96.9909 482.06 97.5252 481.397 97.5252Z" fill="#224372"/>
<path d="M471.249 97.5252H466.478C465.814 97.5252 465.267 96.9909 465.267 96.3173C465.267 95.6552 465.803 95.1094 466.478 95.1094H471.249C471.912 95.1094 472.459 95.6436 472.459 96.3173C472.448 96.9909 471.912 97.5252 471.249 97.5252Z" fill="#224372"/>
<path d="M431.508 65.8065C430.845 65.8065 430.298 65.2723 430.298 64.5986V59.2909C430.298 58.6289 430.833 58.083 431.508 58.083C432.171 58.083 432.718 58.6173 432.718 59.2909V64.5986C432.706 65.2723 432.171 65.8065 431.508 65.8065Z" fill="#224372"/>
<path d="M431.508 75.098C430.845 75.098 430.298 74.5638 430.298 73.8901V68.5824C430.298 67.9204 430.833 67.3745 431.508 67.3745C432.171 67.3745 432.718 67.9088 432.718 68.5824V73.8901C432.706 74.5521 432.171 75.098 431.508 75.098Z" fill="#224372"/>
<path d="M438.967 67.804H434.196C433.533 67.804 432.986 67.2697 432.986 66.5961C432.986 65.9341 433.521 65.3882 434.196 65.3882H438.967C439.631 65.3882 440.178 65.9224 440.178 66.5961C440.166 67.2581 439.631 67.804 438.967 67.804Z" fill="#224372"/>
<path d="M428.82 67.804H424.048C423.385 67.804 422.838 67.2697 422.838 66.5961C422.838 65.9341 423.373 65.3882 424.048 65.3882H428.82C429.483 65.3882 430.03 65.9224 430.03 66.5961C430.018 67.2581 429.483 67.804 428.82 67.804Z" fill="#224372"/>
<path d="M80.1571 8.50186C80.1571 4.27426 83.6017 0.836426 87.8377 0.836426C92.0736 0.836426 95.5182 4.27426 95.5182 8.50186C95.5182 12.7295 92.0736 16.1673 87.8377 16.1673C83.6017 16.1673 80.1571 12.7295 80.1571 8.50186ZM82.566 8.50186C82.566 11.4054 84.9284 13.7631 87.8377 13.7631C90.747 13.7631 93.1093 11.4054 93.1093 8.50186C93.1093 5.59829 90.747 3.24058 87.8377 3.24058C84.9284 3.22897 82.566 5.59829 82.566 8.50186Z" fill="#224372"/>
<path d="M49.2952 37.7348C49.2952 33.5072 52.7398 30.0693 56.9758 30.0693C61.2117 30.0693 64.6563 33.5072 64.6563 37.7348C64.6563 41.9624 61.2117 45.4002 56.9758 45.4002C52.7398 45.4002 49.2952 41.9624 49.2952 37.7348ZM51.7041 37.7348C51.7041 40.6383 54.0665 42.996 56.9758 42.996C59.8851 42.996 62.2474 40.6383 62.2474 37.7348C62.2474 34.8312 59.8851 32.4735 56.9758 32.4735C54.0665 32.4619 51.7041 34.8312 51.7041 37.7348Z" fill="#224372"/>
<path d="M33.3173 48.4896C33.9806 48.4896 34.5276 47.9554 34.5276 47.2817V41.974C34.5276 41.312 33.9923 40.7661 33.3173 40.7661C32.654 40.7661 32.1071 41.3004 32.1071 41.974V47.2817C32.1071 47.9554 32.654 48.4896 33.3173 48.4896Z" fill="#224372"/>
<path d="M33.3173 57.7811C33.9806 57.7811 34.5276 57.2469 34.5276 56.5732V51.2655C34.5276 50.6035 33.9923 50.0576 33.3173 50.0576C32.654 50.0576 32.1071 50.5919 32.1071 51.2655V56.5732C32.1071 57.2353 32.654 57.7811 33.3173 57.7811Z" fill="#224372"/>
<path d="M25.8579 50.4871H30.6291C31.2924 50.4871 31.8394 49.9528 31.8394 49.2792C31.8394 48.6172 31.3041 48.0713 30.6291 48.0713H25.8579C25.1945 48.0713 24.6476 48.6055 24.6476 49.2792C24.6476 49.9412 25.1945 50.4871 25.8579 50.4871Z" fill="#224372"/>
<path d="M36.0055 50.4871H40.7768C41.4401 50.4871 41.987 49.9528 41.987 49.2792C41.987 48.6172 41.4517 48.0713 40.7768 48.0713H36.0055C35.3422 48.0713 34.7952 48.6055 34.7952 49.2792C34.7952 49.9412 35.3422 50.4871 36.0055 50.4871Z" fill="#224372"/>
<path d="M61.0953 7.71189C61.7587 7.71189 62.3056 7.17763 62.3056 6.504V1.20789C62.294 0.534258 61.7587 0 61.0953 0C60.432 0 59.8851 0.534258 59.8851 1.20789V6.504C59.8851 7.17763 60.432 7.71189 61.0953 7.71189Z" fill="#224372"/>
<path d="M61.0953 16.9917C61.7587 16.9917 62.3056 16.4574 62.3056 15.7838V10.4877C62.3056 9.82566 61.7703 9.27979 61.0953 9.27979C60.432 9.27979 59.8851 9.81404 59.8851 10.4877V15.7954C59.8851 16.4574 60.432 16.9917 61.0953 16.9917Z" fill="#224372"/>
<path d="M53.6359 9.698H58.4071C59.0704 9.698 59.6174 9.16374 59.6174 8.49011C59.6174 7.81648 59.0821 7.28223 58.4071 7.28223H53.6359C52.9725 7.28223 52.4256 7.81648 52.4256 8.49011C52.4256 9.16374 52.9609 9.698 53.6359 9.698Z" fill="#224372"/>
<path d="M63.7835 9.698H68.5548C69.2181 9.698 69.765 9.16374 69.765 8.49011C69.765 7.81648 69.2297 7.28223 68.5548 7.28223H63.7835C63.1202 7.28223 62.5732 7.81648 62.5732 8.49011C62.5732 9.16374 63.1086 9.698 63.7835 9.698Z" fill="#224372"/>
<path d="M376.592 16.6432V39.9995C376.592 43.0889 374.078 45.586 370.994 45.586H328.507L315.683 50.1736C314.368 50.6498 313.099 49.349 313.611 48.0482L318.464 35.5396V16.6432C318.464 13.5538 320.978 11.0567 324.073 11.0567H371.006C374.078 11.0451 376.592 13.5538 376.592 16.6432Z" fill="#5F84D6"/>
<g opacity="0.5">
<path d="M367.631 23.2515H328.658C327.809 23.2515 327.11 22.5663 327.11 21.7068C327.11 20.859 327.797 20.1621 328.658 20.1621H367.631C368.481 20.1621 369.179 20.8474 369.179 21.7068C369.179 22.5547 368.492 23.2515 367.631 23.2515Z" fill="#E0D5F8"/>
<path d="M367.631 29.4654H328.658C327.809 29.4654 327.11 28.7801 327.11 27.9207C327.11 27.0728 327.797 26.376 328.658 26.376H367.631C368.481 26.376 369.179 27.0612 369.179 27.9207C369.179 28.7685 368.492 29.4654 367.631 29.4654Z" fill="#E0D5F8"/>
<path d="M367.631 35.6788H328.658C327.809 35.6788 327.11 34.9935 327.11 34.1341C327.11 33.2862 327.797 32.5894 328.658 32.5894H367.631C368.481 32.5894 369.179 33.2746 369.179 34.1341C369.179 34.9819 368.492 35.6788 367.631 35.6788Z" fill="#E0D5F8"/>
</g>
<path d="M501.913 367.453V368.289C501.913 373.097 498.003 377.011 493.173 377.011H39.9855C35.156 377.011 31.2459 373.109 31.2459 368.289V367.453C31.2459 362.644 35.156 358.73 39.9855 358.73H493.173C498.003 358.73 501.913 362.633 501.913 367.453Z" fill="#224372"/>
<path d="M501.913 367.453V367.871H31.2459V367.453C31.2459 362.644 35.156 358.73 39.9855 358.73H493.173C498.003 358.73 501.913 362.633 501.913 367.453Z" fill="#5F84D6"/>
</g>
<defs>
<clipPath id="clip0_47_56">
<rect width="538" height="377" fill="white"/>
</clipPath>
</defs>
</svg>
