<svg width="100" height="163" viewBox="0 0 100 163" fill="none" xmlns="http://www.w3.org/2000/svg">
<g clip-path="url(#clip0_59_51)">
<path d="M5.64925 10.9267C8.54639 10.9267 10.895 8.57126 10.895 5.66572C10.895 2.76019 8.54639 0.404785 5.64925 0.404785C2.7521 0.404785 0.403503 2.76019 0.403503 5.66572C0.403503 8.57126 2.7521 10.9267 5.64925 10.9267Z" fill="#A9F1D3" stroke="white" stroke-miterlimit="10"/>
<path d="M5.64925 36.2035C8.54639 36.2035 10.895 33.8481 10.895 30.9426C10.895 28.037 8.54639 25.6816 5.64925 25.6816C2.7521 25.6816 0.403503 28.037 0.403503 30.9426C0.403503 33.8481 2.7521 36.2035 5.64925 36.2035Z" fill="#A9F1D3" stroke="white" stroke-miterlimit="10"/>
<path d="M5.64925 61.4804C8.54639 61.4804 10.895 59.125 10.895 56.2194C10.895 53.3139 8.54639 50.9585 5.64925 50.9585C2.7521 50.9585 0.403503 53.3139 0.403503 56.2194C0.403503 59.125 2.7521 61.4804 5.64925 61.4804Z" fill="#A9F1D3" stroke="white" stroke-miterlimit="10"/>
<path d="M5.64925 86.7572C8.54639 86.7572 10.895 84.4018 10.895 81.4963C10.895 78.5908 8.54639 76.2354 5.64925 76.2354C2.7521 76.2354 0.403503 78.5908 0.403503 81.4963C0.403503 84.4018 2.7521 86.7572 5.64925 86.7572Z" fill="#A9F1D3" stroke="white" stroke-miterlimit="10"/>
<path d="M5.64925 112.042C8.54639 112.042 10.895 109.686 10.895 106.781C10.895 103.875 8.54639 101.52 5.64925 101.52C2.7521 101.52 0.403503 103.875 0.403503 106.781C0.403503 109.686 2.7521 112.042 5.64925 112.042Z" fill="#A9F1D3" stroke="white" stroke-miterlimit="10"/>
<path d="M5.64925 137.319C8.54639 137.319 10.895 134.963 10.895 132.058C10.895 129.152 8.54639 126.797 5.64925 126.797C2.7521 126.797 0.403503 129.152 0.403503 132.058C0.403503 134.963 2.7521 137.319 5.64925 137.319Z" fill="#A9F1D3" stroke="white" stroke-miterlimit="10"/>
<path d="M35.2191 10.9267C38.1162 10.9267 40.4648 8.57126 40.4648 5.66572C40.4648 2.76019 38.1162 0.404785 35.2191 0.404785C32.3219 0.404785 29.9733 2.76019 29.9733 5.66572C29.9733 8.57126 32.3219 10.9267 35.2191 10.9267Z" fill="#A9F1D3" stroke="white" stroke-miterlimit="10"/>
<path d="M35.2191 36.2035C38.1162 36.2035 40.4648 33.8481 40.4648 30.9426C40.4648 28.037 38.1162 25.6816 35.2191 25.6816C32.3219 25.6816 29.9733 28.037 29.9733 30.9426C29.9733 33.8481 32.3219 36.2035 35.2191 36.2035Z" fill="#A9F1D3" stroke="white" stroke-miterlimit="10"/>
<path d="M35.2191 61.4804C38.1162 61.4804 40.4648 59.125 40.4648 56.2194C40.4648 53.3139 38.1162 50.9585 35.2191 50.9585C32.3219 50.9585 29.9733 53.3139 29.9733 56.2194C29.9733 59.125 32.3219 61.4804 35.2191 61.4804Z" fill="#A9F1D3" stroke="white" stroke-miterlimit="10"/>
<path d="M35.2191 86.7572C38.1162 86.7572 40.4648 84.4018 40.4648 81.4963C40.4648 78.5908 38.1162 76.2354 35.2191 76.2354C32.3219 76.2354 29.9733 78.5908 29.9733 81.4963C29.9733 84.4018 32.3219 86.7572 35.2191 86.7572Z" fill="#A9F1D3" stroke="white" stroke-miterlimit="10"/>
<path d="M35.2191 112.042C38.1162 112.042 40.4648 109.686 40.4648 106.781C40.4648 103.875 38.1162 101.52 35.2191 101.52C32.3219 101.52 29.9733 103.875 29.9733 106.781C29.9733 109.686 32.3219 112.042 35.2191 112.042Z" fill="#A9F1D3" stroke="white" stroke-miterlimit="10"/>
<path d="M35.2191 137.319C38.1162 137.319 40.4648 134.963 40.4648 132.058C40.4648 129.152 38.1162 126.797 35.2191 126.797C32.3219 126.797 29.9733 129.152 29.9733 132.058C29.9733 134.963 32.3219 137.319 35.2191 137.319Z" fill="#A9F1D3" stroke="white" stroke-miterlimit="10"/>
<path d="M64.789 10.9267C67.6861 10.9267 70.0347 8.57126 70.0347 5.66572C70.0347 2.76019 67.6861 0.404785 64.789 0.404785C61.8918 0.404785 59.5432 2.76019 59.5432 5.66572C59.5432 8.57126 61.8918 10.9267 64.789 10.9267Z" fill="#A9F1D3" stroke="white" stroke-miterlimit="10"/>
<path d="M64.789 36.2035C67.6861 36.2035 70.0347 33.8481 70.0347 30.9426C70.0347 28.037 67.6861 25.6816 64.789 25.6816C61.8918 25.6816 59.5432 28.037 59.5432 30.9426C59.5432 33.8481 61.8918 36.2035 64.789 36.2035Z" fill="#A9F1D3" stroke="white" stroke-miterlimit="10"/>
<path d="M64.789 61.4804C67.6861 61.4804 70.0347 59.125 70.0347 56.2194C70.0347 53.3139 67.6861 50.9585 64.789 50.9585C61.8918 50.9585 59.5432 53.3139 59.5432 56.2194C59.5432 59.125 61.8918 61.4804 64.789 61.4804Z" fill="#A9F1D3" stroke="white" stroke-miterlimit="10"/>
<path d="M64.789 86.7572C67.6861 86.7572 70.0347 84.4018 70.0347 81.4963C70.0347 78.5908 67.6861 76.2354 64.789 76.2354C61.8918 76.2354 59.5432 78.5908 59.5432 81.4963C59.5432 84.4018 61.8918 86.7572 64.789 86.7572Z" fill="#A9F1D3" stroke="white" stroke-miterlimit="10"/>
<path d="M64.789 112.042C67.6861 112.042 70.0347 109.686 70.0347 106.781C70.0347 103.875 67.6861 101.52 64.789 101.52C61.8918 101.52 59.5432 103.875 59.5432 106.781C59.5432 109.686 61.8918 112.042 64.789 112.042Z" fill="#A9F1D3" stroke="white" stroke-miterlimit="10"/>
<path d="M64.789 137.319C67.6861 137.319 70.0347 134.963 70.0347 132.058C70.0347 129.152 67.6861 126.797 64.789 126.797C61.8918 126.797 59.5432 129.152 59.5432 132.058C59.5432 134.963 61.8918 137.319 64.789 137.319Z" fill="#A9F1D3" stroke="white" stroke-miterlimit="10"/>
<path d="M94.3507 10.9267C97.2479 10.9267 99.5965 8.57126 99.5965 5.66572C99.5965 2.76019 97.2479 0.404785 94.3507 0.404785C91.4536 0.404785 89.105 2.76019 89.105 5.66572C89.105 8.57126 91.4536 10.9267 94.3507 10.9267Z" fill="#A9F1D3" stroke="white" stroke-miterlimit="10"/>
<path d="M94.3507 36.2035C97.2479 36.2035 99.5965 33.8481 99.5965 30.9426C99.5965 28.037 97.2479 25.6816 94.3507 25.6816C91.4536 25.6816 89.105 28.037 89.105 30.9426C89.105 33.8481 91.4536 36.2035 94.3507 36.2035Z" fill="#A9F1D3" stroke="white" stroke-miterlimit="10"/>
<path d="M94.3507 61.4804C97.2479 61.4804 99.5965 59.125 99.5965 56.2194C99.5965 53.3139 97.2479 50.9585 94.3507 50.9585C91.4536 50.9585 89.105 53.3139 89.105 56.2194C89.105 59.125 91.4536 61.4804 94.3507 61.4804Z" fill="#A9F1D3" stroke="white" stroke-miterlimit="10"/>
<path d="M94.3507 86.7572C97.2479 86.7572 99.5965 84.4018 99.5965 81.4963C99.5965 78.5908 97.2479 76.2354 94.3507 76.2354C91.4536 76.2354 89.105 78.5908 89.105 81.4963C89.105 84.4018 91.4536 86.7572 94.3507 86.7572Z" fill="#A9F1D3" stroke="white" stroke-miterlimit="10"/>
<path d="M94.3507 112.042C97.2479 112.042 99.5965 109.686 99.5965 106.781C99.5965 103.875 97.2479 101.52 94.3507 101.52C91.4536 101.52 89.105 103.875 89.105 106.781C89.105 109.686 91.4536 112.042 94.3507 112.042Z" fill="#A9F1D3" stroke="white" stroke-miterlimit="10"/>
<path d="M94.3507 137.319C97.2479 137.319 99.5965 134.963 99.5965 132.058C99.5965 129.152 97.2479 126.797 94.3507 126.797C91.4536 126.797 89.105 129.152 89.105 132.058C89.105 134.963 91.4536 137.319 94.3507 137.319Z" fill="#A9F1D3" stroke="white" stroke-miterlimit="10"/>
<path d="M5.64925 162.596C8.54639 162.596 10.895 160.24 10.895 157.335C10.895 154.429 8.54639 152.074 5.64925 152.074C2.7521 152.074 0.403503 154.429 0.403503 157.335C0.403503 160.24 2.7521 162.596 5.64925 162.596Z" fill="#A9F1D3" stroke="white" stroke-miterlimit="10"/>
<path d="M35.2191 162.596C38.1162 162.596 40.4648 160.24 40.4648 157.335C40.4648 154.429 38.1162 152.074 35.2191 152.074C32.3219 152.074 29.9733 154.429 29.9733 157.335C29.9733 160.24 32.3219 162.596 35.2191 162.596Z" fill="#A9F1D3" stroke="white" stroke-miterlimit="10"/>
<path d="M64.789 162.596C67.6861 162.596 70.0347 160.24 70.0347 157.335C70.0347 154.429 67.6861 152.074 64.789 152.074C61.8918 152.074 59.5432 154.429 59.5432 157.335C59.5432 160.24 61.8918 162.596 64.789 162.596Z" fill="#A9F1D3" stroke="white" stroke-miterlimit="10"/>
<path d="M94.3507 162.596C97.2479 162.596 99.5965 160.24 99.5965 157.335C99.5965 154.429 97.2479 152.074 94.3507 152.074C91.4536 152.074 89.105 154.429 89.105 157.335C89.105 160.24 91.4536 162.596 94.3507 162.596Z" fill="#A9F1D3" stroke="white" stroke-miterlimit="10"/>
</g>
<defs>
<clipPath id="clip0_59_51">
<rect width="100" height="163" fill="white"/>
</clipPath>
</defs>
</svg>
