<svg width="30" height="42" viewBox="0 0 30 42" fill="none" xmlns="http://www.w3.org/2000/svg">
<path d="M14.6812 41.0007C14.2785 40.8231 14.0182 40.5033 13.776 40.1438C11.5425 36.8212 9.13268 33.6206 6.94385 30.267C5.05891 27.3798 3.30785 24.4177 2.07425 21.1786C1.20722 18.9001 0.61326 16.5595 0.6887 14.0938C0.815142 9.93251 2.41426 6.43556 5.48499 3.66389C8.40165 1.03236 11.8666 -0.179646 15.7725 0.0214636C22.1976 0.35201 27.4455 4.9572 28.915 11.0033C29.7257 14.3398 29.2401 17.5618 28.0926 20.7261C26.9376 23.9117 25.2662 26.8268 23.4461 29.6626C21.3901 32.8665 19.1226 35.9227 16.9604 39.0538C16.7107 39.4153 16.4546 39.7726 16.223 40.1449C15.9935 40.5129 15.7193 40.8242 15.3177 41.0018C15.1063 41.0007 14.8937 41.0007 14.6812 41.0007ZM3.06878 14.5473C3.09428 15.539 3.23879 16.659 3.51186 17.7629C4.18763 20.4897 5.39467 22.9864 6.77597 25.4051C9.16986 29.5974 12.077 33.443 14.8172 37.401C14.9957 37.6588 15.0723 37.5594 15.2019 37.3732C17.3525 34.2678 19.604 31.233 21.6302 28.0409C23.4142 25.2297 25.0527 22.3424 26.0939 19.1536C26.8526 16.8269 27.1575 14.4671 26.6953 12.0281C25.4755 5.59155 18.8464 1.21528 12.503 2.67974C6.94491 3.96235 3.08578 8.75902 3.06878 14.5473Z" fill="white"/>
<path d="M15.0085 7.21143C18.9771 7.2125 22.1605 10.4345 22.1562 14.4449C22.152 18.4147 18.9484 21.6228 14.9905 21.6218C11.024 21.6207 7.83853 18.3965 7.84278 14.3872C7.84703 10.4195 11.0516 7.21036 15.0085 7.21143ZM10.2271 14.3882C10.2112 17.0016 12.3532 19.1935 14.9511 19.2224C17.5607 19.2512 19.7559 17.0754 19.7719 14.4449C19.7889 11.8166 17.6202 9.61618 15.0075 9.6119C12.4127 9.60655 10.243 11.7749 10.2271 14.3882Z" fill="white"/>
</svg>
