<svg width="230" height="230" viewBox="0 0 230 230" fill="none" xmlns="http://www.w3.org/2000/svg">
<g filter="url(#filter0_d_13_31)">
<rect x="12" y="4" width="189.547" height="189.547" rx="17" fill="#F8FDFF"/>
<g clip-path="url(#clip0_13_31)">
<path d="M140.849 102.798C137.001 102.798 133.153 102.817 129.304 102.782C128.523 102.775 128.086 102.956 127.774 103.742C127.092 105.465 126.208 107.098 125.163 108.63C124.807 109.154 124.781 109.529 125.292 109.962C125.781 110.376 126.25 110.828 126.649 111.329C127.726 112.684 128.928 113.495 130.822 113.227C132.281 113.02 133.509 113.912 134.529 114.934C139.785 120.197 145.064 125.434 150.256 130.758C154.04 134.638 153.915 140.56 150.102 144.32C146.331 148.038 140.56 147.989 136.724 144.158C131.519 138.96 126.35 133.723 121.164 128.508C119.676 127.012 118.981 125.253 119.434 123.135C119.521 122.728 119.454 122.447 119.168 122.166C118.139 121.147 117.097 120.142 116.113 119.082C115.544 118.471 115.123 118.855 114.657 119.156C110.516 121.826 106.002 123.569 101.148 124.231C91.0273 125.612 81.9226 123.09 73.9753 116.592C69.7669 113.149 66.6099 108.872 64.4366 103.881C64.0765 103.057 63.636 102.795 62.7455 102.779C56.0809 102.662 50.294 97.0727 49.7957 90.3453C49.2846 83.4239 54.0298 77.1555 60.6815 75.9206C61.5978 75.7492 62.5108 75.6296 63.4271 75.7072C64.2051 75.7719 64.5298 75.4357 64.8577 74.7762C70.3553 63.6974 79.2124 57.1251 91.3391 55.2243C105.748 52.9645 120.402 60.7944 126.954 74.107C127.552 75.3257 128.182 75.7557 129.542 75.7428C136.879 75.6652 144.212 75.6878 151.548 75.7104C159.534 75.7331 165.479 81.9497 165.225 89.9767C165.013 96.6783 159.184 102.598 152.513 102.766C148.626 102.863 144.736 102.785 140.849 102.785C140.849 102.785 140.849 102.792 140.849 102.798ZM65.3721 89.689C65.0217 106.108 78.5308 120.546 95.7661 120.714C113.246 120.882 126.845 106.441 126.842 89.841C126.835 72.9917 113.381 58.8417 96.1551 58.8062C78.8105 58.7706 65.1792 72.9884 65.3721 89.689ZM142.151 89.2138C142.151 92.1168 142.148 95.0199 142.154 97.9229C142.154 98.382 142.016 98.9542 142.801 98.9283C146.36 98.8087 149.938 99.2387 153.481 98.7053C158.322 97.9747 161.717 93.494 161.36 88.5705C160.994 83.495 156.86 79.6415 151.896 79.5866C149.05 79.5542 146.202 79.6124 143.357 79.5607C142.444 79.5445 142.103 79.7547 142.125 80.7536C142.196 83.5661 142.151 86.3916 142.151 89.2138ZM149.147 138.01C149.163 135.953 148.616 134.596 147.53 133.493C143.72 129.64 139.885 125.812 136.078 121.955C135.631 121.503 135.352 121.37 134.837 121.901C132.629 124.176 130.391 126.423 128.131 128.647C127.613 129.158 127.591 129.481 128.121 130.008C131.989 133.862 135.795 137.777 139.692 141.601C141.431 143.308 143.572 143.638 145.8 142.661C147.99 141.698 149.031 139.897 149.147 138.01ZM138.3 89.2688C138.3 86.3657 138.271 83.4627 138.319 80.5629C138.332 79.7547 138.071 79.5445 137.297 79.5575C134.892 79.6027 132.487 79.606 130.082 79.5542C129.301 79.5381 129.243 79.8129 129.417 80.4497C131.008 86.2752 131.092 92.1265 129.677 97.9973C129.52 98.6471 129.645 98.9477 130.404 98.9348C132.728 98.896 135.053 98.8895 137.377 98.938C138.139 98.9542 138.319 98.6923 138.313 97.9682C138.277 95.0716 138.3 92.1718 138.3 89.2688ZM53.6279 89.1815C53.6119 93.9498 57.1322 98.091 61.6814 98.7505C62.5815 98.8798 62.6426 98.5954 62.4562 97.8809C61.945 95.9283 61.6621 93.9401 61.5624 91.9261C61.3759 88.0823 61.6267 84.2806 62.7101 80.5629C62.9223 79.829 62.7648 79.5348 61.9128 79.6641C57.174 80.3883 53.644 84.4163 53.6279 89.1815ZM123.161 124.225C123.193 125.065 123.742 125.547 124.234 126.077C124.614 126.488 124.9 126.53 125.315 126.106C127.594 123.785 129.896 121.483 132.191 119.175C132.461 118.904 132.635 118.661 132.365 118.238C131.507 116.909 129.996 116.644 128.877 117.737C127.179 119.392 125.527 121.092 123.855 122.773C123.444 123.184 123.164 123.656 123.161 124.225ZM125.308 115.745C125.315 115.406 125.099 115.264 124.938 115.096C124.549 114.691 124.151 114.297 123.755 113.899C122.386 112.519 122.338 112.477 121.084 113.919C120.367 114.74 118.795 115.283 119.004 116.285C119.203 117.245 120.511 117.96 121.293 118.816C121.685 119.246 121.949 119.24 122.344 118.816C123.19 117.908 124.086 117.048 124.961 116.162C125.096 116.02 125.212 115.862 125.308 115.745Z" fill="#4A9AD4"/>
<path d="M65.3726 89.6889C65.1797 72.9883 78.811 58.7705 96.1524 58.806C113.378 58.8384 126.836 72.9915 126.839 89.8408C126.845 106.444 113.243 120.882 95.7634 120.714C78.5313 120.546 65.0222 106.108 65.3726 89.6889ZM122.942 89.7471C123.2 75.3838 111.346 62.5593 95.8984 62.6789C81.3541 62.7921 69.1727 74.2814 69.1373 89.7309C69.1019 105.151 81.4826 117.067 96.6604 116.851C111.115 116.641 123.241 104.272 122.942 89.7471Z" fill="#BED8F1"/>
<path d="M142.152 89.2137C142.152 86.3915 142.197 83.5692 142.126 80.747C142.1 79.7513 142.441 79.538 143.357 79.5541C146.203 79.6058 149.051 79.5476 151.896 79.58C156.86 79.6349 160.994 83.4884 161.361 88.5639C161.718 93.4874 158.323 97.9681 153.481 98.6987C149.938 99.2353 146.363 98.8021 142.801 98.9218C142.02 98.9476 142.158 98.3786 142.155 97.9164C142.148 95.0165 142.152 92.1135 142.152 89.2137ZM155.622 89.4271C155.6 88.829 155.323 88.3635 154.912 87.9497C153.494 86.5305 152.092 85.0983 150.668 83.6889C149.736 82.7707 148.421 82.6673 147.669 83.4108C146.919 84.1576 147.016 85.4863 147.916 86.427C148.72 87.2675 149.533 88.0984 150.379 88.8969C150.835 89.3268 150.845 89.6372 150.382 90.0736C149.507 90.898 148.662 91.7547 147.836 92.6307C146.997 93.5165 146.942 94.8355 147.665 95.5597C148.389 96.2838 149.704 96.2288 150.578 95.3722C152.067 93.9142 153.526 92.4238 154.992 90.94C155.404 90.5262 155.645 90.0316 155.622 89.4271Z" fill="#BFD9F1"/>
<path d="M149.147 138.009C149.032 139.897 147.99 141.701 145.797 142.661C143.569 143.638 141.428 143.311 139.689 141.601C135.793 137.777 131.986 133.862 128.118 130.008C127.588 129.481 127.611 129.158 128.128 128.647C130.388 126.423 132.626 124.176 134.834 121.9C135.349 121.37 135.629 121.503 136.075 121.955C139.882 125.812 143.721 129.64 147.527 133.493C148.617 134.596 149.163 135.953 149.147 138.009Z" fill="#FDFEFF"/>
<path d="M53.6284 89.1813C53.6445 84.4162 57.1745 80.3882 61.9133 79.664C62.7653 79.5347 62.926 79.8289 62.7106 80.5627C61.6272 84.2772 61.3764 88.0822 61.5629 91.926C61.6593 93.94 61.9422 95.9314 62.4566 97.8808C62.6431 98.5952 62.582 98.8797 61.6818 98.7504C57.1327 98.0877 53.6123 93.9497 53.6284 89.1813Z" fill="#FBFCFE"/>
<path d="M123.161 124.225C123.164 123.656 123.447 123.184 123.855 122.773C125.527 121.092 127.18 119.392 128.877 117.737C129.996 116.644 131.507 116.909 132.365 118.238C132.639 118.658 132.462 118.904 132.192 119.175C129.896 121.483 127.594 123.785 125.315 126.106C124.9 126.53 124.614 126.488 124.235 126.077C123.743 125.547 123.193 125.065 123.161 124.225Z" fill="#BCD7F1"/>
<path d="M125.309 115.745C125.212 115.858 125.096 116.02 124.958 116.159C124.087 117.045 123.19 117.905 122.341 118.813C121.946 119.237 121.682 119.24 121.29 118.813C120.509 117.956 119.2 117.242 119.001 116.282C118.792 115.283 120.367 114.74 121.081 113.915C122.335 112.474 122.383 112.516 123.753 113.896C124.148 114.294 124.547 114.688 124.936 115.092C125.1 115.263 125.315 115.406 125.309 115.745Z" fill="#FDFDFE"/>
<path d="M122.942 89.7471C123.245 104.272 111.115 116.641 96.6603 116.848C81.4826 117.067 69.1019 105.148 69.1373 89.7277C69.1726 74.2782 81.354 62.7889 95.8984 62.6757C111.346 62.5593 123.196 75.3838 122.942 89.7471ZM73.0466 89.6792C72.9695 102.478 83.148 112.865 95.8663 112.968C108.597 113.072 119.017 102.824 119.113 90.0995C119.21 77.1974 109.012 66.6133 96.4032 66.5324C83.4759 66.4484 73.1238 76.706 73.0466 89.6792Z" fill="#4B9AD4"/>
<path d="M155.622 89.427C155.648 90.0316 155.404 90.5262 154.992 90.94C153.526 92.4238 152.07 93.9142 150.578 95.3721C149.704 96.2288 148.389 96.2838 147.665 95.5596C146.942 94.8355 146.997 93.5165 147.836 92.6307C148.662 91.7579 149.507 90.898 150.382 90.0736C150.845 89.6372 150.835 89.3268 150.379 88.8969C149.533 88.1016 148.72 87.2675 147.916 86.427C147.013 85.4863 146.916 84.1544 147.669 83.4108C148.418 82.664 149.736 82.7707 150.668 83.6888C152.095 85.0983 153.497 86.5305 154.912 87.9497C155.323 88.3635 155.6 88.8322 155.622 89.427Z" fill="#4B9AD4"/>
<path d="M84.5561 94.5801C81.9231 94.5898 79.7337 92.4303 79.6919 89.7859C79.6533 87.1608 81.952 84.8947 84.6301 84.9173C87.1634 84.9399 89.3528 87.1738 89.3528 89.7374C89.3496 92.4012 87.202 94.5704 84.5561 94.5801ZM85.5238 89.7665C85.4595 89.2234 85.1412 88.858 84.6108 88.8225C84.0128 88.7805 83.5788 89.1458 83.5756 89.7471C83.5691 90.2546 83.8585 90.6652 84.4597 90.7007C85.1123 90.7428 85.3856 90.3451 85.5238 89.7665Z" fill="#4B9AD4"/>
<path d="M96.027 94.5801C93.4165 94.5672 91.2078 92.3172 91.24 89.7115C91.2721 87.1027 93.5001 84.9205 96.1331 84.9173C98.7147 84.9141 100.962 87.2223 100.901 89.8117C100.833 92.5047 98.6986 94.593 96.027 94.5801ZM97.0783 89.7309C96.9851 89.2331 96.6893 88.8516 96.1492 88.8193C95.5512 88.7869 95.1204 89.1523 95.1204 89.7536C95.1204 90.2611 95.4097 90.6684 96.0109 90.7008C96.67 90.7363 96.9368 90.3355 97.0783 89.7309Z" fill="#4B9AD4"/>
<path d="M107.633 94.5801C105.003 94.5833 102.811 92.4076 102.785 89.7729C102.759 87.1414 105.061 84.8882 107.736 84.9205C110.269 84.9496 112.455 87.1964 112.442 89.7535C112.43 92.4238 110.285 94.5769 107.633 94.5801ZM107.572 88.7966C107.051 88.9195 106.633 89.2072 106.665 89.7632C106.697 90.3354 107.025 90.746 107.688 90.7007C108.34 90.6587 108.636 90.2191 108.588 89.6468C108.54 89.1102 108.112 88.8387 107.572 88.7966Z" fill="#4B9AD4"/>
<path d="M85.5238 89.7665C85.3856 90.3419 85.1123 90.7395 84.4565 90.7007C83.8553 90.6619 83.5691 90.2514 83.5724 89.7471C83.5788 89.1458 84.0096 88.7805 84.6076 88.8225C85.1412 88.8613 85.4595 89.2266 85.5238 89.7665Z" fill="#BAD6F0"/>
<path d="M97.0783 89.7309C96.9368 90.3354 96.67 90.7363 96.0109 90.7007C95.4097 90.6684 95.1204 90.2611 95.1204 89.7535C95.1204 89.1522 95.5512 88.7869 96.1492 88.8192C96.6861 88.8516 96.9851 89.233 97.0783 89.7309Z" fill="#BAD6F0"/>
<path d="M107.572 88.7966C108.112 88.8387 108.54 89.1134 108.585 89.6469C108.633 90.2191 108.337 90.6587 107.684 90.7007C107.025 90.7428 106.694 90.3354 106.662 89.7632C106.633 89.204 107.051 88.9195 107.572 88.7966Z" fill="#BAD6F0"/>
</g>
</g>
<defs>
<filter id="filter0_d_13_31" x="0" y="0" width="229.547" height="229.547" filterUnits="userSpaceOnUse" color-interpolation-filters="sRGB">
<feFlood flood-opacity="0" result="BackgroundImageFix"/>
<feColorMatrix in="SourceAlpha" type="matrix" values="0 0 0 0 0 0 0 0 0 0 0 0 0 0 0 0 0 0 127 0" result="hardAlpha"/>
<feOffset dx="8" dy="16"/>
<feGaussianBlur stdDeviation="10"/>
<feComposite in2="hardAlpha" operator="out"/>
<feColorMatrix type="matrix" values="0 0 0 0 0 0 0 0 0 0 0 0 0 0 0 0 0 0 0.08 0"/>
<feBlend mode="normal" in2="BackgroundImageFix" result="effect1_dropShadow_13_31"/>
<feBlend mode="normal" in="SourceGraphic" in2="effect1_dropShadow_13_31" result="shape"/>
</filter>
<clipPath id="clip0_13_31">
<rect width="115.471" height="92.2315" fill="white" transform="translate(49.7641 54.8362)"/>
</clipPath>
</defs>
</svg>
