<svg width="230" height="230" viewBox="0 0 230 230" fill="none" xmlns="http://www.w3.org/2000/svg">
<g filter="url(#filter0_d_13_89)">
<rect x="12" y="4" width="189.547" height="189.547" rx="17" fill="#F8FDFF"/>
<g clip-path="url(#clip0_13_89)">
<path d="M82.0416 86.0762C82.0416 85.5128 82.0416 85.2187 82.0416 84.9247C82.0416 80.3037 82.0342 75.6803 82.044 71.0593C82.0489 68.472 83.7112 66.7867 86.2843 66.7768C90.2822 66.7595 94.2825 66.7571 98.2805 66.7867C98.9366 66.7917 99.2401 66.6088 99.4287 65.949C100.19 63.2901 101.01 60.6485 101.818 58.0044C102.628 55.3504 104.68 54.2384 107.282 55.0415C120.943 59.2548 134.607 63.4705 148.268 67.6862C151.213 68.5956 152.258 70.5922 151.35 73.5922C145.656 92.4146 139.961 111.237 134.257 130.057C134.012 130.86 133.88 131.658 133.892 132.501C133.921 134.535 133.904 136.568 133.899 138.602C133.892 141.409 132.237 143.095 129.463 143.097C121.71 143.104 113.959 143.097 106.205 143.102C104.673 143.102 104.905 142.964 104.927 144.434C104.942 145.42 104.962 146.406 104.993 147.392C105.015 148.052 104.883 148.637 104.242 148.944C103.595 149.253 103.01 149.094 102.46 148.647C100.369 146.947 98.2584 145.272 96.175 143.559C95.7417 143.203 95.3034 143.075 94.7575 143.08C92.133 143.1 89.5061 143.018 86.8841 143.107C83.7577 143.216 81.924 141.165 82.0073 138.251C82.1419 133.509 82.0367 128.762 82.0538 124.018C82.0563 123.412 81.924 122.883 81.6547 122.345C75.2919 109.663 68.9486 96.9689 62.5833 84.2871C61.6138 82.3572 61.6138 80.5162 62.7938 78.695C63.2737 77.9537 63.942 77.4249 64.7157 77.0295C66.5371 76.0954 68.3512 75.149 70.1849 74.2396C72.9563 72.8607 75.8378 73.8121 77.248 76.5822C78.6704 79.3746 80.0536 82.1842 81.454 84.9865C81.5984 85.2756 81.76 85.5573 82.0416 86.0762ZM131.118 110.397C131.118 101.185 131.103 91.9723 131.138 82.76C131.14 81.8111 130.868 81.559 129.948 81.5763C126.927 81.6332 123.906 81.601 120.882 81.5961C119.582 81.5936 119.215 81.218 119.213 79.8836C119.208 76.8343 119.173 73.7824 119.232 70.7331C119.252 69.7669 118.933 69.5568 118.03 69.5593C107.713 69.589 97.3967 69.5791 87.08 69.5791C85.2193 69.5791 84.8203 69.9819 84.8178 71.85C84.8178 78.1662 84.8252 84.4824 84.808 90.7985C84.8056 91.4978 84.9574 92.1131 85.2707 92.7359C91.4745 105.109 97.6635 117.489 103.867 129.859C104.22 130.564 104.416 131.258 104.403 132.059C104.367 134.367 104.668 136.665 104.597 138.978C104.57 139.835 104.859 140.228 105.872 140.223C113.503 140.169 121.134 140.194 128.765 140.194C130.783 140.194 131.116 139.86 131.118 137.851C131.118 128.698 131.118 119.547 131.118 110.397ZM133.889 120.61C133.936 120.617 133.985 120.627 134.031 120.635C134.213 120.064 134.399 119.496 134.573 118.92C139.234 103.507 143.898 88.0926 148.554 72.6779C148.988 71.2397 148.804 70.911 147.374 70.4687C140.003 68.1928 132.631 65.9169 125.26 63.6484C118.995 61.721 112.727 59.7984 106.457 57.8784C105.493 57.5818 104.94 57.7647 104.678 58.5925C103.828 61.2836 103.03 63.9894 102.183 66.7843C102.609 66.7843 102.939 66.7843 103.267 66.7843C108.822 66.7843 114.38 66.7966 119.935 66.7719C120.76 66.767 121.379 67.0165 121.962 67.6096C125.639 71.3509 129.331 75.0748 133.045 78.779C133.659 79.3919 133.904 80.0393 133.902 80.9042C133.882 93.8157 133.887 106.727 133.887 119.641C133.889 119.963 133.889 120.286 133.889 120.61ZM97.0441 132.405C96.8948 132.096 96.7773 131.846 96.6524 131.599C92.7255 123.775 88.7986 115.952 84.8741 108.128C81.995 102.39 79.1209 96.6501 76.2418 90.9146C76.1071 90.6478 76.0092 90.156 75.735 90.2203C75.216 90.3389 74.6798 90.586 74.2759 90.9295C73.9747 91.184 74.3812 91.5398 74.5207 91.8191C78.8197 100.419 83.131 109.011 87.4398 117.603C89.9737 122.654 92.5052 127.707 95.0488 132.753C95.1639 132.983 95.1835 133.484 95.6291 133.26C96.1187 133.01 96.7087 132.889 97.0441 132.405ZM92.7035 134.554C92.6055 134.349 92.5149 134.154 92.4195 133.961C85.567 120.294 78.712 106.626 71.8693 92.9508C71.6196 92.4542 71.4507 92.3034 70.868 92.5654C70.0307 92.941 70.3832 93.361 70.6354 93.8602C76.9052 106.379 83.1726 118.897 89.4376 131.419C90.0276 132.6 90.62 133.781 91.2076 134.962C91.3349 135.219 91.4573 135.491 91.8123 135.244C92.1183 135.031 92.5933 135.036 92.7035 134.554ZM79.6815 88.147C78.8001 88.189 78.4525 88.8612 78.8246 89.6074C83.4077 98.753 87.9907 107.896 92.5737 117.042C94.8163 121.517 97.0637 125.992 99.2891 130.477C99.556 131.013 99.7592 131.189 100.371 130.882C101.035 130.549 100.876 130.237 100.626 129.743C96.765 122.058 92.9189 114.365 89.0679 106.673C86.0835 100.713 83.1016 94.7523 80.1075 88.7944C79.9851 88.5523 79.9802 88.1717 79.6815 88.147ZM64.8087 81.7938C64.8111 81.8284 64.7793 82.0359 64.8552 82.1916C65.4868 83.5186 66.1356 84.8357 66.7819 86.1553C66.9558 86.5087 67.1835 86.3085 67.3891 86.2022C70.2388 84.7468 73.0812 83.2814 75.9358 81.8407C76.3666 81.6233 76.4352 81.4206 76.2075 80.9931C75.6444 79.9404 75.145 78.8507 74.5819 77.798C73.9503 76.6168 72.8314 76.2091 71.6441 76.7824C69.7516 77.6967 67.8861 78.6678 66.023 79.6414C65.2347 80.0541 64.772 80.7065 64.8087 81.7938ZM93.5089 137.663C95.3108 139.104 97.0686 140.416 98.7089 141.866C99.4825 142.551 100.051 142.588 100.929 142.109C101.652 141.716 101.997 141.333 101.865 140.497C101.784 139.986 101.84 139.455 101.821 138.933C101.752 137.174 101.676 135.414 101.598 133.536C98.8558 134.935 96.2338 136.272 93.5089 137.663ZM85.0382 129.032C84.9672 129.051 84.8962 129.069 84.8276 129.088C84.8276 132.308 84.8031 135.526 84.8423 138.745C84.8545 139.739 85.3858 140.171 86.3749 140.184C87.7752 140.201 89.1781 140.196 90.5784 140.184C90.953 140.181 91.3521 140.287 91.9053 139.954C89.7534 138.889 88.9993 136.885 88.069 135.002C87.08 132.998 86.0493 131.021 85.0382 129.032ZM121.984 71.9513C121.984 74.0469 121.986 76.1646 121.981 78.2799C121.981 78.606 122.065 78.8087 122.437 78.8062C124.557 78.8013 126.68 78.8037 128.758 78.8037C126.501 76.5204 124.271 74.2643 121.984 71.9513ZM77.6985 84.2328C77.5099 84.3217 77.3998 84.3687 77.2896 84.423C74.4399 85.8736 71.5976 87.339 68.7356 88.7673C68.1897 89.0391 68.339 89.3257 68.53 89.7112C68.7209 90.0942 68.8507 90.3834 69.3966 90.0942C71.3356 89.0687 73.3015 88.1025 75.2576 87.1091C76.1806 86.6421 77.1011 86.1676 78.0241 85.6981C78.2566 85.5795 78.4745 85.4659 78.2787 85.1495C78.0877 84.8382 78.0363 84.4156 77.6985 84.2328Z" fill="#3B80C2"/>
<path d="M131.118 110.397C131.118 119.548 131.118 128.698 131.118 137.849C131.118 139.858 130.783 140.192 128.765 140.192C121.134 140.192 113.503 140.167 105.872 140.221C104.859 140.229 104.57 139.833 104.597 138.976C104.668 136.665 104.367 134.365 104.403 132.057C104.416 131.256 104.22 130.562 103.867 129.857C97.6636 117.485 91.4745 105.104 85.2708 92.7339C84.9574 92.1112 84.8081 91.4959 84.8081 90.7966C84.8252 84.4804 84.8179 78.1643 84.8179 71.8481C84.8179 69.98 85.2194 69.5772 87.08 69.5772C97.3967 69.5772 107.713 69.587 118.03 69.5574C118.934 69.5549 119.252 69.765 119.232 70.7312C119.171 73.7805 119.205 76.8323 119.213 79.8817C119.215 81.2161 119.582 81.5917 120.882 81.5942C123.903 81.5991 126.927 81.6312 129.948 81.5744C130.868 81.5571 131.14 81.8092 131.138 82.7581C131.106 91.9728 131.118 101.185 131.118 110.397ZM107.412 87.3099C104.484 87.3099 101.556 87.3099 98.6282 87.3099C96.3415 87.3099 94.0525 87.3 91.7659 87.3148C90.5687 87.3222 89.9101 88.0512 90.1182 89.0915C90.2725 89.8576 90.8649 90.248 91.9519 90.248C102.32 90.2529 112.691 90.2505 123.059 90.2505C123.211 90.2505 123.367 90.2628 123.514 90.2332C124.285 90.075 124.782 89.6129 124.868 88.8172C124.941 88.1253 124.285 87.4334 123.512 87.3271C123.242 87.2901 122.963 87.3123 122.689 87.3123C117.599 87.3098 112.505 87.3099 107.412 87.3099ZM107.513 95.8278C104.43 95.8278 101.346 95.8278 98.2634 95.8278C96.0649 95.8278 93.8664 95.8129 91.6704 95.8352C90.5736 95.8451 89.9101 96.6482 90.1231 97.6317C90.2871 98.3953 90.8796 98.761 91.9739 98.7634C102.293 98.7659 112.61 98.7634 122.929 98.7634C123.113 98.7634 123.299 98.7758 123.477 98.7536C124.239 98.6547 124.895 97.9628 124.883 97.2833C124.873 96.6012 124.209 95.9217 123.448 95.8377C123.206 95.8105 122.961 95.8278 122.716 95.8278C117.648 95.8278 112.58 95.8278 107.513 95.8278ZM102.014 81.609C105.49 81.609 108.964 81.6164 112.441 81.6041C113.428 81.6016 113.932 81.1148 113.932 80.2548C113.932 79.4295 113.361 78.8636 112.478 78.8068C112.387 78.8018 112.294 78.8043 112.203 78.8043C105.405 78.8043 98.6061 78.8018 91.8075 78.8068C90.6691 78.8068 90.0839 79.3208 90.1035 80.2573C90.1231 81.2013 90.6103 81.6065 91.7707 81.609C95.1835 81.6115 98.5988 81.609 102.014 81.609Z" fill="#9FC5E8"/>
<path d="M133.89 120.611C133.89 120.287 133.89 119.966 133.89 119.642C133.89 106.73 133.882 93.8188 133.904 80.9048C133.907 80.0374 133.662 79.3924 133.047 78.7796C129.333 75.0754 125.642 71.3514 121.964 67.6102C121.382 67.0171 120.765 66.77 119.937 66.7725C114.382 66.7972 108.825 66.7848 103.27 66.7848C102.939 66.7848 102.611 66.7848 102.185 66.7848C103.032 63.99 103.831 61.2841 104.68 58.5931C104.942 57.7653 105.493 57.5849 106.46 57.8789C112.727 59.799 118.995 61.7191 125.262 63.649C132.636 65.9175 140.008 68.1958 147.377 70.4693C148.806 70.9116 148.992 71.2402 148.557 72.6784C143.9 88.0932 139.236 103.506 134.575 118.92C134.401 119.494 134.215 120.062 134.034 120.635C133.985 120.628 133.938 120.618 133.89 120.611Z" fill="#FDFEFF"/>
<path d="M97.0441 132.405C96.7087 132.889 96.1187 133.011 95.6315 133.258C95.186 133.483 95.1664 132.981 95.0513 132.751C92.5076 127.705 89.9762 122.652 87.4423 117.601C83.1335 109.006 78.8222 100.414 74.5232 91.8171C74.3836 91.5404 73.9772 91.1845 74.2784 90.9275C74.6823 90.5841 75.2185 90.3345 75.7375 90.2183C76.0141 90.1566 76.1121 90.6483 76.2443 90.9127C79.1258 96.6506 82 102.389 84.8766 108.126C88.8011 115.95 92.728 123.774 96.6549 131.597C96.7773 131.847 96.8948 132.096 97.0441 132.405Z" fill="#F8F9FC"/>
<path d="M92.7035 134.555C92.5933 135.037 92.1184 135.032 91.8148 135.244C91.4598 135.492 91.3398 135.22 91.2101 134.963C90.6201 133.782 90.0301 132.6 89.44 131.419C83.1727 118.9 76.9077 106.379 70.6379 93.8607C70.3882 93.3616 70.0356 92.939 70.8705 92.5659C71.4531 92.3039 71.6221 92.4547 71.8718 92.9514C78.712 106.626 85.5694 120.294 92.4195 133.962C92.515 134.155 92.6056 134.35 92.7035 134.555Z" fill="#F6F7FC"/>
<path d="M79.6815 88.1475C79.9802 88.1722 79.9876 88.5528 80.11 88.7974C83.1041 94.7528 86.086 100.716 89.0704 106.676C92.9214 114.366 96.7675 122.061 100.628 129.746C100.876 130.24 101.035 130.552 100.374 130.885C99.7616 131.192 99.5584 131.016 99.2916 130.48C97.0662 125.995 94.8187 121.52 92.5762 117.045C87.9932 107.899 83.4101 98.756 78.8271 89.6104C78.4501 88.8617 78.8002 88.1895 79.6815 88.1475Z" fill="#F6F8FC"/>
<path d="M64.8087 81.7943C64.772 80.707 65.2372 80.0547 66.0206 79.6445C67.8837 78.6708 69.7492 77.6997 71.6416 76.7854C72.829 76.2121 73.9478 76.6198 74.5795 77.801C75.145 78.8537 75.642 79.941 76.2051 80.9962C76.4328 81.4212 76.3642 81.6263 75.9333 81.8438C73.0787 83.2844 70.2339 84.7498 67.3867 86.2053C67.181 86.3115 66.9533 86.5117 66.7795 86.1583C66.1332 84.8387 65.4844 83.5216 64.8528 82.1947C64.7793 82.0365 64.8112 81.8289 64.8087 81.7943Z" fill="#FBFBFE"/>
<path d="M93.5089 137.664C96.2338 136.275 98.8558 134.936 101.598 133.539C101.676 135.42 101.752 137.179 101.821 138.936C101.84 139.458 101.784 139.989 101.865 140.5C101.997 141.336 101.652 141.719 100.929 142.112C100.048 142.589 99.4825 142.552 98.7089 141.869C97.0686 140.416 95.3084 139.104 93.5089 137.664Z" fill="#FBFCFE"/>
<path d="M85.0382 129.032C86.0493 131.021 87.0825 132.998 88.0691 135C88.9994 136.883 89.751 138.887 91.9054 139.952C91.3521 140.285 90.9531 140.179 90.5785 140.182C89.1781 140.197 87.7753 140.199 86.3749 140.182C85.3859 140.169 84.857 139.737 84.8424 138.744C84.8007 135.526 84.8277 132.306 84.8277 129.086C84.8962 129.069 84.9672 129.052 85.0382 129.032Z" fill="#9DC3E8"/>
<path d="M121.984 71.9519C124.271 74.2649 126.501 76.521 128.758 78.8043C126.68 78.8043 124.559 78.8018 122.437 78.8068C122.062 78.8068 121.979 78.6066 121.981 78.2804C121.986 76.1651 121.984 74.0499 121.984 71.9519Z" fill="#A1C6E9"/>
<path d="M77.6985 84.2333C78.0364 84.4162 78.0878 84.8388 78.2812 85.1526C78.477 85.4689 78.2591 85.5826 78.0266 85.7012C77.1036 86.1682 76.1831 86.6427 75.2601 87.1122C73.304 88.1031 71.3356 89.0718 69.3991 90.0973C68.8532 90.3864 68.7234 90.0973 68.5325 89.7143C68.339 89.3288 68.1922 89.0421 68.7381 88.7703C71.6 87.342 74.4424 85.8766 77.2921 84.4261C77.3974 84.3692 77.51 84.3198 77.6985 84.2333Z" fill="#F3F5FB"/>
<path d="M107.412 87.3098C112.505 87.3098 117.599 87.3098 122.691 87.3098C122.966 87.3098 123.245 87.2876 123.514 87.3247C124.288 87.4334 124.944 88.1253 124.87 88.8147C124.785 89.6104 124.285 90.0725 123.517 90.2307C123.37 90.2603 123.213 90.248 123.061 90.248C112.693 90.248 102.322 90.2505 91.9543 90.2455C90.8673 90.2455 90.2724 89.8551 90.1206 89.089C89.9125 88.0487 90.5711 87.3173 91.7683 87.3123C94.0549 87.2975 96.344 87.3074 98.6306 87.3074C101.556 87.3098 104.484 87.3098 107.412 87.3098Z" fill="#3B80C3"/>
<path d="M107.513 95.8278C112.58 95.8278 117.648 95.8278 122.716 95.8278C122.961 95.8278 123.206 95.8105 123.448 95.8376C124.209 95.9217 124.87 96.6012 124.883 97.2832C124.892 97.9628 124.236 98.6547 123.477 98.7535C123.296 98.7783 123.113 98.7634 122.929 98.7634C112.61 98.7634 102.293 98.7634 91.9739 98.7634C90.8796 98.7634 90.2871 98.3952 90.1231 97.6317C89.9101 96.6482 90.5736 95.845 91.6704 95.8352C93.8688 95.8129 96.0673 95.8278 98.2633 95.8278C101.346 95.8278 104.428 95.8278 107.513 95.8278Z" fill="#3C80C3"/>
<path d="M102.014 81.609C98.5987 81.609 95.1835 81.6139 91.7707 81.6065C90.6103 81.6041 90.1231 81.1988 90.1035 80.2548C90.0839 79.3183 90.669 78.8043 91.8074 78.8043C98.6061 78.7994 105.405 78.8018 112.203 78.8018C112.294 78.8018 112.387 78.7994 112.478 78.8043C113.361 78.8611 113.932 79.427 113.932 80.2524C113.932 81.1123 113.427 81.5991 112.441 81.6016C108.964 81.6164 105.488 81.609 102.014 81.609Z" fill="#387FC2"/>
</g>
</g>
<defs>
<filter id="filter0_d_13_89" x="0" y="0" width="229.547" height="229.547" filterUnits="userSpaceOnUse" color-interpolation-filters="sRGB">
<feFlood flood-opacity="0" result="BackgroundImageFix"/>
<feColorMatrix in="SourceAlpha" type="matrix" values="0 0 0 0 0 0 0 0 0 0 0 0 0 0 0 0 0 0 127 0" result="hardAlpha"/>
<feOffset dx="8" dy="16"/>
<feGaussianBlur stdDeviation="10"/>
<feComposite in2="hardAlpha" operator="out"/>
<feColorMatrix type="matrix" values="0 0 0 0 0 0 0 0 0 0 0 0 0 0 0 0 0 0 0.08 0"/>
<feBlend mode="normal" in2="BackgroundImageFix" result="effect1_dropShadow_13_89"/>
<feBlend mode="normal" in="SourceGraphic" in2="effect1_dropShadow_13_89" result="shape"/>
</filter>
<clipPath id="clip0_13_89">
<rect width="89.7852" height="94.3198" fill="white" transform="translate(61.8807 54.7875)"/>
</clipPath>
</defs>
</svg>
