<svg width="100" height="163" viewBox="0 0 100 163" fill="none" xmlns="http://www.w3.org/2000/svg">
<g clip-path="url(#clip0_58_188)">
<path d="M5.64925 10.9265C8.54639 10.9265 10.895 8.57113 10.895 5.6656C10.895 2.76006 8.54639 0.404663 5.64925 0.404663C2.7521 0.404663 0.403503 2.76006 0.403503 5.6656C0.403503 8.57113 2.7521 10.9265 5.64925 10.9265Z" fill="#34A260" stroke="white" stroke-miterlimit="10"/>
<path d="M5.64925 36.2033C8.54639 36.2033 10.895 33.8479 10.895 30.9424C10.895 28.0369 8.54639 25.6815 5.64925 25.6815C2.7521 25.6815 0.403503 28.0369 0.403503 30.9424C0.403503 33.8479 2.7521 36.2033 5.64925 36.2033Z" fill="#34A260" stroke="white" stroke-miterlimit="10"/>
<path d="M5.64925 61.4801C8.54639 61.4801 10.895 59.1247 10.895 56.2191C10.895 53.3136 8.54639 50.9582 5.64925 50.9582C2.7521 50.9582 0.403503 53.3136 0.403503 56.2191C0.403503 59.1247 2.7521 61.4801 5.64925 61.4801Z" fill="#34A260" stroke="white" stroke-miterlimit="10"/>
<path d="M5.64925 86.7569C8.54639 86.7569 10.895 84.4015 10.895 81.4959C10.895 78.5904 8.54639 76.235 5.64925 76.235C2.7521 76.235 0.403503 78.5904 0.403503 81.4959C0.403503 84.4015 2.7521 86.7569 5.64925 86.7569Z" fill="#34A260" stroke="white" stroke-miterlimit="10"/>
<path d="M5.64925 112.042C8.54639 112.042 10.895 109.686 10.895 106.781C10.895 103.875 8.54639 101.52 5.64925 101.52C2.7521 101.52 0.403503 103.875 0.403503 106.781C0.403503 109.686 2.7521 112.042 5.64925 112.042Z" fill="#34A260" stroke="white" stroke-miterlimit="10"/>
<path d="M5.64925 137.319C8.54639 137.319 10.895 134.963 10.895 132.058C10.895 129.152 8.54639 126.797 5.64925 126.797C2.7521 126.797 0.403503 129.152 0.403503 132.058C0.403503 134.963 2.7521 137.319 5.64925 137.319Z" fill="#34A260" stroke="white" stroke-miterlimit="10"/>
<path d="M35.2191 10.9265C38.1162 10.9265 40.4648 8.57113 40.4648 5.6656C40.4648 2.76006 38.1162 0.404663 35.2191 0.404663C32.3219 0.404663 29.9733 2.76006 29.9733 5.6656C29.9733 8.57113 32.3219 10.9265 35.2191 10.9265Z" fill="#34A260" stroke="white" stroke-miterlimit="10"/>
<path d="M35.2191 36.2033C38.1162 36.2033 40.4648 33.8479 40.4648 30.9424C40.4648 28.0369 38.1162 25.6815 35.2191 25.6815C32.3219 25.6815 29.9733 28.0369 29.9733 30.9424C29.9733 33.8479 32.3219 36.2033 35.2191 36.2033Z" fill="#34A260" stroke="white" stroke-miterlimit="10"/>
<path d="M35.2191 61.4801C38.1162 61.4801 40.4648 59.1247 40.4648 56.2191C40.4648 53.3136 38.1162 50.9582 35.2191 50.9582C32.3219 50.9582 29.9733 53.3136 29.9733 56.2191C29.9733 59.1247 32.3219 61.4801 35.2191 61.4801Z" fill="#34A260" stroke="white" stroke-miterlimit="10"/>
<path d="M35.2191 86.7569C38.1162 86.7569 40.4648 84.4015 40.4648 81.4959C40.4648 78.5904 38.1162 76.235 35.2191 76.235C32.3219 76.235 29.9733 78.5904 29.9733 81.4959C29.9733 84.4015 32.3219 86.7569 35.2191 86.7569Z" fill="#34A260" stroke="white" stroke-miterlimit="10"/>
<path d="M35.2191 112.042C38.1162 112.042 40.4648 109.686 40.4648 106.781C40.4648 103.875 38.1162 101.52 35.2191 101.52C32.3219 101.52 29.9733 103.875 29.9733 106.781C29.9733 109.686 32.3219 112.042 35.2191 112.042Z" fill="#34A260" stroke="white" stroke-miterlimit="10"/>
<path d="M35.2191 137.319C38.1162 137.319 40.4648 134.963 40.4648 132.058C40.4648 129.152 38.1162 126.797 35.2191 126.797C32.3219 126.797 29.9733 129.152 29.9733 132.058C29.9733 134.963 32.3219 137.319 35.2191 137.319Z" fill="#34A260" stroke="white" stroke-miterlimit="10"/>
<path d="M64.789 10.9265C67.6861 10.9265 70.0347 8.57113 70.0347 5.6656C70.0347 2.76006 67.6861 0.404663 64.789 0.404663C61.8918 0.404663 59.5432 2.76006 59.5432 5.6656C59.5432 8.57113 61.8918 10.9265 64.789 10.9265Z" fill="#34A260" stroke="white" stroke-miterlimit="10"/>
<path d="M64.789 36.2033C67.6861 36.2033 70.0347 33.8479 70.0347 30.9424C70.0347 28.0369 67.6861 25.6815 64.789 25.6815C61.8918 25.6815 59.5432 28.0369 59.5432 30.9424C59.5432 33.8479 61.8918 36.2033 64.789 36.2033Z" fill="#34A260" stroke="white" stroke-miterlimit="10"/>
<path d="M64.789 61.4801C67.6861 61.4801 70.0347 59.1247 70.0347 56.2191C70.0347 53.3136 67.6861 50.9582 64.789 50.9582C61.8918 50.9582 59.5432 53.3136 59.5432 56.2191C59.5432 59.1247 61.8918 61.4801 64.789 61.4801Z" fill="#34A260" stroke="white" stroke-miterlimit="10"/>
<path d="M64.789 86.7569C67.6861 86.7569 70.0347 84.4015 70.0347 81.4959C70.0347 78.5904 67.6861 76.235 64.789 76.235C61.8918 76.235 59.5432 78.5904 59.5432 81.4959C59.5432 84.4015 61.8918 86.7569 64.789 86.7569Z" fill="#34A260" stroke="white" stroke-miterlimit="10"/>
<path d="M64.789 112.042C67.6861 112.042 70.0347 109.686 70.0347 106.781C70.0347 103.875 67.6861 101.52 64.789 101.52C61.8918 101.52 59.5432 103.875 59.5432 106.781C59.5432 109.686 61.8918 112.042 64.789 112.042Z" fill="#34A260" stroke="white" stroke-miterlimit="10"/>
<path d="M64.789 137.319C67.6861 137.319 70.0347 134.963 70.0347 132.058C70.0347 129.152 67.6861 126.797 64.789 126.797C61.8918 126.797 59.5432 129.152 59.5432 132.058C59.5432 134.963 61.8918 137.319 64.789 137.319Z" fill="#34A260" stroke="white" stroke-miterlimit="10"/>
<path d="M94.3507 10.9265C97.2479 10.9265 99.5965 8.57113 99.5965 5.6656C99.5965 2.76006 97.2479 0.404663 94.3507 0.404663C91.4536 0.404663 89.105 2.76006 89.105 5.6656C89.105 8.57113 91.4536 10.9265 94.3507 10.9265Z" fill="#34A260" stroke="white" stroke-miterlimit="10"/>
<path d="M94.3507 36.2033C97.2479 36.2033 99.5965 33.8479 99.5965 30.9424C99.5965 28.0369 97.2479 25.6815 94.3507 25.6815C91.4536 25.6815 89.105 28.0369 89.105 30.9424C89.105 33.8479 91.4536 36.2033 94.3507 36.2033Z" fill="#34A260" stroke="white" stroke-miterlimit="10"/>
<path d="M94.3507 61.4801C97.2479 61.4801 99.5965 59.1247 99.5965 56.2191C99.5965 53.3136 97.2479 50.9582 94.3507 50.9582C91.4536 50.9582 89.105 53.3136 89.105 56.2191C89.105 59.1247 91.4536 61.4801 94.3507 61.4801Z" fill="#34A260" stroke="white" stroke-miterlimit="10"/>
<path d="M94.3507 86.7569C97.2479 86.7569 99.5965 84.4015 99.5965 81.4959C99.5965 78.5904 97.2479 76.235 94.3507 76.235C91.4536 76.235 89.105 78.5904 89.105 81.4959C89.105 84.4015 91.4536 86.7569 94.3507 86.7569Z" fill="#34A260" stroke="white" stroke-miterlimit="10"/>
<path d="M94.3507 112.042C97.2479 112.042 99.5965 109.686 99.5965 106.781C99.5965 103.875 97.2479 101.52 94.3507 101.52C91.4536 101.52 89.105 103.875 89.105 106.781C89.105 109.686 91.4536 112.042 94.3507 112.042Z" fill="#34A260" stroke="white" stroke-miterlimit="10"/>
<path d="M94.3507 137.319C97.2479 137.319 99.5965 134.963 99.5965 132.058C99.5965 129.152 97.2479 126.797 94.3507 126.797C91.4536 126.797 89.105 129.152 89.105 132.058C89.105 134.963 91.4536 137.319 94.3507 137.319Z" fill="#34A260" stroke="white" stroke-miterlimit="10"/>
<path d="M5.64925 162.595C8.54639 162.595 10.895 160.24 10.895 157.334C10.895 154.429 8.54639 152.073 5.64925 152.073C2.7521 152.073 0.403503 154.429 0.403503 157.334C0.403503 160.24 2.7521 162.595 5.64925 162.595Z" fill="#34A260" stroke="white" stroke-miterlimit="10"/>
<path d="M35.2191 162.595C38.1162 162.595 40.4648 160.24 40.4648 157.334C40.4648 154.429 38.1162 152.073 35.2191 152.073C32.3219 152.073 29.9733 154.429 29.9733 157.334C29.9733 160.24 32.3219 162.595 35.2191 162.595Z" fill="#34A260" stroke="white" stroke-miterlimit="10"/>
<path d="M64.789 162.595C67.6861 162.595 70.0347 160.24 70.0347 157.334C70.0347 154.429 67.6861 152.073 64.789 152.073C61.8918 152.073 59.5432 154.429 59.5432 157.334C59.5432 160.24 61.8918 162.595 64.789 162.595Z" fill="#34A260" stroke="white" stroke-miterlimit="10"/>
<path d="M94.3507 162.595C97.2479 162.595 99.5965 160.24 99.5965 157.334C99.5965 154.429 97.2479 152.073 94.3507 152.073C91.4536 152.073 89.105 154.429 89.105 157.334C89.105 160.24 91.4536 162.595 94.3507 162.595Z" fill="#34A260" stroke="white" stroke-miterlimit="10"/>
</g>
<defs>
<clipPath id="clip0_58_188">
<rect width="100" height="163" fill="white"/>
</clipPath>
</defs>
</svg>
