<svg width="230" height="230" viewBox="0 0 230 230" fill="none" xmlns="http://www.w3.org/2000/svg">
<g filter="url(#filter0_d_14_184)">
<rect x="12" y="4" width="189.547" height="189.547" rx="17" fill="#F8FDFF"/>
<g clip-path="url(#clip0_14_184)">
<path d="M109.453 147.225C102.901 147.235 96.3505 147.25 89.798 147.25C84.3549 147.25 78.9118 147.23 73.4688 147.219C73.4662 147.061 73.4433 146.898 73.4688 146.745C73.6163 145.817 73.3135 145.442 72.3007 145.516C70.947 145.613 69.5754 145.62 68.2216 145.521C66.3869 145.386 65.7075 144.947 65.8474 143.123C65.8627 142.934 65.8729 142.738 65.8449 142.552C65.7024 141.628 65.9976 141.281 67.0104 141.317C69.3795 141.401 71.7562 141.348 74.1278 141.34C74.4001 141.34 74.7487 141.463 74.9269 141.179C75.7259 139.894 76.787 138.81 77.6573 137.578C78.1332 137.563 78.6065 137.535 79.0823 137.535C87.6732 137.532 96.264 137.545 104.855 137.524C107.723 137.519 107.308 137.902 107.351 135.066C107.372 133.793 107.282 133.716 106.008 133.714C101.063 133.703 96.1164 133.696 91.1721 133.688C91.1645 133.252 91.5563 133.053 91.7574 132.747C93.3529 130.321 93.5463 127.5 94.0298 124.758C94.4802 124.618 94.9331 124.48 95.381 124.335C98.1445 123.44 100.547 121.996 102.364 119.68C103.842 117.798 104.633 115.617 105.071 113.288C105.321 113.283 105.57 113.278 105.819 113.273C107.201 113.581 108.575 113.915 109.919 114.372C111.059 114.76 111.163 114.683 111.163 113.469C111.166 106.779 111.163 100.091 111.166 93.4004C111.166 93.0203 111.189 92.6377 110.975 92.2934C111.105 91.9746 111.234 91.6557 111.362 91.3369C112.392 90.0488 113.156 88.5363 114.588 87.2966C114.588 87.8374 114.588 88.1741 114.588 88.5107C114.588 97.3845 114.624 106.256 114.553 115.13C114.542 116.53 115.112 117.221 116.263 117.68C116.39 120.414 116.166 123.141 116.128 125.873C116.074 129.62 115.967 133.367 115.886 137.116C114.242 137.126 112.588 137.244 110.954 137.124C108.537 136.948 105.819 138.764 105.86 142.238C105.891 144.814 106.092 145.074 108.585 145.181C108.667 146.038 109.183 146.602 109.847 147.066C109.715 147.12 109.583 147.174 109.453 147.225Z" fill="#4267B1"/>
<path d="M122.596 58.5124C124.327 59.1501 125.833 60.2162 127.447 61.0758C130.152 62.5118 132.798 64.0626 135.478 65.5497C139.732 67.9116 143.997 70.2557 148.247 72.6252C149.697 73.4338 150.392 75.1223 149.715 76.589C148.298 79.6651 146.707 82.657 145.058 85.6158C144.745 85.2816 144.336 85.4143 143.977 85.4347C143.147 85.4806 143.048 85.1949 143.409 84.4986C144.272 82.8355 145.084 81.1445 145.934 79.4738C146.524 78.3132 147.168 77.1833 147.735 76.0125C148.153 75.1529 147.766 74.653 146.453 73.9873C145.646 73.5792 145.343 73.9414 145.007 74.6122C143.806 77.0277 142.562 79.4228 141.325 81.8229C140.236 83.9349 139.152 86.0494 138.035 88.1486C135.427 93.0484 132.803 97.938 130.185 102.83C129.342 102.764 128.503 102.695 127.66 102.629C127.787 102.338 127.897 102.04 128.047 101.761C131.795 94.8058 135.549 87.8553 139.297 80.8996C140.005 79.586 140.692 78.2622 141.391 76.9461C141.615 76.5277 141.618 76.163 141.18 75.8748C140.72 75.5712 140.404 75.8034 140.124 76.1528C140.007 76.3007 139.915 76.4716 139.824 76.6374C138.264 79.5069 136.702 82.379 135.144 85.251C132.742 89.6866 130.314 94.1095 127.961 98.5706C127.225 99.9658 126.306 101.277 125.823 102.802L125.826 102.795C125.762 102.853 125.698 102.909 125.635 102.968C125.396 103.047 125.154 103.124 124.915 103.208C121.133 104.539 118.53 106.893 118.067 111.117C117.889 112.74 118.054 114.349 118.204 115.959C117.576 116.071 117.003 116.446 116.329 116.339C116.342 114.244 116.194 112.145 116.464 110.056C117.298 109.021 117.815 107.799 118.461 106.654C118.698 106.235 118.601 105.845 118.192 105.587C117.756 105.312 117.423 105.516 117.138 105.878C116.896 106.184 116.838 106.651 116.38 106.774C116.395 105.792 116.415 104.812 116.426 103.83C116.448 101.453 116.464 99.0756 116.484 96.6984C116.543 96.6296 116.604 96.5632 116.662 96.4944C118.25 93.5713 119.853 90.6559 121.421 87.7226C122.271 86.1336 123.22 84.593 123.93 82.9299C126.085 78.9764 128.243 75.0229 130.396 71.0693C130.66 70.5821 130.755 70.0465 130.197 69.7302C129.582 69.3833 129.296 69.8756 129.042 70.3449C127.955 72.3523 126.861 74.3571 125.775 76.3645C123.764 80.0732 121.746 83.7793 119.756 87.4982C118.769 89.3397 117.833 91.2068 116.876 93.0637C116.751 93.2066 116.624 93.3519 116.499 93.4948C116.459 93.4591 116.41 93.4412 116.357 93.4387C116.329 90.8344 116.301 88.2277 116.273 85.6234C116.291 85.0521 116.308 84.4807 116.329 83.9068C116.403 83.8048 116.487 83.7104 116.545 83.6007C119.278 78.5606 122.016 73.5231 124.731 68.4753C125.034 67.9116 125.719 67.2051 124.754 66.6975C123.828 66.2103 123.647 67.2102 123.372 67.705C121.835 70.475 120.372 73.2859 118.866 76.0712C117.965 77.7393 117.026 79.3896 116.107 81.0475C115.275 79.3921 113.944 78.5861 112.087 78.6754C113.112 76.7088 114.14 74.7423 115.166 72.7732C117.644 68.0187 120.12 63.2643 122.596 58.5124ZM132.691 79.8997C133.778 77.8975 134.864 75.8926 135.956 73.8929C136.213 73.4236 136.142 73.0104 135.676 72.7528C135.17 72.4747 134.826 72.7732 134.595 73.2017C133.388 75.431 132.192 77.6653 130.991 79.8997C128.439 84.6159 125.887 89.3321 123.337 94.0508C122.342 95.895 121.36 97.7442 120.365 99.5883C120.087 100.104 119.881 100.652 120.533 100.981C121.194 101.318 121.497 100.779 121.754 100.277C121.782 100.221 121.81 100.162 121.841 100.106C123.23 97.5376 124.627 94.9742 126.006 92.4031C128.24 88.2379 130.465 84.0675 132.691 79.8997Z" fill="#D8E4F4"/>
<path d="M77.6598 137.578C76.7896 138.81 75.7284 139.891 74.9294 141.18C74.7538 141.463 74.4052 141.34 74.1304 141.34C71.7562 141.348 69.382 141.401 67.0129 141.317C66.0001 141.282 65.7049 141.628 65.8474 142.552C65.8754 142.738 65.8653 142.932 65.85 143.123C65.71 144.944 66.3895 145.386 68.2242 145.521C69.5779 145.62 70.9495 145.615 72.3033 145.516C73.3161 145.442 73.6189 145.817 73.4713 146.745C73.4459 146.901 73.4713 147.061 73.4713 147.219C71.4457 147.23 69.4202 147.286 67.3946 147.237C65.5014 147.191 63.9669 145.641 64 143.697C64.0763 139.417 64.2596 135.137 64.3995 130.857C64.7125 130.811 64.8779 130.576 65.051 130.344C66.1681 128.834 67.0282 127.179 67.7331 125.447C69.2319 121.764 69.8451 117.854 70.6162 113.982C71.3185 110.447 72.0183 106.916 73.6774 103.649C75.3696 100.315 78.0517 98.7109 81.7161 98.6089C81.6066 98.7237 81.5074 98.8461 81.3878 98.9481C76.3748 103.2 74.4968 108.615 75.5834 115.048C76.4435 120.139 80.202 123.878 85.271 124.97C88.2177 125.603 91.1237 125.304 94.0349 124.758C93.5514 127.498 93.358 130.319 91.7625 132.747C91.5614 133.053 91.1696 133.249 91.1772 133.688C90.9253 133.696 90.6708 133.709 90.4189 133.709C85.0369 133.711 79.6523 133.724 74.2703 133.696C73.3772 133.691 72.97 133.976 73.054 134.905C73.1023 135.441 73.0845 135.984 73.0591 136.522C73.0234 137.244 73.3059 137.56 74.0566 137.542C75.2551 137.519 76.4562 137.563 77.6598 137.578Z" fill="#5073B8"/>
<path d="M127.663 102.626C128.505 102.692 129.345 102.761 130.187 102.828C131.9 103.317 133.518 104.006 134.956 105.082C137.976 107.804 138.447 111.334 137.961 115.081C137.564 118.137 136.49 121.011 135.152 123.781C134.434 123.641 134.536 123.2 134.75 122.705C136.053 119.703 137.058 116.617 137.193 113.316C137.228 112.449 137.03 111.569 136.915 110.696C136.89 110.503 136.869 110.217 136.511 110.342C136.009 110.515 135.177 111.742 135.149 112.314C135.093 113.449 135.215 114.581 135.025 115.726C134.658 117.93 133.923 120.004 133.106 122.067C132.877 122.644 132.62 122.886 132.012 122.832C131.584 122.794 131.149 122.741 130.94 123.34C130.518 124.549 129.762 125.551 128.925 126.526C127.632 128.033 127.011 129.77 127.485 131.806C127.612 132.352 127.566 132.936 127.449 133.507C127.205 134.708 126.999 135.917 126.775 137.124C125.742 137.119 124.708 137.116 123.673 137.111C124.042 133.953 123.617 130.905 122.428 127.962C122.299 127.544 122.194 127.115 122.039 126.707C120.945 123.825 119.647 121.022 118.749 118.068C118.634 117.527 118.555 116.976 118.296 116.476C118.27 116.303 118.242 116.132 118.217 115.958C118.067 114.346 117.901 112.739 118.08 111.117C118.54 106.896 121.146 104.542 124.927 103.208C125.166 103.123 125.408 103.047 125.647 102.968C125.711 102.909 125.775 102.853 125.838 102.794L125.836 102.802C126.454 102.884 127.055 102.703 127.663 102.626Z" fill="#F2A46C"/>
<path d="M81.7135 98.6114C78.0492 98.7134 75.3671 100.318 73.6749 103.651C72.0157 106.919 71.3185 110.449 70.6136 113.984C69.8426 117.856 69.2293 121.766 67.7305 125.449C67.0256 127.181 66.1681 128.837 65.0484 130.347C64.8754 130.579 64.71 130.811 64.397 130.859C64.4428 127.72 64.4708 124.577 64.5395 121.437C64.8041 109.498 64.7201 97.558 64.6464 85.6183C64.6464 85.427 64.6616 85.2382 64.6693 85.0469C65.1553 85.177 65.6439 85.2995 66.1274 85.4372C69.4609 86.3886 72.7639 87.4267 75.932 88.8525C75.563 88.9112 75.1762 88.8347 74.8225 89.0387C74.4281 89.2657 74.339 89.6152 74.4128 90.0105C74.5223 90.5921 74.9778 90.7349 75.4791 90.74C77.4054 90.763 79.3342 90.7732 81.2606 90.7859C81.314 91.2272 81.7186 91.268 82.0062 91.4159C83.3727 92.1148 84.7926 92.7244 86.1082 93.5075C87.1235 94.112 88.3704 94.4921 88.8844 95.747C86.2889 96.1678 83.9147 97.1703 81.7135 98.6114Z" fill="#6082C1"/>
<path d="M75.9371 88.8526C72.769 87.4267 69.466 86.3886 66.1324 85.4372C65.6489 85.2995 65.1604 85.177 64.6743 85.047C64.4529 83.9808 64.4962 82.9019 64.6133 81.8357C64.7914 80.2109 66.2495 78.6754 68.5015 78.6882C79.3164 78.7468 90.1338 78.7137 100.949 78.7111C101.361 78.7111 101.771 78.6779 102.183 78.6601C103.211 78.6907 104.239 78.7188 105.27 78.7468C103.936 79.3819 102.557 79.9405 101.28 80.6751C99.9894 81.4148 98.572 82.0525 97.8417 83.5013C97.7144 83.5089 97.5898 83.5217 97.4625 83.5217C92.1136 83.5217 86.7647 83.5242 81.4183 83.5166C80.7414 83.5166 80.1536 83.6747 80.1689 84.4629C80.1841 85.2383 80.8127 85.274 81.4183 85.2714C83.6017 85.2638 85.785 85.2612 87.9683 85.2714C90.5613 85.2842 93.1544 85.3122 95.7474 85.3352C95.7983 85.7663 95.47 86.0315 95.2665 86.3299C94.7244 87.1385 94.2231 87.9649 93.8389 88.8602C87.8716 88.8551 81.9044 88.8526 75.9371 88.8526Z" fill="#6F8FC9"/>
<path d="M123.673 137.111C124.706 137.116 125.739 137.119 126.775 137.124C128.663 137.127 130.548 137.127 132.437 137.129C136.554 137.137 140.671 137.147 144.788 137.152C148.453 137.157 150.588 139.812 149.86 143.462C149.506 143.205 149.639 142.825 149.639 142.496C149.636 141.728 149.476 140.986 149.239 140.266C148.796 138.922 148.366 138.782 147.076 139.379C145.066 140.31 142.982 140.991 140.788 141.399C139.697 141.6 138.531 141.236 137.526 141.81C136.243 142.542 135.129 142.271 134.007 141.47C133.116 140.835 132.152 140.437 130.994 140.603C129.197 140.861 127.541 141.486 125.904 142.251C123.983 143.149 121.983 143.498 119.828 143.115C117.914 142.779 115.993 142.45 114.018 142.465C111.799 142.483 110.168 143.419 108.883 145.133C108.784 145.151 108.687 145.169 108.588 145.187C106.097 145.082 105.893 144.819 105.863 142.243C105.822 138.769 108.54 136.953 110.957 137.129C112.593 137.246 114.245 137.132 115.889 137.121C116.344 137.121 116.8 137.121 117.255 137.121C119.393 137.116 121.533 137.114 123.673 137.111Z" fill="#FDE446"/>
<path d="M105.267 78.7442C104.239 78.7162 103.211 78.6856 102.18 78.6575C104.987 73.2501 107.799 67.8452 110.603 62.4378C111.479 60.7467 112.329 59.0429 113.209 57.3543C114.313 55.2347 115.945 54.7016 118.013 55.8571C119.553 56.7192 121.184 57.4283 122.599 58.5149C120.123 63.2693 117.647 68.0212 115.171 72.7757C114.145 74.7422 113.117 76.7088 112.092 78.6779C110.802 78.7468 109.509 78.7646 108.219 78.6601C108.486 78.1219 108.738 77.5735 109.02 77.0429C111.405 72.5997 113.797 68.1615 116.184 63.7208C116.446 63.2362 116.754 62.726 116.079 62.3281C115.395 61.9226 115.102 62.4455 114.838 62.9301C113.985 64.4886 113.14 66.0496 112.301 67.6131C110.321 71.2988 108.349 74.9896 106.371 78.6754C106.005 78.6983 105.636 78.7213 105.267 78.7442Z" fill="#F286B2"/>
<path d="M134.956 105.085C133.521 104.009 131.9 103.32 130.187 102.83C132.806 97.938 135.429 93.0484 138.037 88.1486C139.155 86.0494 140.239 83.9349 141.328 81.8229C142.564 79.4253 143.809 77.0302 145.01 74.6122C145.343 73.9414 145.649 73.5792 146.455 73.9873C147.768 74.653 148.155 75.1529 147.738 76.0125C147.17 77.1833 146.524 78.3132 145.936 79.4738C145.086 81.1444 144.277 82.8355 143.412 84.4986C143.05 85.1949 143.15 85.4806 143.979 85.4347C144.338 85.4143 144.748 85.2816 145.061 85.6158C142.961 89.6611 140.849 93.7014 138.763 97.7544C137.501 100.203 136.076 102.565 134.956 105.085Z" fill="#CFDEF1"/>
<path d="M108.878 145.128C110.163 143.414 111.794 142.478 114.013 142.46C115.988 142.445 117.909 142.774 119.823 143.11C121.978 143.49 123.978 143.143 125.899 142.246C127.536 141.48 129.192 140.856 130.989 140.598C132.147 140.432 133.111 140.83 134.002 141.465C135.124 142.266 136.238 142.536 137.521 141.804C138.526 141.23 139.692 141.595 140.783 141.394C142.977 140.988 145.061 140.307 147.071 139.374C148.361 138.777 148.791 138.917 149.234 140.261C149.471 140.981 149.631 141.72 149.634 142.491C149.636 142.822 149.501 143.202 149.855 143.457C149.791 144.705 149.356 145.133 148.127 145.159C147.845 145.164 147.565 145.179 147.282 145.189C146.87 145.179 146.46 145.159 146.048 145.159C134.701 145.156 123.357 145.159 112.01 145.156C110.97 145.156 109.924 145.138 108.878 145.128Z" fill="#FCDD16"/>
<path d="M132.434 137.129C130.546 137.127 128.66 137.127 126.772 137.124C126.994 135.917 127.2 134.708 127.446 133.507C127.564 132.936 127.609 132.354 127.482 131.806C127.009 129.77 127.63 128.033 128.922 126.526C129.76 125.552 130.515 124.549 130.938 123.34C131.149 122.741 131.582 122.794 132.009 122.833C132.615 122.886 132.874 122.644 133.103 122.067C133.923 120.004 134.656 117.93 135.022 115.726C135.213 114.581 135.091 113.449 135.147 112.314C135.175 111.742 136.007 110.515 136.508 110.342C136.867 110.22 136.887 110.503 136.913 110.697C137.027 111.569 137.226 112.446 137.19 113.316C137.055 116.614 136.05 119.703 134.747 122.705C134.533 123.2 134.432 123.641 135.149 123.781C134.343 126.082 133.317 128.304 132.78 130.701C132.304 132.829 132.091 134.961 132.434 137.129Z" fill="#EF8E49"/>
<path d="M108.878 145.128C109.924 145.138 110.967 145.159 112.013 145.159C123.36 145.161 134.704 145.159 146.051 145.161C146.463 145.161 146.873 145.181 147.285 145.192C146.829 146.589 146.214 147.11 144.827 147.115C133.251 147.163 121.675 147.199 110.099 147.237C110.013 147.181 109.929 147.125 109.845 147.066C109.181 146.602 108.664 146.036 108.583 145.181C108.682 145.164 108.781 145.146 108.878 145.128Z" fill="#444446"/>
<path d="M109.845 147.069C109.929 147.125 110.015 147.181 110.099 147.24C109.883 147.235 109.667 147.232 109.451 147.227C109.583 147.174 109.715 147.12 109.845 147.069Z" fill="#5073B8"/>
<path d="M81.7135 98.6114C83.9147 97.1703 86.2889 96.1679 88.8921 95.7495C89.0168 95.7393 89.144 95.7291 89.2687 95.7189C90.9863 95.4282 92.6887 95.594 94.3479 96.0301C99.455 97.3743 102.529 100.874 104.275 105.695C105.163 108.151 105.336 110.704 105.074 113.293C104.636 115.622 103.845 117.8 102.366 119.685C100.547 122.001 98.1471 123.447 95.3835 124.34C94.9331 124.485 94.4827 124.623 94.0323 124.763C91.1238 125.309 88.2152 125.608 85.2684 124.975C80.1994 123.886 76.441 120.144 75.5808 115.053C74.4943 108.62 76.3697 103.205 81.3853 98.9532C81.5049 98.8486 81.6041 98.7236 81.7135 98.6114ZM92.5081 101.659C92.9508 101.665 93.3936 101.672 93.8364 101.67C94.1239 101.667 94.241 101.537 94.1265 101.246C93.6074 99.9352 92.9788 98.6981 91.7955 97.8513C91.3782 97.5529 91.0729 97.5529 91.1696 98.2084C91.1594 98.9302 91.1441 99.6495 91.1416 100.371C91.1339 101.751 91.1365 101.751 92.5081 101.659ZM95.6635 108.72C95.6202 107.526 95.4802 106.345 95.2334 105.174C94.8695 103.453 94.8695 103.453 93.0679 103.58C92.7193 103.567 92.3681 103.585 92.0246 103.539C91.3222 103.447 91.0881 103.705 91.1136 104.432C91.167 105.955 91.1517 107.483 91.111 109.008C91.0932 109.651 91.2561 109.926 91.9508 109.878C92.8669 109.814 93.7931 109.788 94.7067 109.852C95.6253 109.918 95.9434 109.607 95.6635 108.72ZM100.31 111.569C99.679 111.564 99.0479 111.587 98.4193 111.548C97.8366 111.513 97.6127 111.681 97.5771 112.324C97.4651 114.306 97.2819 116.29 96.6839 118.201C96.4803 118.846 96.7755 118.892 97.2666 118.802C97.6788 118.808 98.0911 118.82 98.5033 118.818C101.025 118.808 101.285 118.629 102.249 116.259C102.262 116.231 102.264 116.198 102.269 116.168C102.824 115.086 103.127 113.933 103.208 112.722C103.32 112.247 103.702 111.553 102.967 111.449C102.109 111.321 101.183 111.25 100.31 111.569ZM80.0188 112C80.0188 111.992 80.0188 111.985 80.0188 111.977C79.291 111.977 78.5607 112.005 77.8329 111.969C77.268 111.941 77.0288 112.11 77.0771 112.717C77.2374 114.803 77.7566 116.772 78.8457 118.575C79.0263 118.874 79.235 119.032 79.604 119.024C80.744 119.001 81.8866 118.996 83.0266 119.012C83.5228 119.019 83.622 118.81 83.5101 118.369C83.192 117.106 83.0724 115.813 82.9146 114.522C82.8128 113.681 83.2022 112.49 82.6067 112.089C81.996 111.684 80.9018 112 80.0188 112ZM81.7161 103.72C81.7161 103.718 81.7161 103.715 81.7161 103.713C81.1461 103.713 80.5761 103.718 80.006 103.71C79.6701 103.705 79.403 103.766 79.2121 104.098C78.2553 105.763 77.5988 107.534 77.2654 109.429C77.1484 110.094 77.4105 110.255 78.0263 110.219C79.3521 110.143 80.6829 110.064 82.0113 110.092C82.7543 110.107 82.9528 109.783 82.9579 109.148C82.9681 107.97 83.2073 106.819 83.3752 105.659C83.4668 105.011 84.0063 104.182 83.6169 103.787C83.2887 103.46 82.3726 103.72 81.7161 103.72ZM100.384 109.697C100.384 109.684 100.384 109.674 100.384 109.661C101.017 109.661 101.656 109.607 102.282 109.674C103.175 109.768 103.298 109.329 103.152 108.605C102.834 107.013 102.336 105.485 101.605 104.029C101.353 103.527 101.02 103.351 100.478 103.391C99.5645 103.458 98.6458 103.542 97.7323 103.501C96.9104 103.463 96.7551 103.789 96.9129 104.506C97.2157 105.899 97.4524 107.304 97.4702 108.735C97.4804 109.429 97.7017 109.796 98.483 109.712C99.1115 109.643 99.7502 109.697 100.384 109.697ZM89.2661 115.415C89.2687 115.415 89.2687 115.415 89.2712 115.415C89.2712 114.433 89.2483 113.449 89.2814 112.467C89.2992 111.949 89.1618 111.722 88.5994 111.75C87.5256 111.801 86.4492 111.821 85.3753 111.796C84.757 111.78 84.6577 112.059 84.6577 112.602C84.6628 114.479 84.9351 116.321 85.2913 118.157C85.416 118.802 85.7061 119.058 86.383 118.991C87.1032 118.92 87.836 118.938 88.5638 118.966C89.088 118.986 89.2992 118.818 89.2789 118.267C89.2381 117.318 89.2661 116.367 89.2661 115.415ZM91.1212 115.234C91.0932 115.234 91.0652 115.234 91.0372 115.234C91.0372 116.216 91.0525 117.198 91.0296 118.18C91.0194 118.649 91.1492 118.887 91.6683 118.864C92.4572 118.831 93.2486 118.828 94.04 118.848C94.4573 118.859 94.6659 118.695 94.783 118.297C95.3683 116.316 95.6889 114.293 95.7576 112.227C95.7754 111.704 95.5668 111.569 95.0909 111.594C93.956 111.656 92.8185 111.707 91.681 111.724C91.1925 111.732 91.111 111.979 91.1161 112.385C91.1314 113.334 91.1212 114.283 91.1212 115.234ZM89.2738 106.48C89.1593 105.697 89.714 104.422 89.0575 103.71C88.5613 103.169 87.3169 103.621 86.4059 103.583C86.3754 103.58 86.3423 103.585 86.3118 103.585C85.9072 103.56 85.6985 103.723 85.584 104.144C85.1158 105.86 84.9096 107.615 84.7061 109.373C84.6526 109.839 84.7697 110.074 85.3041 110.051C86.3779 110.005 87.4518 110 88.5256 109.995C89.0702 109.992 89.317 109.786 89.284 109.197C89.2407 108.375 89.2738 107.549 89.2738 106.48ZM94.6558 98.1242C95.2054 99.1572 95.6864 100.185 96.0528 101.269C96.1291 101.494 96.2513 101.659 96.521 101.659C97.6076 101.657 98.6967 101.659 99.9767 101.659C98.4219 99.8791 96.7679 98.6828 94.6558 98.1242ZM81.0188 101.833C82.1232 101.833 83.0597 101.833 83.9961 101.833C84.2302 101.833 84.4033 101.784 84.5203 101.529C84.9834 100.514 85.472 99.5118 86.0064 98.3869C84.0699 99.1929 82.4209 100.167 81.0188 101.833ZM89.2814 97.8334C87.7393 98.8537 87.0217 100.231 86.355 101.802C87.266 101.802 88.0218 101.795 88.775 101.805C89.1338 101.81 89.2865 101.659 89.284 101.297C89.2738 100.198 89.2814 99.1011 89.2814 97.8334ZM85.4466 123.172C85.0598 122.422 84.7417 121.805 84.4211 121.187C84.3193 120.996 84.248 120.769 83.963 120.769C82.9706 120.772 81.9756 120.769 80.7109 120.769C82.2148 122.095 83.6933 122.743 85.4466 123.172ZM86.2481 120.731C86.7545 121.886 87.3449 122.746 88.3577 123.246C88.9226 123.524 89.3323 123.554 89.2687 122.715C89.2356 122.276 89.2407 121.83 89.2687 121.391C89.2992 120.925 89.1694 120.695 88.6452 120.721C87.8971 120.756 87.1413 120.731 86.2481 120.731ZM93.6303 120.754C90.4265 120.705 91.1034 120.307 91.0525 122.952C91.0525 122.996 91.1187 123.039 91.2026 123.144C92.2409 122.644 93.0246 121.886 93.6303 120.754ZM94.6685 122.679C96.1928 122.177 97.4778 121.588 98.7552 120.631C95.8823 120.425 95.6177 120.557 94.6685 122.679Z" fill="#CFDEF1"/>
<path d="M105.074 113.29C105.336 110.702 105.163 108.148 104.275 105.692C102.529 100.871 99.455 97.3717 94.3479 96.0275C92.6913 95.5914 90.9863 95.4256 89.2687 95.7164C89.2687 95.3083 89.6122 95.1348 89.8311 94.8746C90.8845 93.6172 91.9406 92.3622 92.5055 90.7834C96.493 90.7706 100.478 90.7579 104.466 90.74C104.779 90.7375 105.104 90.7349 105.402 90.6558C105.804 90.5487 106.023 90.2605 106.025 89.8116C106.025 89.3652 105.809 89.0719 105.404 88.9647C105.107 88.8857 104.781 88.8831 104.468 88.8831C100.923 88.8704 97.3811 88.8627 93.8364 88.8525C94.2206 87.9572 94.7219 87.1308 95.2639 86.3223C95.465 86.0213 95.7958 85.7586 95.7449 85.3275C96.9358 85.3071 98.1293 85.279 99.3202 85.2663C99.8927 85.2612 100.244 84.9602 100.249 84.422C100.257 83.8813 99.88 83.565 99.3431 83.5267C98.8418 83.491 98.3379 83.5038 97.8366 83.4961C98.5669 82.0499 99.9843 81.4097 101.274 80.67C102.552 79.9354 103.931 79.3768 105.265 78.7417C105.634 78.7187 106.002 78.6932 106.371 78.6703C106.987 78.7289 107.603 78.7595 108.216 78.6524C109.507 78.757 110.799 78.7366 112.089 78.6703C113.944 78.581 115.278 79.387 116.11 81.0424C116.38 81.981 116.26 82.9477 116.334 83.9017C116.316 84.473 116.298 85.0444 116.28 85.6183C115.542 85.7229 115.349 86.6105 114.606 86.8196C114.54 85.4168 114.591 84.0649 114.43 82.7131C114.222 80.9429 113.776 80.4557 112.013 80.4481C111.344 80.4455 111.148 80.6598 111.153 81.3204C111.183 84.3965 111.163 87.4726 111.168 90.5487C111.168 90.8242 111.087 91.1303 111.364 91.3394C111.234 91.6583 111.105 91.9771 110.977 92.2959C109.883 93.9462 109.204 95.7903 108.529 97.6345C106.679 102.682 106.606 108.041 105.824 113.275C105.572 113.28 105.323 113.285 105.074 113.29Z" fill="#6082C1"/>
<path d="M77.6598 137.578C76.4587 137.563 75.2551 137.519 74.054 137.545C73.3033 137.563 73.0183 137.246 73.0565 136.524C73.0845 135.986 73.1023 135.443 73.0514 134.907C72.9674 133.979 73.3746 133.693 74.2678 133.698C79.6498 133.726 85.0343 133.711 90.4163 133.711C90.6682 133.711 90.9227 133.698 91.1746 133.691C96.1189 133.698 101.066 133.706 106.01 133.716C107.288 133.719 107.374 133.793 107.354 135.068C107.31 137.904 107.725 137.522 104.857 137.527C96.2665 137.545 87.6757 137.532 79.0849 137.537C78.609 137.535 78.1331 137.563 77.6598 137.578Z" fill="#CFDEF1"/>
<path d="M111.364 91.3394C111.087 91.1277 111.168 90.8242 111.168 90.5487C111.163 87.4726 111.181 84.3965 111.153 81.3204C111.148 80.6598 111.344 80.4455 112.013 80.4481C113.776 80.4557 114.222 80.9429 114.43 82.7131C114.591 84.0675 114.54 85.4168 114.606 86.8196C115.349 86.6105 115.542 85.7229 116.28 85.6183C116.308 88.2225 116.336 90.8293 116.364 93.4335C116.364 94.4563 116.184 95.4894 116.489 96.4994H116.484C116.489 96.5657 116.492 96.6321 116.497 96.6958C116.479 99.0731 116.461 101.45 116.438 103.827C116.428 104.81 116.408 105.789 116.392 106.771C116.342 107.868 116.191 108.967 116.476 110.056C116.207 112.145 116.354 114.244 116.342 116.339C116.316 116.787 116.291 117.234 116.265 117.683C115.115 117.224 114.542 116.532 114.555 115.132C114.626 106.261 114.591 97.3871 114.591 88.5133C114.591 88.1766 114.591 87.8399 114.591 87.2992C113.158 88.5413 112.395 90.0513 111.364 91.3394Z" fill="#5073B8"/>
<path d="M116.263 117.683C116.288 117.234 116.314 116.787 116.339 116.339C117.011 116.446 117.586 116.071 118.214 115.958C118.24 116.132 118.268 116.303 118.293 116.476C117.84 117.18 117.823 117.759 118.746 118.068C119.647 121.024 120.942 123.827 122.037 126.707C122.192 127.115 122.299 127.544 122.426 127.962C121.474 129.196 120.861 130.63 120.077 131.964C119.085 133.652 118.189 135.397 117.25 137.116C116.794 137.116 116.339 137.116 115.883 137.116C115.967 133.369 116.074 129.622 116.125 125.873C116.166 123.144 116.392 120.417 116.263 117.683Z" fill="#CFDEF1"/>
<path d="M105.822 113.275C106.603 108.041 106.679 102.682 108.527 97.6344C109.201 95.7929 109.881 93.9487 110.975 92.2959C111.189 92.6402 111.166 93.0203 111.166 93.4029C111.163 100.093 111.166 106.781 111.163 113.472C111.163 114.686 111.059 114.76 109.919 114.374C108.578 113.918 107.204 113.584 105.822 113.275Z" fill="#5073B8"/>
<path d="M127.663 102.626C127.052 102.7 126.454 102.884 125.831 102.802C126.314 101.277 127.233 99.9658 127.968 98.5706C130.322 94.1095 132.75 89.6866 135.152 85.251C136.709 82.3764 138.269 79.5069 139.831 76.6374C139.923 76.4716 140.012 76.3007 140.132 76.1528C140.409 75.8033 140.727 75.5687 141.188 75.8747C141.623 76.163 141.62 76.5252 141.399 76.946C140.699 78.2622 140.012 79.586 139.305 80.8995C135.556 87.8552 131.803 94.8058 128.055 101.761C127.902 102.037 127.793 102.338 127.663 102.626Z" fill="#A5A6AB"/>
<path d="M132.691 79.8997C130.462 84.0675 128.24 88.2378 126.006 92.4031C124.627 94.9767 123.23 97.5401 121.841 100.106C121.81 100.162 121.785 100.221 121.754 100.277C121.497 100.779 121.197 101.315 120.533 100.981C119.881 100.652 120.087 100.104 120.365 99.5883C121.36 97.7442 122.342 95.8949 123.337 94.0508C125.887 89.3321 128.439 84.6159 130.991 79.8997C131.556 80.0298 132.124 79.3717 132.691 79.8997Z" fill="#A5A6AB"/>
<path d="M116.884 93.0612C117.843 91.2043 118.779 89.3372 119.764 87.4956C121.757 83.7768 123.775 80.0732 125.782 76.362C126.869 74.3546 127.963 72.3498 129.05 70.3424C129.304 69.8731 129.589 69.3808 130.205 69.7277C130.765 70.044 130.671 70.5796 130.403 71.0668C128.251 75.0229 126.095 78.9738 123.937 82.9274C122.988 83.3125 122.408 84.1185 121.818 84.8812C120.528 86.5417 119.807 88.5312 118.767 90.3371C118.222 91.2885 117.975 92.4822 116.884 93.0612Z" fill="#B3B3B8"/>
<path d="M116.334 83.9043C116.26 82.9503 116.38 81.9836 116.11 81.045C117.031 79.387 117.968 77.7367 118.868 76.0686C120.375 73.2807 121.838 70.4699 123.375 67.7024C123.65 67.2076 123.831 66.2077 124.757 66.6949C125.724 67.2025 125.039 67.909 124.734 68.4727C122.019 73.5205 119.281 78.5581 116.548 83.5982C116.489 83.7079 116.405 83.8022 116.334 83.9043Z" fill="#B3B3B8"/>
<path d="M116.884 93.0611C117.978 92.4821 118.225 91.2884 118.772 90.3396C119.812 88.5362 120.533 86.5467 121.823 84.8837C122.413 84.121 122.993 83.315 123.942 82.9299C123.232 84.5929 122.283 86.1335 121.433 87.7226C119.866 90.6558 118.263 93.5713 116.675 96.4943C116.611 96.4969 116.548 96.4994 116.484 96.4994H116.489C116.497 95.497 116.502 94.492 116.509 93.4896C116.632 93.3468 116.756 93.204 116.884 93.0611Z" fill="#A5A6AB"/>
<path d="M132.691 79.8997C132.124 79.3743 131.556 80.0323 130.991 79.8972C132.192 77.6653 133.388 75.4309 134.595 73.1991C134.826 72.7706 135.17 72.4722 135.676 72.7502C136.144 73.0078 136.213 73.4185 135.956 73.8903C134.867 75.8926 133.78 77.8949 132.691 79.8997Z" fill="#B3B3B8"/>
<path d="M116.476 110.056C116.191 108.967 116.342 107.868 116.392 106.771C116.85 106.649 116.909 106.184 117.153 105.876C117.438 105.514 117.772 105.312 118.207 105.585C118.616 105.843 118.711 106.233 118.477 106.651C117.828 107.799 117.311 109.023 116.476 110.056Z" fill="#9DA5B6"/>
<path d="M116.507 93.4922C116.499 94.4946 116.494 95.4995 116.487 96.5019C116.184 95.4893 116.362 94.4589 116.362 93.436C116.418 93.436 116.466 93.4564 116.507 93.4922Z" fill="#9DA5B6"/>
<path d="M125.833 102.794C125.77 102.853 125.706 102.909 125.642 102.968C125.708 102.909 125.772 102.853 125.833 102.794Z" fill="#A5A6AB"/>
<path d="M116.481 96.5021C116.545 96.4995 116.609 96.4969 116.672 96.4969C116.614 96.5658 116.553 96.6321 116.494 96.701C116.492 96.6321 116.487 96.5684 116.481 96.5021Z" fill="#9DA5B6"/>
<path d="M118.749 118.068C117.823 117.759 117.843 117.18 118.296 116.476C118.555 116.974 118.632 117.527 118.749 118.068Z" fill="#A5A6AB"/>
<path d="M93.8389 88.8551C97.3837 88.8628 100.926 88.8704 104.471 88.8857C104.784 88.8857 105.109 88.8883 105.407 88.9674C105.812 89.0745 106.028 89.3653 106.028 89.8142C106.028 90.2631 105.809 90.5513 105.405 90.6585C105.107 90.7375 104.781 90.7401 104.468 90.7426C100.481 90.7605 96.4956 90.7732 92.5081 90.786C88.7597 90.786 85.014 90.7885 81.2657 90.7885C79.3393 90.7732 77.4105 90.7656 75.4842 90.7426C74.9803 90.7375 74.5274 90.5921 74.4179 90.0131C74.3441 89.6152 74.4307 89.2683 74.8276 89.0413C75.1813 88.8373 75.5681 88.9138 75.9371 88.8551C81.9044 88.8526 87.8717 88.8551 93.8389 88.8551Z" fill="#CFDEF1"/>
<path d="M81.2657 90.7886C85.014 90.7886 88.7597 90.786 92.5081 90.786C91.9406 92.3623 90.8871 93.6198 89.8336 94.8773C89.6147 95.1375 89.2712 95.3109 89.2712 95.719C89.1465 95.7292 89.0193 95.7394 88.8946 95.7496C88.3806 94.4972 87.1337 94.1172 86.1184 93.5101C84.8028 92.7245 83.3828 92.1175 82.0163 91.4186C81.7237 91.2706 81.3191 91.2273 81.2657 90.7886Z" fill="#6F8FC9"/>
<path d="M97.8392 83.4987C98.3405 83.5064 98.8443 83.4936 99.3456 83.5293C99.8825 83.5676 100.259 83.8839 100.252 84.4246C100.244 84.9628 99.8927 85.2638 99.3227 85.2689C98.1293 85.2816 96.9383 85.3071 95.7474 85.3301C93.1544 85.3097 90.5614 85.2791 87.9683 85.2663C85.785 85.2561 83.6017 85.2587 81.4183 85.2663C80.8127 85.2689 80.1842 85.2332 80.1689 84.4578C80.1536 83.6696 80.7415 83.5115 81.4183 83.5115C86.7673 83.5191 92.1162 83.5166 97.4625 83.5166C97.5872 83.5191 97.7119 83.5064 97.8392 83.4987Z" fill="#D8E4F4"/>
<path d="M108.216 78.6575C107.603 78.7647 106.987 78.7341 106.371 78.6754C108.346 74.9871 110.321 71.2989 112.301 67.6132C113.14 66.0496 113.985 64.486 114.838 62.9301C115.102 62.4455 115.395 61.9226 116.079 62.3282C116.754 62.7261 116.443 63.2362 116.184 63.7208C113.797 68.1616 111.405 72.5997 109.02 77.043C108.735 77.571 108.484 78.1168 108.216 78.6575Z" fill="white"/>
<path d="M80.0188 112C80.9018 112 81.996 111.681 82.6042 112.089C83.1996 112.49 82.8103 113.681 82.9121 114.523C83.0698 115.813 83.1894 117.106 83.5075 118.369C83.6195 118.81 83.5202 119.019 83.024 119.012C81.884 118.996 80.7414 119.001 79.6014 119.024C79.2325 119.032 79.0238 118.874 78.8431 118.576C77.754 116.772 77.2374 114.803 77.0746 112.717C77.0288 112.11 77.268 111.941 77.8303 111.969C78.5581 112.005 79.2884 111.977 80.0162 111.977C80.0188 111.985 80.0188 111.992 80.0188 112Z" fill="#5073B8"/>
<path d="M81.7161 103.72C82.37 103.72 83.2887 103.46 83.6118 103.787C84.0037 104.182 83.4643 105.011 83.3701 105.659C83.2047 106.819 82.9655 107.97 82.9528 109.148C82.9477 109.781 82.7492 110.107 82.0061 110.092C80.6804 110.064 79.3495 110.143 78.0212 110.22C77.4054 110.255 77.1433 110.092 77.2603 109.429C77.5962 107.534 78.2527 105.764 79.207 104.098C79.3979 103.766 79.665 103.705 80.0009 103.71C80.571 103.718 81.141 103.713 81.711 103.713C81.7161 103.718 81.7161 103.72 81.7161 103.72Z" fill="#5073B8"/>
<path d="M100.384 109.697C99.7502 109.697 99.1115 109.643 98.4855 109.709C97.7043 109.794 97.4803 109.426 97.4727 108.732C97.4549 107.302 97.2182 105.896 96.9154 104.503C96.7602 103.787 96.9154 103.463 97.7348 103.498C98.6458 103.539 99.567 103.458 100.481 103.389C101.023 103.348 101.356 103.527 101.608 104.026C102.338 105.483 102.837 107.008 103.155 108.602C103.3 109.327 103.178 109.763 102.285 109.671C101.659 109.605 101.02 109.658 100.386 109.658C100.384 109.671 100.384 109.684 100.384 109.697Z" fill="#6082C1"/>
<path d="M89.2661 115.415C89.2661 116.367 89.2381 117.318 89.2763 118.267C89.2992 118.82 89.088 118.986 88.5613 118.966C87.836 118.938 87.1031 118.92 86.3805 118.991C85.7036 119.058 85.416 118.805 85.2888 118.157C84.9325 116.321 84.6603 114.479 84.6552 112.602C84.6526 112.059 84.7519 111.78 85.3728 111.796C86.4466 111.821 87.523 111.801 88.5969 111.75C89.1593 111.722 89.2967 111.949 89.2789 112.467C89.2458 113.449 89.2687 114.431 89.2687 115.415C89.2712 115.415 89.2687 115.415 89.2661 115.415Z" fill="#5073B8"/>
<path d="M91.1212 115.234C91.1212 114.285 91.1314 113.334 91.1161 112.385C91.111 111.979 91.1925 111.732 91.681 111.724C92.8185 111.706 93.9534 111.655 95.0909 111.594C95.5668 111.569 95.7754 111.704 95.7576 112.227C95.6889 114.293 95.3683 116.316 94.783 118.297C94.6659 118.695 94.4573 118.859 94.04 118.848C93.2511 118.828 92.4597 118.83 91.6683 118.864C91.1492 118.887 91.0194 118.647 91.0296 118.18C91.05 117.198 91.0372 116.216 91.0372 115.234C91.0652 115.234 91.0932 115.234 91.1212 115.234Z" fill="#5073B8"/>
<path d="M103.211 112.719C103.13 113.931 102.827 115.084 102.272 116.165C101.755 116.055 101.252 116.242 100.794 116.379C99.3812 116.81 97.9867 117.328 97.2691 118.8C96.778 118.892 96.4828 118.846 96.6864 118.198C97.2844 116.287 97.4702 114.306 97.5796 112.321C97.6152 111.678 97.8392 111.51 98.4219 111.546C99.0504 111.584 99.6815 111.561 100.313 111.566C100.44 111.87 100.722 111.916 100.992 112C101.733 112.234 102.47 112.479 103.211 112.719Z" fill="#5073B8"/>
<path d="M89.2737 106.48C89.2737 107.549 89.2407 108.373 89.2839 109.194C89.317 109.783 89.0727 109.987 88.5256 109.992C87.4518 109.998 86.3754 110.003 85.304 110.049C84.7697 110.072 84.6526 109.837 84.706 109.37C84.9096 107.613 85.1157 105.858 85.584 104.141C85.6985 103.72 85.9071 103.557 86.3117 103.583C86.3423 103.585 86.3754 103.58 86.4059 103.58C87.3169 103.618 88.5612 103.167 89.0575 103.708C89.714 104.422 89.1592 105.7 89.2737 106.48Z" fill="#5073B8"/>
<path d="M95.6635 108.72C95.9434 109.605 95.6253 109.919 94.7067 109.855C93.7931 109.791 92.8668 109.817 91.9508 109.88C91.2561 109.929 91.0932 109.653 91.111 109.011C91.1517 107.485 91.167 105.957 91.1136 104.435C91.0881 103.708 91.3197 103.45 92.0246 103.542C92.3681 103.588 92.7193 103.57 93.0679 103.583C93.1264 104.845 93.5717 105.996 94.1875 107.064C94.554 107.699 94.895 108.419 95.6635 108.72Z" fill="#5073B8"/>
<path d="M94.6558 98.1243C96.7704 98.6829 98.4219 99.8791 99.9792 101.657C98.6993 101.657 97.6101 101.654 96.5236 101.657C96.2538 101.657 96.1317 101.491 96.0553 101.267C95.6864 100.188 95.2054 99.1573 94.6558 98.1243Z" fill="#6082C1"/>
<path d="M95.6634 108.72C94.895 108.419 94.554 107.699 94.1875 107.064C93.5743 105.996 93.1289 104.843 93.0679 103.583C94.8695 103.455 94.867 103.455 95.2334 105.177C95.4828 106.345 95.6202 107.526 95.6634 108.72Z" fill="#6082C1"/>
<path d="M97.2691 118.802C97.9867 117.331 99.3838 116.813 100.794 116.382C101.252 116.242 101.755 116.055 102.272 116.168C102.264 116.198 102.262 116.231 102.252 116.259C101.287 118.626 101.028 118.805 98.5058 118.818C98.0911 118.818 97.6814 118.808 97.2691 118.802Z" fill="#4267B1"/>
<path d="M81.0188 101.833C82.4184 100.165 84.0699 99.1904 86.0064 98.387C85.472 99.5118 84.9834 100.514 84.5203 101.529C84.4058 101.784 84.2328 101.833 83.9961 101.833C83.0622 101.833 82.1258 101.833 81.0188 101.833Z" fill="#5073B8"/>
<path d="M89.2814 97.8335C89.2814 99.1037 89.2763 100.201 89.2839 101.297C89.2865 101.659 89.1338 101.81 88.775 101.805C88.0218 101.795 87.266 101.802 86.355 101.802C87.0192 100.231 87.7368 98.8512 89.2814 97.8335Z" fill="#5073B8"/>
<path d="M85.4466 123.172C83.6933 122.746 82.2123 122.095 80.7109 120.772C81.9756 120.772 82.968 120.774 83.963 120.772C84.248 120.772 84.3193 120.996 84.4211 121.19C84.7442 121.802 85.0598 122.422 85.4466 123.172Z" fill="#5073B8"/>
<path d="M86.2481 120.731C87.1413 120.731 87.8971 120.759 88.6478 120.721C89.1694 120.695 89.2992 120.925 89.2712 121.391C89.2432 121.83 89.2381 122.276 89.2712 122.715C89.3323 123.554 88.9251 123.524 88.3602 123.246C87.3449 122.743 86.7545 121.884 86.2481 120.731Z" fill="#5073B8"/>
<path d="M91.167 98.2084C91.0728 97.5529 91.3757 97.5529 91.793 97.8513C92.9763 98.6981 93.6048 99.9352 94.1239 101.246C94.2384 101.537 94.1188 101.667 93.8338 101.67C93.3911 101.672 92.9483 101.662 92.5055 101.659C92.2129 100.45 92.0551 99.1879 91.167 98.2084Z" fill="#6082C1"/>
<path d="M93.6302 120.754C93.0246 121.889 92.2408 122.646 91.2052 123.141C91.1212 123.039 91.0525 122.993 91.055 122.95C91.1034 120.307 90.4265 120.703 93.6302 120.754Z" fill="#5073B8"/>
<path d="M94.6685 122.68C95.6177 120.557 95.8823 120.425 98.7552 120.631C97.4778 121.59 96.1928 122.177 94.6685 122.68Z" fill="#5073B8"/>
<path d="M91.167 98.2084C92.0551 99.1853 92.2103 100.45 92.5055 101.659C91.1339 101.751 91.1314 101.751 91.1365 100.371C91.1416 99.6495 91.1568 98.9302 91.167 98.2084Z" fill="#5073B8"/>
<path d="M103.211 112.719C102.47 112.479 101.733 112.235 100.992 112.002C100.722 111.918 100.44 111.872 100.313 111.569C101.183 111.25 102.112 111.321 102.969 111.446C103.705 111.553 103.323 112.245 103.211 112.719Z" fill="#6F8FC9"/>
</g>
</g>
<defs>
<filter id="filter0_d_14_184" x="0" y="0" width="229.547" height="229.547" filterUnits="userSpaceOnUse" color-interpolation-filters="sRGB">
<feFlood flood-opacity="0" result="BackgroundImageFix"/>
<feColorMatrix in="SourceAlpha" type="matrix" values="0 0 0 0 0 0 0 0 0 0 0 0 0 0 0 0 0 0 127 0" result="hardAlpha"/>
<feOffset dx="8" dy="16"/>
<feGaussianBlur stdDeviation="10"/>
<feComposite in2="hardAlpha" operator="out"/>
<feColorMatrix type="matrix" values="0 0 0 0 0 0 0 0 0 0 0 0 0 0 0 0 0 0 0.08 0"/>
<feBlend mode="normal" in2="BackgroundImageFix" result="effect1_dropShadow_14_184"/>
<feBlend mode="normal" in="SourceGraphic" in2="effect1_dropShadow_14_184" result="shape"/>
</filter>
<clipPath id="clip0_14_184">
<rect width="86" height="92" fill="white" transform="translate(64 55.2577)"/>
</clipPath>
</defs>
</svg>
